SplineFontDB: 3.0
FontName: GTRS_RtpA
FullName: GOSTRUS Type A
FamilyName: GOSTRUS
Weight: type A
Copyright: Copyright(c)2015,Yuriy & Tatyana Krivoguz. Created by Yuriy & Tatyana Krivoguz, with FontForge 2.0 (http://fontforge.sf.net)
UComments: "2015-5-31: Created GOSTRUS V.1.0" 
Version: 01.0
ItalicAngle: 0
UnderlinePosition: -180
UnderlineWidth: 92
Ascent: 1676
Descent: 372
sfntRevision: 0x00000000
LayerCount: 2
Layer: 0 0 "+BBcEMAQ0BD0EOAQ5 +BD8EOwQwBD0A"  1
Layer: 1 0 "+BB8ENQRABDUENAQ9BDgEOQAA +BD8EOwQwBD0A"  0
BaseHoriz: 2 'hang' 'romn'
FSType: 0
OS2Version: 0
OS2_WeightWidthSlopeOnly: 0
OS2_UseTypoMetrics: 1
CreationTime: 1433080566
ModificationTime: 1433552332
PfmFamily: 33
TTFWeight: 200
TTFWidth: 5
LineGap: 0
VLineGap: 0
OS2TypoAscent: 1676
OS2TypoAOffset: 0
OS2TypoDescent: -372
OS2TypoDOffset: 0
OS2TypoLinegap: 0
OS2WinAscent: 1676
OS2WinAOffset: 0
OS2WinDescent: 374
OS2WinDOffset: 0
HheadAscent: 1676
HheadAOffset: 0
HheadDescent: -374
HheadDOffset: 0
OS2FamilyClass: 2053
OS2Vendor: 'YUTA'
OS2CodePages: 0000000f.00000000
MarkAttachClasses: 1
DEI: 91125

StartChar: zero
Encoding: 48 48 0
Width: 837
VWidth: 2216
Flags: W
HStem: 0 93<294.631 542.565> 1210 93<292.688 545.195>
VStem: 93 93<210.212 1092.33> 652 93<206.429 1096.31>
LayerCount: 2
Fore
SplineSet
652 372 m 2
 652 931 l 2
 652 1009 629 1076 582 1132 c 0
 534 1184 481 1210 420 1210 c 0
 356 1210 302 1184 258 1132 c 0
 210 1077 186 1010 186 931 c 2
 186 372 l 2
 186 291 210 225 258 173 c 0
 301 120 355 93 420 93 c 0
 481 93 534 120 582 173 c 0
 629 225 652 291 652 372 c 2
745 931 m 2
 745 372 l 2
 745 269 714 183 652 113 c 0
 588 38 511 0 420 0 c 0
 326 0 248 38 186 113 c 0
 124 183 93 269 93 372 c 2
 93 931 l 2
 93 1032 124 1119 186 1193 c 0
 250 1267 328 1303 420 1303 c 0
 510 1303 587 1267 652 1193 c 0
 714 1119 745 1032 745 931 c 2
EndSplineSet
Validated: 1
EndChar

StartChar: one
Encoding: 49 49 1
Width: 558
VWidth: 2216
Flags: W
HStem: 0 21G<392 446> 0 21G<392 446> 1169 134<327.812 371.999>
VStem: 372 93<0 1169>
LayerCount: 2
Fore
SplineSet
123 1030 m 2xb0
 349 1292 l 1
 353 1300 360 1303 370 1303 c 2
 437 1303 l 2
 455 1303 465 1293 465 1275 c 2
 465 28 l 2
 465 10 455 0 437 0 c 2
 401 0 l 2
 383 0 372 10 372 28 c 2
 372 1154 l 2
 372 1165 371 1169 368 1169 c 0
 366 1169 362 1165 357 1160 c 2
 195 970 l 2
 187 961 181 957 173 957 c 0
 167 957 160 961 154 966 c 2
 126 989 l 2
 118 995 114 1003 114 1011 c 0
 114 1017 117 1024 123 1030 c 2xb0
EndSplineSet
Validated: 1
EndChar

StartChar: two
Encoding: 50 50 2
Width: 837
VWidth: 2216
Flags: W
HStem: 0 93<232.001 745> 1210 93<284.527 553.459>
VStem: 95 93<979 1114.51> 652 93<844.933 1112.2>
LayerCount: 2
Fore
SplineSet
652 979 m 0
 652 1106 547 1210 420 1210 c 0
 300 1210 199 1116 188 1005 c 0
 186 988 175 979 158 979 c 2
 123 979 l 2
 104 979 95 987 95 1003 c 0
 95 1005 95 1007 95 1009 c 0
 108 1171 250 1303 420 1303 c 0
 598 1303 745 1157 745 979 c 0
 745 913 728 853 693 801 c 2
 234 106 l 2
 233 104 232 102 232 100 c 0
 232 96 234 93 242 93 c 2
 717 93 l 2
 735 93 745 83 745 65 c 2
 745 28 l 2
 745 10 735 0 717 0 c 2
 106 0 l 2
 84 0 73 8 73 21 c 0
 73 27 76 35 82 45 c 2
 615 851 l 2
 640 889 652 931 652 979 c 0
EndSplineSet
Validated: 1
EndChar

StartChar: four
Encoding: 52 52 3
Width: 843
VWidth: 2216
Flags: W
HStem: 0 21G<490.5 546> 0 21G<490.5 546> 279 93<214.906 471.997 565.002 751> 1283 20G<357.5 412.5>
VStem: 472 93<0 278.998 372 652>
LayerCount: 2
Fore
SplineSet
723 279 m 2xb8
 574 279 l 2
 568 279 565 276 565 271 c 2
 565 28 l 2
 565 10 555 0 537 0 c 2
 500 0 l 2
 481 0 472 10 472 28 c 2
 472 271 l 2
 472 276 468 279 463 279 c 2
 123 279 l 2
 102 279 93 287 93 303 c 0
 93 307 94 312 95 316 c 2
 338 1282 l 1
 339 1296 349 1303 366 1303 c 2
 403 1303 l 2
 422 1303 430 1297 430 1283 c 0
 430 1280 430 1274 429 1269 c 2
 208 383 l 1
 208 375 210 372 216 372 c 2
 463 372 l 2
 468 372 472 376 472 381 c 2
 472 623 l 2
 472 641 481 652 500 652 c 2
 537 652 l 2
 555 652 565 641 565 623 c 2
 565 381 l 2
 565 376 568 372 574 372 c 2
 723 372 l 2
 741 372 751 362 751 344 c 2
 751 307 l 2
 751 289 741 279 723 279 c 2xb8
EndSplineSet
Validated: 1
EndChar

StartChar: five
Encoding: 53 53 4
Width: 744
VWidth: 2216
Flags: W
HStem: 0 93<95 448.851> 652 93<186 448.851> 1210 93<186 652>
VStem: 93 93<745 1210> 559 93<212.559 535.306>
CounterMasks: 1 e0
LayerCount: 2
Fore
SplineSet
559 372 m 0
 559 515 466 652 327 652 c 2
 121 652 l 2
 103 652 93 662 93 680 c 2
 93 1275 l 2
 93 1293 103 1303 121 1303 c 2
 623 1303 l 2
 641 1303 652 1293 652 1275 c 2
 652 1240 l 2
 652 1219 641 1210 623 1210 c 2
 195 1210 l 2
 190 1210 186 1207 186 1202 c 2
 186 753 l 2
 186 748 190 745 195 745 c 2
 327 745 l 2
 513 745 652 565 652 372 c 0
 652 178 513 0 327 0 c 2
 123 0 l 2
 105 0 95 10 95 28 c 2
 95 65 l 2
 95 83 105 93 123 93 c 2
 327 93 l 2
 461 93 559 228 559 372 c 0
EndSplineSet
Validated: 1
EndChar

StartChar: seven
Encoding: 55 55 5
Width: 837
VWidth: 2216
Flags: W
HStem: 0 21G<398 452> 0 21G<398 452> 1210 93<186.003 652>
VStem: 93 93<1072 1210> 652 93<1061.76 1210>
LayerCount: 2
Fore
SplineSet
93 1100 m 2xb8
 93 1275 l 2
 93 1293 103 1303 121 1303 c 2
 717 1303 l 2
 735 1303 745 1293 745 1275 c 0
 745 1220 745 1163 745 1108 c 1
 472 22 l 2
 469 8 460 0 444 0 c 2
 407 0 l 2
 389 0 379 8 379 24 c 0
 379 27 380 32 381 37 c 2
 652 1119 l 1
 652 1146 652 1175 652 1202 c 0
 652 1207 648 1210 643 1210 c 2
 195 1210 l 2
 190 1210 186 1207 186 1202 c 2
 186 1100 l 2
 186 1082 176 1072 158 1072 c 2
 121 1072 l 2
 103 1072 93 1082 93 1100 c 2xb8
EndSplineSet
Validated: 1
EndChar

StartChar: eight
Encoding: 56 56 6
Width: 837
VWidth: 2216
Flags: W
HStem: 0 93<295.48 529.24> 652 93<313.859 528.51> 1210 93<311.081 528.04>
VStem: 93 93<209.201 533.663> 141 93<827.984 1128.69> 606 93<826.588 1126.16> 652 93<234.041 534.143>
CounterMasks: 1 e0
LayerCount: 2
Fore
SplineSet
652 372 m 0xf2
 652 514 557 652 420 652 c 0
 280 652 186 514 186 372 c 0
 186 229 281 93 420 93 c 8
 562 93 652 291 652 372 c 0xf2
234 979 m 256xec
 234 862 306 745 420 745 c 256
 533 745 606 862 606 979 c 0
 606 1094 531 1210 420 1210 c 0
 305 1210 234 1096 234 979 c 256xec
420 1303 m 256
 589 1303 699 1144 699 979 c 0xec
 699 889 672 813 619 751 c 0
 610 741 597 727 580 710 c 0
 578 708 577 706 577 703 c 0
 577 701 578 699 580 697 c 0
 675 632 745 508 745 372 c 0
 745 177 606 0 420 0 c 0
 231 0 93 180 93 372 c 0xf2
 93 505 163 633 258 697 c 0
 261 699 262 702 262 704 c 0
 262 706 261 708 260 710 c 1
 186 764 141 873 141 979 c 0
 141 1144 251 1303 420 1303 c 256
EndSplineSet
Validated: 1
EndChar

StartChar: three
Encoding: 51 51 7
Width: 744
VWidth: 2216
Flags: W
HStem: 0 93<93 449.494> 652 95<279 417.895> 1210 93<93 417.652>
VStem: 279 194<672.156 746.998> 513 93<841.944 1113.71> 559 93<206.365 537.434>
CounterMasks: 1 e0
LayerCount: 2
Fore
SplineSet
121 93 m 2xf4
 327 93 l 2
 388 93 441 120 489 173 c 0
 536 225 559 291 559 372 c 0xf4
 559 450 536 518 489 574 c 0
 441 626 388 652 327 652 c 2
 307 652 l 2
 289 652 279 662 279 680 c 2
 279 717 l 2
 279 734 288 744 305 747 c 1
 356 750 402 772 444 814 c 0
 491 857 513 913 513 979 c 0
 513 1043 491 1096 444 1143 c 0
 400 1187 344 1210 279 1210 c 2
 121 1210 l 2
 103 1210 93 1219 93 1240 c 2
 93 1275 l 2
 93 1293 103 1303 121 1303 c 2
 279 1303 l 2
 367 1303 445 1272 511 1208 c 0
 575 1144 606 1069 606 979 c 0xf8
 606 888 575 811 511 747 c 0
 506 742 499 736 493 731 c 0
 487 726 480 721 476 717 c 0
 474 715 473 712 473 710 c 0
 473 708 474 706 476 704 c 0
 507 682 536 658 559 632 c 0
 621 559 652 473 652 372 c 0
 652 269 621 183 559 113 c 0
 495 38 418 0 327 0 c 2
 121 0 l 2
 103 0 93 10 93 28 c 2
 93 65 l 2
 93 83 103 93 121 93 c 2xf4
EndSplineSet
Validated: 1
EndChar

StartChar: six
Encoding: 54 54 8
Width: 837
VWidth: 2216
Flags: W
HStem: 0 93<294.631 542.565> 652 93<188.048 545.016> 1210 93<401.385 559>
VStem: 93 93<209.77 648.952 747.048 967.826> 652 93<206.365 537.434>
CounterMasks: 1 e0
LayerCount: 2
Fore
SplineSet
420 745 m 2
 511 745 588 707 652 632 c 0
 714 559 745 473 745 372 c 0
 745 269 714 183 652 113 c 1
 588 38 511 0 420 0 c 0
 326 0 248 38 186 113 c 0
 124 187 93 272 93 372 c 2
 93 745 l 2
 93 895 137 1026 227 1137 c 0
 308 1237 408 1291 528 1303 c 1
 549 1303 559 1294 559 1273 c 2
 559 1238 l 2
 559 1220 550 1210 533 1210 c 1
 442 1201 364 1157 299 1078 c 0
 225 988 187 880 186 753 c 0
 186 750 187 748 188 747 c 2
 191 746 l 0
 192 745 194 745 195 745 c 2
 420 745 l 2
186 643 m 2
 186 372 l 2
 186 293 210 226 258 173 c 1
 301 120 355 93 420 93 c 0
 481 93 534 120 582 173 c 0
 629 225 652 291 652 372 c 0
 652 450 629 518 582 574 c 1
 534 626 481 652 420 652 c 2
 195 652 l 2
 192 652 189 650 188 649 c 256
 187 648 186 646 186 643 c 2
EndSplineSet
Validated: 1
EndChar

StartChar: nine
Encoding: 57 57 9
Width: 837
VWidth: 2216
Flags: W
HStem: 2 93<279 440.778> 559 93<294.668 651.997> 1210 93<292.688 545.195>
VStem: 93 93<768.017 1093.8> 652 93<340.013 558.997 652 1096.31>
CounterMasks: 1 e0
LayerCount: 2
Fore
SplineSet
305 95 m 1
 395 100 473 144 539 225 c 0
 612 313 649 421 652 550 c 0
 652 555 648 559 643 559 c 2
 420 559 l 2
 326 559 248 596 186 671 c 0
 124 745 93 831 93 931 c 1
 93 1030 124 1116 186 1193 c 0
 250 1267 328 1303 420 1303 c 0
 510 1303 587 1267 652 1193 c 0
 714 1119 745 1032 745 931 c 2
 745 559 l 2
 745 406 701 275 613 167 c 0
 530 66 428 11 310 2 c 0
 308 2 305 2 303 2 c 0
 287 2 279 11 279 30 c 2
 279 65 l 2
 279 82 288 92 305 95 c 1
652 660 m 2
 652 931 l 2
 652 1009 629 1076 582 1132 c 0
 534 1184 481 1210 420 1210 c 0
 356 1210 302 1184 258 1132 c 0
 210 1075 186 1008 186 931 c 0
 186 852 210 785 258 732 c 0
 301 679 355 652 420 652 c 2
 643 652 l 2
 648 652 652 655 652 660 c 2
EndSplineSet
Validated: 1
EndChar

StartChar: cent
Encoding: 162 162 10
Width: 744
VWidth: 2216
Flags: W
HStem: 0 21G<392 446> 0 21G<392 446> 193 93<224.911 371.998 465.003 652> 1030 94<225.347 371.998 465.003 652> 1283 20G<392 446>
VStem: 93 93<323.821 990.039> 372 93<0 192.997 286 1030 1124 1303>
LayerCount: 2
Fore
SplineSet
93 890 m 2xbe
 93 1016 199 1124 325 1124 c 2
 364 1124 l 2
 369 1124 372 1127 372 1132 c 2
 372 1275 l 2
 372 1293 383 1303 401 1303 c 2
 437 1303 l 2
 455 1303 465 1293 465 1275 c 2
 465 1132 l 2
 465 1127 469 1124 474 1124 c 2
 623 1124 l 2
 641 1124 652 1114 652 1093 c 2
 652 1059 l 2
 652 1041 641 1030 623 1030 c 2
 474 1030 l 2
 469 1030 465 1027 465 1022 c 2
 465 294 l 2
 465 289 469 286 474 286 c 2
 623 286 l 2
 641 286 652 276 652 255 c 2
 652 221 l 2
 652 203 641 193 623 193 c 2
 474 193 l 2
 469 193 465 189 465 184 c 2
 465 28 l 2
 465 10 455 0 437 0 c 2
 401 0 l 2
 383 0 372 10 372 28 c 2
 372 184 l 2
 372 189 369 193 364 193 c 2
 325 193 l 2
 198 193 93 296 93 424 c 2
 93 890 l 2xbe
186 424 m 2
 186 347 248 286 325 286 c 2
 364 286 l 2
 369 286 372 289 372 294 c 2
 372 1022 l 2
 372 1027 369 1030 364 1030 c 2
 325 1030 l 2
 248 1030 186 967 186 890 c 2
 186 424 l 2
EndSplineSet
Validated: 1
EndChar

StartChar: sterling
Encoding: 163 163 11
Width: 976
VWidth: 2216
Flags: W
HStem: 0 93<93 204.75 288.095 722.934> 652 93<93 234 327.003 606> 931 21G<764 819> 1210 93<410.948 658.215>
VStem: 234 93<124.823 651.997 745.002 1119.44> 745 93<931 1117.09> 790 93<159.134 279>
CounterMasks: 1 d0
LayerCount: 2
Fore
SplineSet
297 93 m 2xfc
 606 93 l 2
 702 93 777 168 790 255 c 1
 791 271 801 279 818 279 c 2
 855 279 l 2
 873 279 883 270 883 253 c 0
 883 251 883 249 883 247 c 0xfa
 868 116 750 0 606 0 c 2
 121 0 l 2
 103 0 93 10 93 28 c 2
 93 67 l 2
 93 83 101 92 117 95 c 0
 195 108 234 152 234 229 c 2
 234 643 l 2
 234 648 231 652 223 652 c 2
 121 652 l 2
 103 652 93 662 93 680 c 2
 93 717 l 2
 93 735 103 745 121 745 c 2
 223 745 l 2
 231 745 234 748 234 753 c 2
 234 979 l 2
 234 1061 262 1136 318 1203 c 0
 374 1270 447 1303 535 1303 c 0
 622 1303 694 1270 751 1203 c 0
 808 1136 838 1061 838 979 c 2
 838 959 l 2
 838 941 828 931 810 931 c 2
 773 931 l 2
 755 931 745 941 745 959 c 2
 745 979 l 2
 745 1036 725 1089 686 1138 c 0
 647 1187 597 1210 535 1210 c 256
 473 1210 422 1187 384 1138 c 0
 346 1089 327 1036 327 979 c 2
 327 753 l 2
 327 748 331 745 336 745 c 2
 576 745 l 2
 597 745 606 735 606 717 c 2
 606 680 l 2
 606 662 597 652 576 652 c 2
 336 652 l 2
 331 652 327 648 327 643 c 2
 327 229 l 2
 327 187 315 146 290 106 c 0
 289 105 287 100 288 97 c 28
 290 94 294 93 297 93 c 2xfc
EndSplineSet
Validated: 1
EndChar

StartChar: yen
Encoding: 165 165 12
Width: 930
VWidth: 2216
Flags: W
HStem: 0 21G<439 493.5> 0 21G<439 493.5> 327 91<93 419.997 513.003 838> 652 93<93 361.859 572.001 838> 1283 20G<119 179 751.5 811.5>
VStem: 420 93<0 326.997 418.002 651.993>
LayerCount: 2
Fore
SplineSet
420 639 m 2xbc
 420 643 413 652 409 652 c 2
 121 652 l 2
 103 652 93 662 93 680 c 2
 93 717 l 2
 93 735 103 745 121 745 c 2
 353 745 l 2
 356 745 359 746 362 749 c 1
 362 758 l 1
 108 1262 l 2
 95 1289 104 1303 134 1303 c 2
 173 1303 l 2
 185 1303 194 1298 199 1288 c 2
 457 771 l 1
 460 768 462 766 465 766 c 256
 468 766 471 768 474 771 c 1
 732 1288 l 2
 736 1298 745 1303 758 1303 c 2
 797 1303 l 2
 826 1303 836 1289 823 1262 c 2
 569 758 l 1
 569 754 571 750 572 749 c 1
 572 746 574 745 578 745 c 2
 810 745 l 2
 828 745 838 735 838 717 c 2
 838 680 l 2
 838 662 828 652 810 652 c 2
 524 652 l 2
 518 652 513 648 513 639 c 2
 513 429 l 2
 513 421 517 418 522 418 c 2
 810 418 l 2
 828 418 838 408 838 390 c 2
 838 355 l 2
 838 337 828 327 810 327 c 2
 522 327 l 2
 517 327 513 323 513 318 c 2
 513 28 l 2
 513 10 504 0 483 0 c 2
 448 0 l 2
 430 0 420 10 420 28 c 2
 420 318 l 2
 420 323 416 327 411 327 c 2
 121 327 l 2
 103 327 93 337 93 355 c 2
 93 390 l 2
 93 408 103 418 121 418 c 2
 411 418 l 2
 416 418 420 421 420 429 c 2
 420 639 l 2xbc
EndSplineSet
Validated: 1
EndChar

StartChar: onequarter
Encoding: 188 188 13
Width: 1396
VWidth: 2216
Flags: W
HStem: 0 21G<266 322 1108 1163> 0 21G<266 322 1108 1163> 186 93<953.125 1089 1182 1303> 911 20G<1026.5 1078.5> 1495 135<233.531 278.999>
VStem: 279 93<699 1495> 1089 93<0 185.998 279 465>
LayerCount: 2
Fore
SplineSet
1275 186 m 2xbe
 1191 186 l 2
 1186 186 1182 183 1182 178 c 2
 1182 28 l 2
 1182 10 1172 0 1154 0 c 2
 1117 0 l 2
 1099 0 1089 10 1089 28 c 2
 1089 178 l 2
 1089 183 1085 186 1080 186 c 2
 862 186 l 2
 843 186 831 194 831 210 c 0
 831 214 832 219 833 223 c 2
 1007 909 l 1
 1008 923 1018 931 1035 931 c 2
 1069 931 l 2
 1088 931 1100 923 1100 908 c 0
 1100 905 1099 900 1098 896 c 2
 946 290 l 1
 946 282 950 279 955 279 c 2
 1080 279 l 2
 1085 279 1089 283 1089 288 c 2
 1089 437 l 2
 1089 455 1099 465 1117 465 c 2
 1154 465 l 2
 1172 465 1182 455 1182 437 c 2
 1182 288 l 2
 1182 283 1186 279 1191 279 c 2
 1275 279 l 2
 1293 279 1303 269 1303 251 c 2
 1303 214 l 2
 1303 196 1293 186 1275 186 c 2xbe
117 1457 m 2
 255 1619 l 2
 263 1627 270 1630 279 1630 c 2
 344 1630 l 2
 362 1630 372 1621 372 1600 c 2
 372 727 l 2
 372 709 362 699 344 699 c 2
 307 699 l 2
 289 699 279 709 279 727 c 2
 279 1481 l 2
 279 1491 278 1495 275 1495 c 0
 273 1495 268 1491 264 1485 c 1
 186 1396 l 1
 180 1386 174 1382 166 1382 c 0
 161 1382 153 1386 147 1392 c 1
 119 1416 l 2
 111 1422 107 1429 107 1437 c 0
 107 1443 111 1451 117 1457 c 2
1069 1589 m 2
 342 17 l 2
 337 5 328 0 316 0 c 2
 277 0 l 2xbe
 255 0 246 7 246 21 c 0x7e
 246 26 247 32 251 41 c 2
 976 1613 l 2
 981 1625 992 1630 1005 1630 c 2
 1041 1630 l 2
 1063 1630 1074 1623 1074 1609 c 0
 1074 1604 1072 1597 1069 1589 c 2
EndSplineSet
Validated: 1
EndChar

StartChar: onehalf
Encoding: 189 189 14
Width: 1443
VWidth: 2216
Flags: W
HStem: 0 93<1021 1351> 838 93<1018.59 1214.69> 1495 135<233.531 278.999>
VStem: 279 93<699 1495> 888 93<697 799.66> 1256 95<584.887 799.166>
LayerCount: 2
Fore
SplineSet
1314 572 m 1
 1024 106 l 2
 1022 103 1021 101 1021 99 c 0
 1021 96 1024 93 1030 93 c 2
 1321 93 l 2
 1342 93 1351 84 1351 63 c 2
 1351 28 l 2
 1351 10 1342 0 1321 0 c 2
 901 0 l 2
 876 0 865 7 865 19 c 0
 865 25 870 34 875 43 c 2
 1234 621 l 2
 1249 645 1256 671 1256 696 c 0
 1256 771 1195 838 1117 838 c 256
 1048 838 993 787 981 723 c 0
 978 705 964 697 950 697 c 2
 916 697 l 2
 897 697 888 707 888 724 c 0
 888 726 888 730 888 732 c 0
 901 840 1002 931 1117 931 c 0
 1247 931 1351 817 1351 694 c 0
 1351 653 1340 611 1314 572 c 1
277 1630 m 2
 344 1630 l 2
 362 1630 372 1621 372 1600 c 2
 372 727 l 2
 372 709 362 699 344 699 c 2
 307 699 l 2
 289 699 279 709 279 727 c 2
 279 1481 l 2
 279 1491 278 1495 275 1495 c 0
 273 1495 268 1490 264 1485 c 2
 186 1396 l 2
 178 1387 173 1383 165 1383 c 0
 159 1383 151 1387 145 1392 c 2
 119 1416 l 2
 111 1422 107 1429 107 1437 c 0
 107 1443 111 1451 117 1457 c 2
 255 1619 l 2
 263 1627 269 1630 277 1630 c 2
316 0 m 2
 277 0 l 2
 254 0 246 8 246 21 c 0
 246 26 248 33 251 41 c 2
 976 1613 l 2
 981 1625 990 1630 1002 1630 c 2
 1041 1630 l 2
 1064 1630 1074 1623 1074 1611 c 0
 1074 1605 1070 1598 1067 1589 c 2
 342 17 l 2
 337 5 328 0 316 0 c 2
EndSplineSet
Validated: 1
EndChar

StartChar: threequarters
Encoding: 190 190 15
Width: 1396
VWidth: 2216
Flags: W
HStem: 0 21G<314.5 370 1107.5 1163.5> 0 21G<314.5 370 1107.5 1163.5> 186 93<953.125 1089 1182 1303> 699 93<93 364.078> 911 20G<1026.5 1079> 1163 95<229 334.051> 1537 93<93 334.179>
VStem: 229 159<1182.11 1262.47> 372 93<1296.1 1498.66> 420 93<845.181 1102.74> 1089 93<0 185.999 279 465>
CounterMasks: 1 16
LayerCount: 2
Fore
SplineSet
1275 186 m 6xbe20
 1191 186 l 6
 1185 186 1182 184 1182 178 c 6
 1182 28 l 6
 1182 9 1173 0 1154 0 c 6
 1117 0 l 6
 1098 0 1089 9 1089 28 c 6
 1089 178 l 6
 1089 184 1086 186 1080 186 c 6
 862 186 l 6
 842 186 832 194 832 210 c 0
 832 214 832 218 833 223 c 6
 1007 909 l 5
 1008 923 1018 931 1035 931 c 6
 1069 931 l 6
 1089 931 1099 923 1099 908 c 0
 1099 904 1099 900 1098 896 c 6
 946 290 l 5
 946 283 949 279 955 279 c 6
 1080 279 l 6
 1086 279 1089 282 1089 288 c 6
 1089 437 l 6
 1089 456 1098 465 1117 465 c 6
 1154 465 l 6
 1173 465 1182 456 1182 437 c 6
 1182 288 l 6
 1182 282 1185 279 1191 279 c 6
 1275 279 l 6
 1294 279 1303 270 1303 251 c 6
 1303 214 l 6
 1303 195 1294 186 1275 186 c 6xbe20
513 979 m 4x3f60
 513 826 411 699 262 699 c 6
 121 699 l 6
 102 699 93 708 93 727 c 6
 93 762 l 6
 93 782 102 792 121 792 c 6
 262 792 l 6
 361 792 420 877 420 979 c 4
 420 1071 353 1163 258 1163 c 4
 239 1163 229 1173 229 1193 c 6
 229 1230 l 6x3f60
 229 1246 237 1256 253 1258 c 4
 316 1266 372 1327 372 1396 c 4
 372 1474 311 1537 234 1537 c 6
 121 1537 l 6
 102 1537 93 1546 93 1565 c 6
 93 1600 l 6
 93 1620 102 1630 121 1630 c 6
 234 1630 l 6
 364 1630 465 1524 465 1396 c 4x3ea0
 465 1327 441 1271 392 1228 c 4
 389 1225 388 1223 388 1221 c 0
 388 1218 390 1217 394 1215 c 5
 463 1162 513 1079 513 979 c 4x3f60
364 0 m 6xbe20
 325 0 l 6
 304 0 293 7 293 20 c 0
 293 26 295 33 299 41 c 6
 1024 1613 l 6
 1028 1625 1037 1630 1050 1630 c 6
 1089 1630 l 6
 1110 1630 1120 1623 1120 1609 c 0
 1120 1603 1118 1597 1115 1589 c 6
 390 17 l 6
 384 5 376 0 364 0 c 6xbe20
EndSplineSet
Validated: 1
EndChar

StartChar: dagger
Encoding: 8224 8224 16
Width: 837
VWidth: 2216
Flags: W
HStem: 652 93<93 371.999 465.002 745>
VStem: 372 93<-277 651.998 745.001 1024>
LayerCount: 2
Fore
SplineSet
717 652 m 2
 474 652 l 2
 468 652 465 649 465 643 c 2
 465 -249 l 2
 465 -268 456 -277 437 -277 c 2
 401 -277 l 2
 382 -277 372 -268 372 -249 c 2
 372 643 l 2
 372 649 370 652 364 652 c 2
 121 652 l 2
 102 652 93 661 93 680 c 2
 93 717 l 2
 93 736 102 745 121 745 c 2
 364 745 l 2
 370 745 372 747 372 753 c 2
 372 996 l 2
 372 1015 382 1024 401 1024 c 2
 437 1024 l 2
 456 1024 465 1015 465 996 c 2
 465 753 l 2
 465 747 468 745 474 745 c 2
 717 745 l 2
 736 745 745 736 745 717 c 2
 745 680 l 2
 745 661 736 652 717 652 c 2
EndSplineSet
Validated: 1
EndChar

StartChar: daggerdbl
Encoding: 8225 8225 17
Width: 837
VWidth: 2216
Flags: W
HStem: 0 93<93 371.999 465.002 745> 652 93<93 371.999 465.002 745>
VStem: 372 93<-277 0 93.0022 651.998 745.001 1024>
LayerCount: 2
Fore
SplineSet
465 996 m 2
 465 753 l 2
 465 747 468 745 474 745 c 2
 717 745 l 2
 736 745 745 736 745 717 c 2
 745 680 l 2
 745 661 736 652 717 652 c 2
 474 652 l 2
 468 652 465 649 465 643 c 2
 465 102 l 2
 465 96 468 93 474 93 c 2
 717 93 l 2
 736 93 745 84 745 65 c 2
 745 28 l 2
 745 9 736 0 717 0 c 2
 474 0 l 2
 468 0 465 -2 465 -6 c 2
 465 -249 l 2
 465 -268 456 -277 437 -277 c 2
 401 -277 l 2
 382 -277 372 -268 372 -249 c 2
 372 -6 l 2
 372 -2 370 0 364 0 c 2
 121 0 l 2
 102 0 93 9 93 28 c 2
 93 65 l 2
 93 84 102 93 121 93 c 2
 364 93 l 2
 370 93 372 96 372 102 c 2
 372 643 l 2
 372 649 370 652 364 652 c 2
 121 652 l 2
 102 652 93 661 93 680 c 2
 93 717 l 2
 93 736 102 745 121 745 c 2
 364 745 l 2
 370 745 372 747 372 753 c 2
 372 996 l 2
 372 1015 382 1024 401 1024 c 2
 437 1024 l 2
 456 1024 465 1015 465 996 c 2
EndSplineSet
Validated: 1
EndChar

StartChar: oneinferior
Encoding: 8321 8321 18
Width: 465
VWidth: 2216
Flags: W
HStem: 470 136<233.531 279>
VStem: 279 93<-325 469.997>
LayerCount: 2
Fore
SplineSet
277 606 m 6
 344 606 l 6
 363 606 372 596 372 576 c 6
 372 -294 l 6
 372 -314 363 -325 344 -325 c 6
 307 -325 l 6
 288 -325 279 -314 279 -294 c 6
 279 457 l 6
 279 466 279 470 276 470 c 0
 274 470 269 467 264 461 c 6
 186 372 l 6
 179 363 172 359 164 359 c 0
 158 359 151 362 145 368 c 6
 119 392 l 5
 111 398 107 403 107 410 c 0
 107 416 111 423 117 431 c 6
 255 595 l 6
 262 602 270 606 277 606 c 6
EndSplineSet
Validated: 1
EndChar

StartChar: twoinferior
Encoding: 8322 8322 19
Width: 651
VWidth: 2216
Flags: W
HStem: -323 91<240 559> 511 93<226.808 424.893>
VStem: 95 93<372 473.593> 467 91<263.636 469.054>
LayerCount: 2
Fore
SplineSet
95 397 m 0
 95 513 214 604 327 604 c 0
 458 604 558 492 558 369 c 0
 558 328 547 285 522 245 c 2
 232 -216 l 2
 226 -225 225 -232 240 -232 c 2
 530 -232 l 2
 548 -232 559 -242 559 -260 c 2
 559 -294 l 2
 559 -312 548 -323 530 -323 c 2
 108 -323 l 2
 67 -323 69 -304 84 -279 c 2
 444 294 l 1
 460 318 467 344 467 369 c 0
 467 443 405 511 327 511 c 256
 258 511 196 457 188 396 c 0
 185 380 176 372 160 372 c 2
 123 372 l 2
 104 372 95 381 95 397 c 0
EndSplineSet
Validated: 1
EndChar

StartChar: threeinferior
Encoding: 8323 8323 20
Width: 606
VWidth: 2216
Flags: W
HStem: -325 93<93 362.391> 139 95<229 334.051> 513 93<93 334.179>
VStem: 372 93<272.102 474.663> 420 93<-177.247 78.4691>
CounterMasks: 1 e0
LayerCount: 2
Fore
SplineSet
513 -45 m 0xe8
 513 -195 407 -325 262 -325 c 2
 121 -325 l 2
 102 -325 93 -314 93 -294 c 2
 93 -260 l 2
 93 -241 102 -232 121 -232 c 2
 262 -232 l 2
 360 -232 420 -142 420 -45 c 0xe8
 420 47 353 139 258 139 c 0
 239 139 229 148 229 167 c 2
 229 206 l 2
 229 222 237 232 253 234 c 0
 316 242 372 303 372 372 c 0
 372 450 311 513 234 513 c 2
 121 513 l 2
 102 513 93 522 93 541 c 2
 93 576 l 2
 93 596 102 606 121 606 c 2
 234 606 l 2
 364 606 465 500 465 372 c 0xf0
 465 303 441 247 392 204 c 0
 391 202 390 200 390 198 c 0
 390 196 391 193 394 191 c 0
 406 183 422 167 442 147 c 1
 490 92 513 29 513 -45 c 0xe8
EndSplineSet
Validated: 1
EndChar

StartChar: fourinferior
Encoding: 8324 8324 21
Width: 651
VWidth: 2216
Flags: W
HStem: -139 94<208.125 343.999 437.002 559>
VStem: 344 93<-325 -139.001 -45 141>
LayerCount: 2
Fore
SplineSet
530 -139 m 6
 446 -139 l 5
 440 -139 437 -141 437 -147 c 6
 437 -294 l 6
 437 -314 427 -325 407 -325 c 6
 372 -325 l 6
 353 -325 344 -314 344 -294 c 6
 344 -147 l 6
 344 -141 342 -139 336 -139 c 6
 117 -139 l 6
 97 -139 86 -131 86 -116 c 0
 86 -112 87 -107 89 -102 c 6
 262 585 l 6
 265 599 274 606 288 606 c 6
 325 606 l 6
 345 606 355 598 355 582 c 0
 355 578 354 574 353 569 c 6
 201 -32 l 5
 201 -41 204 -45 210 -45 c 6
 336 -45 l 6
 342 -45 344 -42 344 -35 c 6
 344 110 l 6
 344 130 353 141 372 141 c 6
 407 141 l 6
 427 141 437 130 437 110 c 6
 437 -35 l 6
 437 -42 440 -45 446 -45 c 6
 530 -45 l 6
 549 -45 559 -55 559 -74 c 6
 559 -108 l 6
 559 -128 549 -139 530 -139 c 6
EndSplineSet
Validated: 1
EndChar

StartChar: fiveinferior
Encoding: 8325 8325 22
Width: 606
VWidth: 2216
Flags: W
HStem: -323 91<93 358.866> 136 93<186 363.134> 513 93<186 513>
VStem: 93 93<229 513> 420 93<-170.279 78.5596>
CounterMasks: 1 e0
LayerCount: 2
Fore
SplineSet
420 -45 m 4
 420 42 355 136 268 136 c 6
 121 136 l 6
 102 136 93 146 93 165 c 6
 93 576 l 6
 93 596 102 606 121 606 c 6
 483 606 l 6
 503 606 513 596 513 576 c 6
 513 541 l 6
 513 522 503 513 483 513 c 6
 195 513 l 6
 189 513 186 509 186 502 c 6
 186 238 l 6
 186 232 189 229 195 229 c 6
 268 229 l 6
 334 229 393 201 444 145 c 4
 490 89 513 26 513 -45 c 4
 513 -117 490 -182 444 -238 c 4
 393 -294 334 -323 268 -323 c 6
 121 -323 l 6
 102 -323 93 -313 93 -294 c 6
 93 -260 l 6
 93 -241 102 -232 121 -232 c 6
 268 -229 l 5
 356 -229 420 -131 420 -45 c 4
EndSplineSet
Validated: 1
EndChar

StartChar: sixinferior
Encoding: 8326 8326 23
Width: 651
VWidth: 2216
Flags: W
HStem: -325 93<235.79 416.65> 141 93<188.112 414.488> 511 93<301.909 420>
VStem: 93 93<-180.533 141 234 378.258> 465 94<-181.513 89.2562>
CounterMasks: 1 e0
LayerCount: 2
Fore
SplineSet
327 -325 m 260
 187 -325 93 -191 93 -45 c 6
 93 201 l 6
 93 401 210 580 388 604 c 4
 390 604 392 604 394 604 c 0
 411 604 420 593 420 574 c 6
 420 539 l 6
 420 522 411 514 394 511 c 4
 277 490 199 371 188 242 c 4
 188 236 191 234 197 234 c 6
 327 234 l 6
 461 234 559 97 559 -45 c 260
 559 -190 467 -325 327 -325 c 260
465 -45 m 4
 465 41 410 141 327 141 c 6
 195 141 l 6
 189 141 186 137 186 130 c 6
 186 -45 l 6
 186 -139 237 -232 327 -232 c 4
 413 -232 465 -138 465 -45 c 4
EndSplineSet
Validated: 1
EndChar

StartChar: seveninferior
Encoding: 8327 8327 24
Width: 651
VWidth: 2216
Flags: W
HStem: 513 93<186.002 465>
VStem: 93 93<420 513> 465 94<406.768 513>
LayerCount: 2
Fore
SplineSet
93 448 m 6
 93 576 l 6
 93 596 102 606 121 606 c 6
 530 606 l 6
 549 606 559 596 559 576 c 4
 559 536 559 497 559 457 c 5
 381 -301 l 5
 375 -317 366 -325 353 -325 c 6
 316 -325 l 6
 296 -325 286 -317 286 -301 c 0
 286 -297 287 -293 288 -288 c 6
 465 468 l 5
 465 480 465 490 465 502 c 4
 465 509 463 513 457 513 c 6
 195 513 l 6
 189 513 186 509 186 502 c 6
 186 448 l 6
 186 429 177 420 158 420 c 6
 121 420 l 6
 102 420 93 429 93 448 c 6
EndSplineSet
Validated: 1
EndChar

StartChar: eightinferior
Encoding: 8328 8328 25
Width: 651
VWidth: 2216
Flags: W
HStem: -325 93<237.024 414.591> 126 93<247.323 402.972> 513 93<248.535 401.58>
VStem: 93 93<-182.219 76.1972> 123 93<247.254 481.183> 435 93<249.991 481.544> 465 94<-182.172 75.6849>
CounterMasks: 1 e0
LayerCount: 2
Fore
SplineSet
325 126 m 260xf2
 242 126 186 33 186 -52 c 4
 186 -139 241 -232 325 -232 c 260
 409 -232 465 -140 465 -52 c 4
 465 34 408 126 325 126 c 260xf2
325 513 m 4
 259 513 216 435 216 366 c 4
 216 295 257 219 325 219 c 4
 392 219 435 297 435 366 c 260xec
 435 436 390 513 325 513 c 4
325 -325 m 260
 192 -325 93 -193 93 -52 c 4xf2
 93 22 116 82 158 134 c 4
 168 146 179 159 193 171 c 5
 196 173 197 175 197 178 c 0
 197 180 196 182 195 184 c 5
 149 230 123 292 123 366 c 4
 123 486 210 606 325 606 c 260
 440 606 528 487 528 366 c 4xec
 528 292 503 230 457 184 c 5
 456 182 455 181 455 179 c 0
 455 177 456 175 458 173 c 4
 471 161 494 134 494 134 c 5
 537 81 559 18 559 -52 c 4xe2
 559 -192 458 -325 325 -325 c 260
EndSplineSet
Validated: 1
EndChar

StartChar: nineinferior
Encoding: 8329 8329 26
Width: 651
VWidth: 2216
Flags: W
HStem: -323 91<234 349.384> 45 94<237.585 462.878> 511 93<231.409 417.53>
VStem: 93 93<189.109 461.661> 465 94<-99.4041 44.9978 139 462.367>
CounterMasks: 1 e0
LayerCount: 2
Fore
SplineSet
93 325 m 0
 93 471 187 604 327 604 c 0
 392 604 448 576 496 520 c 0
 538 465 559 400 559 325 c 2
 559 76 l 2
 559 -121 440 -301 264 -323 c 0
 262 -323 259 -323 257 -323 c 0
 241 -323 234 -313 234 -294 c 2
 234 -260 l 2
 234 -241 242 -232 258 -232 c 0
 311 -232 355 -193 394 -147 c 0
 433 -95 456 -34 463 35 c 0
 463 42 461 45 455 45 c 2
 327 45 l 2
 189 45 93 180 93 325 c 0
186 325 m 0
 186 234 239 139 327 139 c 2
 457 139 l 2
 463 139 465 141 465 147 c 2
 465 325 l 2
 465 418 415 511 327 511 c 0
 235 511 186 420 186 325 c 0
EndSplineSet
Validated: 1
EndChar

StartChar: zeroinferior
Encoding: 8320 8320 27
Width: 651
VWidth: 2216
Flags: W
HStem: -325 93<236.586 413.949> 511 93<232.873 416.458>
VStem: 93 93<-178.683 459.219> 465 94<-178.24 463.786>
LayerCount: 2
Fore
SplineSet
327 -232 m 4
 409 -232 465 -138 465 -52 c 6
 465 333 l 6
 465 420 412 511 327 511 c 4
 239 511 186 421 186 333 c 6
 186 -52 l 6
 186 -140 242 -232 327 -232 c 4
327 604 m 4
 461 604 559 475 559 333 c 6
 559 -52 l 6
 559 -194 458 -325 327 -325 c 4
 192 -325 93 -195 93 -52 c 6
 93 333 l 6
 93 476 190 604 327 604 c 4
EndSplineSet
Validated: 1
EndChar

StartChar: onesuperior
Encoding: 185 185 29
Width: 465
VWidth: 2216
Flags: W
HStem: 1495 135<233.531 278.999>
VStem: 279 93<699 1495>
LayerCount: 2
Fore
SplineSet
117 1457 m 6
 255 1619 l 6
 262 1626 270 1630 277 1630 c 6
 344 1630 l 6
 363 1630 372 1620 372 1600 c 6
 372 727 l 6
 372 708 363 699 344 699 c 6
 307 699 l 6
 288 699 279 708 279 727 c 6
 279 1481 l 6
 279 1490 278 1495 275 1495 c 0
 272 1495 269 1492 264 1485 c 5
 186 1396 l 6
 179 1387 172 1383 164 1383 c 0
 158 1383 151 1386 145 1392 c 6
 119 1416 l 6
 111 1423 108 1430 108 1437 c 0
 108 1444 111 1450 117 1457 c 6
EndSplineSet
Validated: 1
EndChar

StartChar: threesuperior
Encoding: 179 179 30
Width: 606
VWidth: 2216
Flags: W
HStem: 699 93<93 364.078> 1163 95<229 334.051> 1537 93<93 334.179>
VStem: 229 159<1182.11 1260.38> 372 93<1294.61 1498.66> 420 93<845.181 1102.74>
CounterMasks: 1 e0
LayerCount: 2
Fore
SplineSet
513 979 m 4xf4
 513 826 411 699 262 699 c 6
 121 699 l 6
 102 699 93 708 93 727 c 6
 93 762 l 6
 93 782 102 792 121 792 c 6
 262 792 l 6
 361 792 420 877 420 979 c 4
 420 1071 353 1163 258 1163 c 4
 239 1163 229 1173 229 1193 c 6
 229 1230 l 6xf4
 229 1246 237 1255 253 1258 c 5
 316 1265 372 1327 372 1396 c 4
 372 1474 311 1537 234 1537 c 6
 121 1537 l 6
 102 1537 93 1546 93 1565 c 6
 93 1600 l 6
 93 1620 102 1630 121 1630 c 6
 234 1630 l 6
 364 1630 465 1524 465 1396 c 4xe8
 465 1327 441 1271 392 1228 c 4
 389 1225 388 1223 388 1221 c 0
 388 1218 390 1217 394 1215 c 5
 463 1162 513 1079 513 979 c 4xf4
EndSplineSet
Validated: 1
EndChar

StartChar: twosuperior
Encoding: 178 178 31
Width: 651
VWidth: 2216
Flags: W
HStem: 699 91<228.003 559> 1537 93<227.099 426.734>
VStem: 95 93<1396 1497.71> 465 94<1284.23 1497.37>
LayerCount: 2
Fore
SplineSet
465 1396 m 4
 465 1472 403 1537 327 1537 c 260
 261 1537 195 1483 188 1420 c 5
 185 1404 176 1396 160 1396 c 6
 123 1396 l 6
 104 1396 95 1405 95 1422 c 0
 95 1424 95 1426 95 1429 c 4
 107 1539 209 1630 327 1630 c 4
 453 1630 559 1525 559 1396 c 4
 559 1350 547 1309 522 1271 c 6
 232 805 l 6
 229 801 228 798 228 796 c 0
 228 792 232 790 240 790 c 6
 530 790 l 6
 549 790 559 781 559 762 c 6
 559 727 l 6
 559 708 549 699 530 699 c 6
 108 699 l 6
 85 699 74 705 74 717 c 0
 74 724 77 733 84 743 c 5
 444 1321 l 5
 458 1341 465 1366 465 1396 c 4
EndSplineSet
Validated: 1
EndChar

StartChar: altthreeinferior
Encoding: 8307 8307 32
Width: 606
VWidth: 2216
Flags: W
HStem: -323 91<93 358.14> 513 91<93 382.997>
VStem: 199 137<151 233.828> 420 93<-170.163 80.292>
LayerCount: 2
Fore
SplineSet
420 -45 m 4
 420 44 353 139 262 139 c 6
 232 139 l 5
 210 139 199 145 199 157 c 4
 199 164 202 172 208 182 c 6
 381 500 l 6
 382 503 383 505 383 507 c 0
 383 511 379 513 372 513 c 6
 121 513 l 6
 102 513 93 522 93 541 c 6
 93 576 l 6
 93 595 102 604 121 604 c 6
 496 606 l 6
 517 606 528 600 528 587 c 0
 528 581 525 573 520 563 c 6
 338 229 l 6
 337 227 336 225 336 223 c 0
 336 219 338 217 344 216 c 5
 438 181 513 73 513 -45 c 4
 513 -117 490 -182 442 -240 c 4
 393 -295 333 -323 262 -323 c 6
 121 -323 l 6
 102 -323 93 -313 93 -294 c 6
 93 -260 l 6
 93 -241 102 -232 121 -232 c 6
 262 -229 l 6
 353 -229 420 -137 420 -45 c 4
EndSplineSet
Validated: 1
EndChar

StartChar: foursuperior
Encoding: 8308 8308 33
Width: 651
VWidth: 2216
Flags: W
HStem: 885 94<208.125 343.999 437.002 559>
VStem: 344 93<699 884.999 979 1165>
LayerCount: 2
Fore
SplineSet
530 885 m 2
 446 885 l 2
 440 885 437 883 437 877 c 2
 437 727 l 2
 437 708 427 699 407 699 c 2
 372 699 l 2
 353 699 344 708 344 727 c 2
 344 877 l 2
 344 883 342 885 336 885 c 2
 117 885 l 2
 97 885 87 893 87 908 c 0
 87 912 88 916 89 920 c 2
 262 1609 l 1
 263 1623 272 1630 288 1630 c 2
 325 1630 l 2
 344 1630 354 1621 354 1604 c 0
 354 1601 354 1597 353 1593 c 1
 201 989 l 1
 201 982 204 979 210 979 c 2
 336 979 l 2
 342 979 344 981 344 987 c 2
 344 1134 l 2
 344 1154 353 1165 372 1165 c 2
 407 1165 l 2
 427 1165 437 1154 437 1134 c 2
 437 987 l 2
 437 981 440 979 446 979 c 2
 530 979 l 2
 549 979 559 968 559 948 c 2
 559 914 l 2
 559 895 549 885 530 885 c 2
EndSplineSet
Validated: 1
EndChar

StartChar: fivesuperior
Encoding: 8309 8309 34
Width: 606
VWidth: 2216
Flags: W
HStem: 699 93<93 363.98> 1160 93<186 363.134> 1537 93<186 513>
VStem: 93 93<1253 1537> 420 93<850.966 1102.56>
CounterMasks: 1 e0
LayerCount: 2
Fore
SplineSet
93 727 m 6
 93 762 l 6
 93 782 102 792 121 792 c 6
 268 792 l 6
 357 792 420 890 420 979 c 4
 420 1066 355 1160 268 1160 c 6
 121 1160 l 6
 102 1160 93 1170 93 1189 c 6
 93 1600 l 6
 93 1620 102 1630 121 1630 c 6
 483 1630 l 6
 503 1630 513 1620 513 1600 c 6
 513 1565 l 6
 513 1546 503 1537 483 1537 c 6
 195 1537 l 6
 189 1537 186 1534 186 1528 c 6
 186 1262 l 6
 186 1256 189 1253 195 1253 c 6
 268 1253 l 6
 334 1253 393 1225 444 1169 c 4
 490 1113 513 1050 513 979 c 4
 513 834 406 699 268 699 c 6
 121 699 l 6
 102 699 93 708 93 727 c 6
EndSplineSet
Validated: 1
EndChar

StartChar: sixsuperior
Encoding: 8310 8310 35
Width: 651
VWidth: 2216
Flags: W
HStem: 699 93<233.07 417.908> 1165 93<188.112 414.488> 1535 93<301.555 420>
VStem: 93 93<842.134 1165 1258 1404.12> 465 94<837.067 1113.76>
CounterMasks: 1 e0
LayerCount: 2
Fore
SplineSet
93 979 m 6
 93 1228 l 6
 93 1427 209 1604 388 1628 c 4
 390 1628 392 1628 394 1628 c 0
 411 1628 420 1618 420 1600 c 6
 420 1563 l 6
 420 1546 411 1536 394 1535 c 4
 280 1519 198 1392 188 1266 c 4
 188 1260 191 1258 197 1258 c 6
 327 1258 l 6
 461 1258 559 1121 559 979 c 4
 559 831 469 699 327 699 c 4
 183 699 93 830 93 979 c 6
186 979 m 6
 186 883 234 792 327 792 c 4
 417 792 465 884 465 979 c 4
 465 1068 410 1165 327 1165 c 6
 195 1165 l 6
 189 1165 186 1162 186 1156 c 6
 186 979 l 6
EndSplineSet
Validated: 1
EndChar

StartChar: sevensuperior
Encoding: 8311 8311 36
Width: 651
VWidth: 2216
Flags: W
HStem: 1537 93<186.002 465>
VStem: 93 93<1444 1537> 465 94<1430.61 1537>
LayerCount: 2
Fore
SplineSet
93 1472 m 6
 93 1600 l 6
 93 1620 102 1630 121 1630 c 6
 530 1630 l 6
 549 1630 559 1620 559 1600 c 4
 559 1560 559 1521 559 1481 c 5
 381 721 l 5
 375 707 366 699 353 699 c 6
 316 699 l 6
 296 699 286 707 286 722 c 4
 286 726 287 730 288 734 c 6
 465 1492 l 5
 465 1504 465 1516 465 1528 c 4
 465 1534 463 1537 457 1537 c 6
 195 1537 l 6
 189 1537 186 1534 186 1528 c 6
 186 1472 l 6
 186 1453 177 1444 158 1444 c 6
 121 1444 l 6
 102 1444 93 1453 93 1472 c 6
EndSplineSet
Validated: 1
EndChar

StartChar: eightsuperior
Encoding: 8312 8312 37
Width: 651
VWidth: 2216
Flags: W
HStem: 699 93<234.924 418.505> 1150 93<247.323 403.308> 1537 93<247.53 401.857>
VStem: 93 93<839.087 1098.21> 123 93<1271.04 1506.73> 435 93<1273.64 1505.71> 465 94<839.363 1099.49>
CounterMasks: 1 e0
LayerCount: 2
Fore
SplineSet
458 1198 m 4xec
 469 1187 491 1163 494 1160 c 4
 537 1104 559 1041 559 970 c 260
 559 831 461 699 325 699 c 260
 190 699 93 829 93 970 c 260xf2
 93 1065 134 1141 193 1195 c 4
 195 1197 196 1199 196 1202 c 0
 196 1204 196 1205 195 1208 c 5
 150 1253 123 1316 123 1390 c 4
 123 1512 207 1630 325 1630 c 260
 444 1630 528 1513 528 1390 c 4
 528 1316 502 1253 457 1208 c 4
 455 1206 454 1205 454 1204 c 0
 454 1202 456 1200 458 1198 c 4xec
186 970 m 260
 186 883 239 792 325 792 c 260
 412 792 465 882 465 970 c 260
 465 1058 409 1150 325 1150 c 260
 242 1150 186 1056 186 970 c 260
216 1390 m 4xec
 216 1319 257 1243 325 1243 c 4
 392 1243 435 1320 435 1390 c 4
 435 1458 392 1537 325 1537 c 4
 257 1537 216 1459 216 1390 c 4xec
EndSplineSet
Validated: 1
EndChar

StartChar: ninesuperior
Encoding: 8313 8313 38
Width: 651
VWidth: 2216
Flags: W
HStem: 699 93<234 349.737> 1069 94<238.41 462.878> 1535 93<231.202 417.953>
VStem: 93 93<1213.11 1487.16> 465 94<923.528 1069 1163 1489.39>
CounterMasks: 1 e0
LayerCount: 2
Fore
SplineSet
93 1349 m 5
 93 1495 187 1628 327 1628 c 4
 392 1628 448 1600 496 1544 c 4
 538 1489 559 1424 559 1349 c 6
 559 1100 l 6
 559 903 441 718 264 699 c 4
 262 699 259 699 257 699 c 0
 241 699 234 708 234 727 c 6
 234 762 l 6
 234 779 242 789 258 792 c 4
 374 805 450 937 463 1059 c 4
 463 1066 461 1069 455 1069 c 6
 327 1069 l 6
 191 1069 93 1204 93 1349 c 5
186 1349 m 4
 186 1258 239 1163 327 1163 c 6
 457 1163 l 6
 463 1163 465 1165 465 1171 c 6
 465 1349 l 6
 465 1442 417 1535 327 1535 c 4
 234 1535 186 1444 186 1349 c 4
EndSplineSet
Validated: 1
EndChar

StartChar: altthreesuperior
Encoding: 8306 8306 39
Width: 606
VWidth: 2216
Flags: W
HStem: 699 93<93 360.281> 1537 91<93 382.997>
VStem: 420 93<850.86 1103.81>
LayerCount: 2
Fore
SplineSet
513 976 m 256
 513 830 402 699 262 699 c 2
 121 699 l 2
 102 699 93 708 93 727 c 2
 93 762 l 2
 93 782 102 792 121 792 c 2
 262 792 l 2
 353 792 420 882 420 976 c 256
 420 1070 354 1163 262 1163 c 2
 232 1163 l 2
 210 1163 199 1169 199 1181 c 0
 199 1182 l 0
 199 1188 202 1196 208 1206 c 0
 381 1524 l 2
 382 1527 383 1529 383 1531 c 0
 383 1535 379 1537 372 1537 c 2
 121 1537 l 2
 102 1537 93 1546 93 1565 c 2
 93 1600 l 2
 93 1619 102 1628 121 1628 c 2
 496 1630 l 2
 517 1630 528 1624 528 1611 c 0
 528 1605 525 1597 520 1587 c 2
 338 1253 l 2
 337 1251 336 1250 336 1248 c 0
 336 1245 338 1242 344 1240 c 0
 439 1206 513 1095 513 976 c 256
EndSplineSet
Validated: 1
EndChar

StartChar: franc
Encoding: 8355 8355 40
Width: 885
VWidth: 2216
Flags: W
HStem: 0 21G<252.5 306.5> 0 21G<252.5 306.5> 327 91<93 233.997 325.003 465> 652 93<325.003 792> 1210 93<325.003 792>
VStem: 234 91<0 326.998 418.003 652 745 1210>
LayerCount: 2
Fore
SplineSet
234 28 m 2xbc
 234 318 l 2
 234 324 230 327 223 327 c 2
 121 327 l 2
 102 327 93 336 93 355 c 2
 93 390 l 2
 93 409 102 418 121 418 c 2
 223 418 l 2
 230 418 234 422 234 429 c 2
 234 1275 l 2
 234 1294 243 1303 262 1303 c 2
 762 1303 l 2
 782 1303 792 1294 792 1275 c 2
 792 1240 l 2
 792 1220 782 1210 762 1210 c 2
 336 1210 l 2
 329 1210 325 1208 325 1202 c 2
 325 753 l 2
 325 747 329 745 336 745 c 2
 762 745 l 2
 782 745 792 736 792 717 c 2
 792 680 l 2
 792 661 782 652 762 652 c 2
 336 652 l 2
 329 652 325 649 325 643 c 2
 325 429 l 2
 325 422 329 418 336 418 c 2
 437 418 l 2
 456 418 465 409 465 390 c 2
 465 355 l 2
 465 336 456 327 437 327 c 2
 336 327 l 2
 329 327 325 324 325 318 c 2
 325 28 l 2
 325 9 316 0 297 0 c 2
 262 0 l 2
 243 0 234 9 234 28 c 2xbc
EndSplineSet
Validated: 1
EndChar

StartChar: lira
Encoding: 8356 8356 41
Width: 976
VWidth: 2216
Flags: W
HStem: 0 93<93 204.75 297 722.934> 420 93<93 234 325.002 606> 745 93<93 234 325.002 606> 931 21G<764 819> 1210 93<410.71 658.215>
VStem: 234 91<124.544 419.997 513.003 744.997 838.002 1117.45> 745 93<931 1117.09> 790 93<160.389 279>
CounterMasks: 1 e8
LayerCount: 2
Fore
SplineSet
121 838 m 2xfd
 223 838 l 2
 231 838 234 841 234 846 c 2
 234 979 l 2
 234 1061 262 1136 318 1203 c 0
 374 1270 447 1303 535 1303 c 0
 622 1303 694 1270 751 1203 c 0
 808 1136 838 1061 838 979 c 2
 838 959 l 2
 838 941 828 931 810 931 c 2
 773 931 l 2
 755 931 745 941 745 959 c 2
 745 979 l 2xfe
 745 1036 725 1089 686 1138 c 0
 647 1187 597 1210 535 1210 c 256
 473 1210 422 1187 383 1138 c 0
 344 1089 325 1036 325 979 c 2
 325 846 l 2
 325 841 328 838 336 838 c 2
 576 838 l 2
 597 838 606 828 606 810 c 2
 606 773 l 2
 606 755 597 745 576 745 c 2
 336 745 l 2
 328 745 325 741 325 736 c 2
 325 522 l 2
 325 517 328 513 336 513 c 2
 576 513 l 2
 597 513 606 504 606 483 c 2
 606 448 l 2
 606 430 597 420 576 420 c 2
 336 420 l 2
 328 420 325 416 325 411 c 2
 325 229 l 2
 325 186 313 145 290 106 c 1
 285 101 291 93 297 93 c 2
 606 93 l 2
 702 93 777 168 790 255 c 0
 791 271 801 279 818 279 c 2
 853 279 l 2
 874 279 883 269 883 251 c 0
 883 182 840 115 790 71 c 0
 737 23 675 0 606 0 c 2
 121 0 l 2
 103 0 93 10 93 28 c 2
 93 67 l 2
 93 83 101 92 117 95 c 0
 195 108 234 152 234 229 c 2
 234 411 l 2
 234 416 231 420 223 420 c 2
 121 420 l 2
 103 420 93 430 93 448 c 2
 93 483 l 2
 93 504 103 513 121 513 c 2
 223 513 l 2
 231 513 234 517 234 522 c 2
 234 736 l 2
 234 741 231 745 223 745 c 2
 121 745 l 2
 103 745 93 755 93 773 c 2
 93 810 l 2
 93 828 103 838 121 838 c 2xfd
EndSplineSet
Validated: 1
EndChar

StartChar: peseta
Encoding: 8359 8359 42
Width: 1738
VWidth: 2216
Flags: W
HStem: 0 93<1279.2 1548.44> 559 93<186.003 548.943 792 884.998 979.002 1165 1338 1607.93> 911 20G<905 958.5> 1210 93<186.003 548.943>
VStem: 93 93<0 559 652 1210> 652 93<771.83 1090.17> 885 94<0 559 652.002 931> 1243 91<437.08 547.24> 1552 93<104.429 216.393>
LayerCount: 2
Fore
SplineSet
195 652 m 2
 420 652 l 2
 493 652 549 682 590 743 c 0
 631 804 652 866 652 931 c 256
 652 996 631 1058 590 1119 c 0
 549 1180 493 1210 420 1210 c 2
 195 1210 l 2
 190 1210 186 1207 186 1202 c 2
 186 660 l 2
 186 655 190 652 195 652 c 2
1444 652 m 0
 1512 652 1571 634 1622 598 c 0
 1639 586 1641 572 1628 556 c 2
 1606 528 l 2
 1594 514 1581 512 1567 524 c 1
 1532 547 1492 559 1444 559 c 0
 1377 559 1334 533 1334 504 c 0
 1334 481 1354 453 1396 422 c 1
 1548 301 l 1
 1595 265 1645 228 1645 147 c 0
 1645 25 1515 0 1444 0 c 0
 1376 0 1316 18 1264 54 c 1
 1246 66 1244 79 1258 95 c 1
 1279 123 l 1
 1291 135 1304 138 1318 130 c 1
 1354 105 1396 93 1444 93 c 0
 1515 93 1552 124 1552 147 c 256
 1552 170 1532 198 1492 229 c 2
 1338 351 l 1
 1294 382 1243 439 1243 504 c 0
 1243 556 1272 652 1444 652 c 0
979 903 m 2
 979 660 l 2
 979 655 982 652 987 652 c 2
 1134 652 l 2
 1155 652 1165 641 1165 623 c 2
 1165 589 l 2
 1165 568 1155 559 1134 559 c 2
 987 559 l 2
 982 559 979 555 979 550 c 2
 979 28 l 2
 979 10 969 0 948 0 c 2
 914 0 l 2
 896 0 885 10 885 28 c 2
 885 550 l 2
 885 555 882 559 877 559 c 2
 820 559 l 2
 802 559 792 568 792 589 c 2
 792 623 l 2
 792 641 802 652 820 652 c 2
 877 652 l 2
 882 652 885 655 885 660 c 2
 885 903 l 2
 885 921 896 931 914 931 c 2
 948 931 l 2
 969 931 979 921 979 903 c 2
420 1303 m 2
 519 1303 596 1264 656 1185 c 0
 716 1106 745 1022 745 931 c 256
 745 840 716 756 656 677 c 0
 596 598 519 559 420 559 c 2
 195 559 l 2
 190 559 186 555 186 550 c 2
 186 28 l 2
 186 10 176 0 158 0 c 2
 121 0 l 2
 103 0 93 10 93 28 c 2
 93 1275 l 2
 93 1293 103 1303 121 1303 c 2
 420 1303 l 2
EndSplineSet
Validated: 1
EndChar

StartChar: Euro
Encoding: 8364 8364 43
Width: 1405
VWidth: 2216
Flags: W
HStem: 0 93<662.914 1100.27> 465 94<93 235.998 362.001 1072> 745 93<93 235.998 362.001 1165> 1210 93<662.914 1105.31>
VStem: 236 95<559.002 742.999>
CounterMasks: 1 f0
LayerCount: 2
Fore
SplineSet
331 567 m 0
 331 561 334 559 340 559 c 2
 1041 559 l 2
 1061 559 1072 549 1072 530 c 2
 1072 494 l 2
 1072 475 1061 465 1041 465 c 2
 368 465 l 2
 364 465 362 464 362 461 c 1
 361 460 359 458 359 455 c 0
 385 381 428 316 487 258 c 0
 597 148 729 93 885 93 c 0
 998 93 1102 126 1199 191 c 0
 1213 200 1226 197 1238 184 c 1
 1260 156 l 2
 1273 140 1270 127 1253 115 c 0
 1140 39 1018 0 885 0 c 0
 705 0 550 64 422 191 c 0
 346 266 292 355 260 459 c 1
 257 463 254 465 251 465 c 2
 121 465 l 2
 102 465 93 475 93 494 c 2
 93 530 l 2
 93 549 102 559 121 559 c 2
 227 559 l 2
 233 559 236 562 236 569 c 0
 232 596 231 625 231 652 c 0
 231 679 232 707 236 734 c 0
 236 741 233 745 227 745 c 2
 121 745 l 2
 102 745 93 754 93 773 c 2
 93 810 l 2
 93 829 102 838 121 838 c 2
 251 838 l 2
 254 838 257 840 260 844 c 1
 292 946 346 1037 422 1113 c 0
 550 1240 705 1303 885 1303 c 0
 1039 1303 1178 1254 1299 1156 c 0
 1308 1148 1312 1141 1312 1133 c 0
 1312 1127 1309 1121 1303 1115 c 2
 1279 1089 l 2
 1266 1075 1253 1073 1240 1085 c 0
 1136 1169 1018 1210 885 1210 c 0
 729 1210 597 1156 487 1048 c 1
 428 987 385 922 359 851 c 1
 359 847 361 843 362 842 c 1
 362 839 364 838 368 838 c 2
 1134 838 l 2
 1154 838 1165 829 1165 810 c 2
 1165 773 l 2
 1165 754 1154 745 1134 745 c 2
 340 745 l 2
 337 745 334 744 333 743 c 0
 332 743 331 741 331 738 c 0
 327 708 325 680 325 651 c 0
 325 622 327 594 331 567 c 0
EndSplineSet
Validated: 1
EndChar

StartChar: rubl
Encoding: 8379 8379 44
Width: 978
VWidth: 2216
Flags: W
HStem: 0 21G<252.5 306.5> 0 21G<252.5 306.5> 327 91<93 233.997 325.003 885> 559 93<93 233.997 325.003 688.033> 1210 93<325.003 688.033>
VStem: 234 91<0 326.998 418.003 558.998 652.001 1210> 792 93<771.83 1090.17>
CounterMasks: 1 38
LayerCount: 2
Fore
SplineSet
121 652 m 2xbe
 223 652 l 2
 230 652 234 654 234 660 c 2
 234 1275 l 2
 234 1294 243 1303 262 1303 c 2
 559 1303 l 2
 657 1303 736 1264 796 1185 c 0
 856 1106 885 1022 885 931 c 256
 885 840 856 756 796 677 c 0
 736 598 657 559 559 559 c 2
 336 559 l 2
 329 559 325 556 325 550 c 2
 325 429 l 2
 325 422 329 418 336 418 c 2
 855 418 l 2
 875 418 885 409 885 390 c 2
 885 355 l 2
 885 336 875 327 855 327 c 2
 336 327 l 2
 329 327 325 324 325 318 c 2
 325 28 l 2
 325 9 316 0 297 0 c 2
 262 0 l 2
 243 0 234 9 234 28 c 2
 234 318 l 2
 234 324 230 327 223 327 c 2
 121 327 l 2
 102 327 93 336 93 355 c 2
 93 390 l 2
 93 409 102 418 121 418 c 2
 223 418 l 2
 230 418 234 422 234 429 c 2
 234 550 l 2
 234 556 230 559 223 559 c 2
 121 559 l 2
 102 559 93 568 93 587 c 2
 93 623 l 2
 93 642 102 652 121 652 c 2xbe
336 652 m 2
 559 652 l 2
 631 652 688 682 730 743 c 0
 772 804 792 866 792 931 c 256
 792 996 772 1058 730 1119 c 0
 688 1180 631 1210 559 1210 c 2
 336 1210 l 2
 329 1210 325 1208 325 1202 c 2
 325 660 l 2
 325 654 329 652 336 652 c 2
EndSplineSet
Validated: 1
EndChar

StartChar: Oneroman
Encoding: 8544 8544 45
Width: 465
VWidth: 2216
Flags: W
HStem: 0 93<93 186 279 372> 1210 93<93 186 279 372>
VStem: 93 279<0 92.9934 1210.01 1303> 186 93<93.0022 1210>
LayerCount: 2
Fore
SplineSet
344 1210 m 6xe0
 288 1210 l 6
 282 1210 279 1208 279 1202 c 6
 279 102 l 6xd0
 279 96 282 93 288 93 c 6
 344 93 l 6
 363 93 372 84 372 65 c 6
 372 28 l 6
 372 9 363 0 344 0 c 6
 121 0 l 6
 102 0 93 9 93 28 c 6
 93 65 l 6xe0
 93 84 102 93 121 93 c 6
 178 93 l 6
 184 93 186 96 186 102 c 6
 186 1202 l 6xd0
 186 1208 184 1210 178 1210 c 6
 121 1210 l 6
 102 1210 93 1220 93 1240 c 6
 93 1275 l 6
 93 1294 102 1303 121 1303 c 6
 344 1303 l 6
 363 1303 372 1294 372 1275 c 6
 372 1240 l 6
 372 1220 363 1210 344 1210 c 6xe0
EndSplineSet
Validated: 1
EndChar

StartChar: Tworoman
Encoding: 8545 8545 46
Width: 651
VWidth: 2216
Flags: W
HStem: 0 93<93 186 279 372 465 559> 1210 93<93 186 279 372 465 559>
VStem: 186 93<93.0022 1210> 372 93<93.0022 1210>
LayerCount: 2
Fore
SplineSet
530 0 m 6
 121 0 l 6
 102 0 93 9 93 28 c 6
 93 65 l 6
 93 84 102 93 121 93 c 6
 178 93 l 6
 184 93 186 96 186 102 c 6
 186 1202 l 6
 186 1208 184 1210 178 1210 c 6
 121 1210 l 6
 102 1210 93 1220 93 1240 c 6
 93 1275 l 6
 93 1294 102 1303 121 1303 c 6
 530 1303 l 6
 549 1303 559 1294 559 1275 c 6
 559 1240 l 6
 559 1220 549 1210 530 1210 c 6
 474 1210 l 6
 468 1210 465 1208 465 1202 c 6
 465 102 l 6
 465 96 468 93 474 93 c 6
 530 93 l 6
 549 93 559 84 559 65 c 6
 559 28 l 6
 559 9 549 0 530 0 c 6
288 93 m 6
 364 93 l 6
 370 93 372 96 372 102 c 6
 372 1202 l 6
 372 1208 370 1210 364 1210 c 6
 288 1210 l 6
 282 1210 279 1208 279 1202 c 6
 279 102 l 6
 279 96 282 93 288 93 c 6
EndSplineSet
Validated: 1
EndChar

StartChar: Threeroman
Encoding: 8546 8546 47
Width: 930
VWidth: 2216
Flags: W
HStem: 0 93<93 186 279 420 513 652 745 838> 1210 93<93 186 279 420 513 652 745 838>
VStem: 186 93<93.0022 1210> 420 93<93.0022 1210> 652 93<93.0022 1210>
CounterMasks: 1 38
LayerCount: 2
Fore
SplineSet
810 0 m 6
 121 0 l 6
 102 0 93 9 93 28 c 6
 93 65 l 6
 93 84 102 93 121 93 c 6
 178 93 l 6
 184 93 186 96 186 102 c 6
 186 1202 l 6
 186 1208 184 1210 178 1210 c 6
 121 1210 l 6
 102 1210 93 1220 93 1240 c 6
 93 1275 l 6
 93 1294 102 1303 121 1303 c 6
 810 1303 l 6
 829 1303 838 1294 838 1275 c 6
 838 1240 l 6
 838 1220 829 1210 810 1210 c 6
 753 1210 l 6
 747 1210 745 1208 745 1202 c 6
 745 102 l 6
 745 96 747 93 753 93 c 6
 810 93 l 6
 829 93 838 84 838 65 c 6
 838 28 l 6
 838 9 829 0 810 0 c 6
288 93 m 6
 411 93 l 6
 417 93 420 96 420 102 c 6
 420 1202 l 6
 420 1208 417 1210 411 1210 c 6
 288 1210 l 6
 282 1210 279 1208 279 1202 c 6
 279 102 l 6
 279 96 282 93 288 93 c 6
522 93 m 6
 643 93 l 6
 649 93 652 96 652 102 c 6
 652 1202 l 6
 652 1208 649 1210 643 1210 c 6
 522 1210 l 6
 516 1210 513 1208 513 1202 c 6
 513 102 l 6
 513 96 516 93 522 93 c 6
EndSplineSet
Validated: 1
EndChar

StartChar: Fourroman
Encoding: 8547 8547 48
Width: 1303
VWidth: 2216
Flags: W
HStem: 0 93<93 186 279 372 606 677.359 812.625 885> 1210 93<93 186 279 384.86 482.002 559 931 999.062 1104.05 1210>
VStem: 186 93<93.0022 1210>
LayerCount: 2
Fore
SplineSet
855 93 m 6
 875 93 885 84 885 65 c 6
 885 28 l 6
 885 9 875 0 855 0 c 6
 634 0 l 6
 615 0 606 9 606 28 c 6
 606 65 l 6
 606 84 615 93 634 93 c 6
 673 93 l 6
 679 93 682 97 682 104 c 5
 385 1204 l 5
 382 1208 380 1210 377 1210 c 6
 288 1210 l 6
 282 1210 279 1208 279 1202 c 6
 279 102 l 6
 279 96 282 93 288 93 c 6
 344 93 l 6
 363 93 372 84 372 65 c 6
 372 28 l 6
 372 9 363 0 344 0 c 6
 121 0 l 6
 102 0 93 9 93 28 c 6
 93 65 l 6
 93 84 102 93 121 93 c 6
 178 93 l 6
 184 93 186 96 186 102 c 6
 186 1202 l 6
 186 1208 184 1210 178 1210 c 6
 121 1210 l 6
 102 1210 93 1220 93 1240 c 6
 93 1275 l 6
 93 1294 102 1303 121 1303 c 6
 530 1303 l 6
 549 1303 559 1294 559 1275 c 6
 559 1240 l 6
 559 1220 549 1210 530 1210 c 6
 491 1210 l 6
 485 1210 482 1208 482 1204 c 4
 482 1203 482 1201 483 1199 c 6
 736 258 l 6
 736 254 740 251 745 251 c 4
 750 251 752 254 753 258 c 6
 1007 1199 l 6
 1007 1200 1007 1202 1007 1203 c 4
 1007 1208 1004 1210 998 1210 c 6
 959 1210 l 6
 940 1210 931 1220 931 1240 c 6
 931 1275 l 6
 931 1294 940 1303 959 1303 c 6
 1182 1303 l 6
 1201 1303 1210 1294 1210 1275 c 6
 1210 1240 l 6
 1210 1220 1201 1210 1182 1210 c 6
 1113 1210 l 6
 1109 1210 1105 1208 1104 1204 c 6
 808 104 l 5
 808 97 810 93 816 93 c 6
 855 93 l 6
EndSplineSet
Validated: 1
EndChar

StartChar: Fiveroman
Encoding: 8548 8548 49
Width: 1117
VWidth: 2216
Flags: W
HStem: 0 93<420 491.359 621.003 699> 1210 93<93 198.86 296.002 372 745 812.094 918.049 1024>
VStem: 496 125<93.0022 157.096>
LayerCount: 2
Fore
SplineSet
344 1210 m 2
 305 1210 l 2
 299 1210 296 1208 296 1204 c 0
 296 1203 296 1201 297 1199 c 2
 550 258 l 2
 550 254 554 251 559 251 c 0
 564 251 566 254 567 258 c 2
 820 1199 l 2
 820 1200 820 1202 820 1203 c 0
 820 1208 818 1210 812 1210 c 2
 773 1210 l 2
 755 1210 745 1219 745 1240 c 2
 745 1275 l 2
 745 1293 755 1303 773 1303 c 2
 996 1303 l 2
 1014 1303 1024 1293 1024 1275 c 2
 1024 1240 l 2
 1024 1219 1014 1210 996 1210 c 2
 927 1210 l 2
 923 1210 919 1208 918 1204 c 2
 623 104 l 1
 622 102 621 99 621 97 c 0
 621 94 625 93 630 93 c 2
 669 93 l 2
 690 93 699 83 699 65 c 2
 699 28 l 2
 699 10 690 0 669 0 c 2
 448 0 l 2
 430 0 420 10 420 28 c 2
 420 65 l 2
 420 83 430 93 448 93 c 2
 487 93 l 2
 492 93 496 96 496 104 c 1
 199 1204 l 1
 196 1208 194 1210 191 1210 c 2
 121 1210 l 2
 103 1210 93 1219 93 1240 c 2
 93 1275 l 2
 93 1293 103 1303 121 1303 c 2
 344 1303 l 2
 362 1303 372 1293 372 1275 c 2
 372 1240 l 2
 372 1219 362 1210 344 1210 c 2
EndSplineSet
Validated: 1
EndChar

StartChar: Sixroman
Encoding: 8549 8549 50
Width: 1303
VWidth: 2216
Flags: W
HStem: 0 93<420 491.359 621.003 699 931 1024 1117 1210> 1210 93<93 198.86 296.002 372 745 812.094 918.049 1024 1117 1210>
VStem: 1024 93<93.0029 1210>
LayerCount: 2
Fore
SplineSet
448 93 m 2
 487 93 l 2
 492 93 496 96 496 104 c 1
 199 1204 l 1
 196 1208 194 1210 191 1210 c 2
 121 1210 l 2
 103 1210 93 1219 93 1240 c 2
 93 1275 l 2
 93 1293 103 1303 121 1303 c 2
 344 1303 l 2
 362 1303 372 1293 372 1275 c 2
 372 1240 l 2
 372 1219 362 1210 344 1210 c 2
 305 1210 l 2
 299 1210 296 1208 296 1204 c 0
 296 1203 296 1201 297 1199 c 2
 550 258 l 2
 550 254 554 251 559 251 c 0
 564 251 566 254 567 258 c 2
 820 1199 l 2
 820 1200 820 1202 820 1203 c 0
 820 1208 818 1210 812 1210 c 2
 773 1210 l 2
 755 1210 745 1219 745 1240 c 2
 745 1275 l 2
 745 1293 755 1303 773 1303 c 2
 1182 1303 l 2
 1200 1303 1210 1293 1210 1275 c 2
 1210 1240 l 2
 1210 1219 1200 1210 1182 1210 c 2
 1126 1210 l 2
 1121 1210 1117 1207 1117 1202 c 2
 1117 102 l 2
 1117 97 1121 93 1126 93 c 2
 1182 93 l 2
 1200 93 1210 83 1210 65 c 2
 1210 28 l 2
 1210 10 1200 0 1182 0 c 2
 961 0 l 2
 940 0 931 10 931 28 c 2
 931 65 l 2
 931 83 940 93 961 93 c 2
 1015 93 l 2
 1020 93 1024 97 1024 102 c 2
 1024 1202 l 2
 1024 1207 1020 1210 1015 1210 c 2
 927 1210 l 2
 923 1210 919 1208 918 1204 c 2
 623 104 l 1
 622 102 621 99 621 97 c 0
 621 94 625 93 630 93 c 2
 669 93 l 2
 690 93 699 83 699 65 c 2
 699 28 l 2
 699 10 690 0 669 0 c 2
 448 0 l 2
 430 0 420 10 420 28 c 2
 420 65 l 2
 420 83 430 93 448 93 c 2
EndSplineSet
Validated: 1
EndChar

StartChar: Sevenroman
Encoding: 8550 8550 51
Width: 1489
VWidth: 2216
Flags: W
HStem: 0 93<420 491.359 625.641 699 931 1024 1117 1210 1303 1396> 1210 93<93 198.86 296.002 372 745 812.094 918.049 1024 1117 1210 1303 1396>
VStem: 1024 93<93.0029 1210> 1210 93<93.0029 1210>
LayerCount: 2
Fore
SplineSet
1368 0 m 2
 959 0 l 2
 941 0 931 10 931 28 c 2
 931 65 l 2
 931 83 941 93 959 93 c 2
 1015 93 l 2
 1020 93 1024 97 1024 102 c 2
 1024 1202 l 2
 1024 1207 1020 1210 1015 1210 c 2
 927 1210 l 2
 923 1210 919 1208 918 1204 c 2
 621 104 l 1
 621 96 625 93 630 93 c 2
 669 93 l 2
 690 93 699 83 699 65 c 2
 699 28 l 2
 699 10 690 0 669 0 c 2
 448 0 l 2
 430 0 420 10 420 28 c 2
 420 65 l 2
 420 83 430 93 448 93 c 2
 487 93 l 2
 492 93 496 96 496 104 c 1
 199 1204 l 1
 196 1208 194 1210 191 1210 c 2
 121 1210 l 2
 103 1210 93 1219 93 1240 c 2
 93 1275 l 2
 93 1293 103 1303 121 1303 c 2
 344 1303 l 2
 362 1303 372 1293 372 1275 c 2
 372 1240 l 2
 372 1219 362 1210 344 1210 c 2
 305 1210 l 2
 299 1210 296 1208 296 1204 c 0
 296 1203 296 1201 297 1199 c 2
 550 258 l 2
 550 254 552 251 557 251 c 0
 562 251 566 254 567 258 c 2
 820 1199 l 2
 820 1200 820 1202 820 1203 c 0
 820 1208 818 1210 812 1210 c 2
 773 1210 l 2
 755 1210 745 1219 745 1240 c 2
 745 1275 l 2
 745 1293 755 1303 773 1303 c 2
 1368 1303 l 2
 1386 1303 1396 1293 1396 1275 c 2
 1396 1240 l 2
 1396 1219 1386 1210 1368 1210 c 2
 1312 1210 l 2
 1307 1210 1303 1207 1303 1202 c 2
 1303 102 l 2
 1303 97 1307 93 1312 93 c 2
 1368 93 l 2
 1386 93 1396 83 1396 65 c 2
 1396 28 l 2
 1396 10 1386 0 1368 0 c 2
1126 93 m 2
 1202 93 l 2
 1207 93 1210 97 1210 102 c 2
 1210 1202 l 2
 1210 1207 1207 1210 1202 1210 c 2
 1126 1210 l 2
 1121 1210 1117 1207 1117 1202 c 2
 1117 102 l 2
 1117 97 1121 93 1126 93 c 2
EndSplineSet
Validated: 1
EndChar

StartChar: Eightroman
Encoding: 8551 8551 52
Width: 1768
VWidth: 2216
Flags: W
HStem: 0 93<420 491.359 625.641 699 931 1024 1117 1258 1351 1489 1583 1676> 1210 93<93 198.86 296.002 372 745 812.094 918.049 1024 1117 1258 1351 1489 1583 1676>
VStem: 496 125<93.0022 157.096> 1024 93<93.0029 1210> 1258 93<93.0029 1210> 1489 94<93.0029 1210>
CounterMasks: 1 1c
LayerCount: 2
Fore
SplineSet
344 1210 m 2
 305 1210 l 2
 299 1210 296 1208 296 1204 c 0
 296 1203 296 1201 297 1199 c 2
 550 258 l 2
 550 254 552 251 557 251 c 0
 562 251 566 254 567 258 c 2
 820 1199 l 2
 820 1200 820 1202 820 1203 c 0
 820 1208 818 1210 812 1210 c 2
 773 1210 l 2
 755 1210 745 1219 745 1240 c 2
 745 1275 l 2
 745 1293 755 1303 773 1303 c 2
 1647 1303 l 2
 1665 1303 1676 1293 1676 1275 c 2
 1676 1240 l 2
 1676 1219 1665 1210 1647 1210 c 2
 1591 1210 l 2
 1586 1210 1583 1207 1583 1202 c 2
 1583 102 l 2
 1583 97 1586 93 1591 93 c 2
 1647 93 l 2
 1665 93 1676 83 1676 65 c 2
 1676 28 l 2
 1676 10 1665 0 1647 0 c 2
 959 0 l 2
 941 0 931 10 931 28 c 2
 931 65 l 2
 931 83 941 93 959 93 c 2
 1015 93 l 2
 1020 93 1024 97 1024 102 c 2
 1024 1202 l 2
 1024 1207 1020 1210 1015 1210 c 2
 927 1210 l 2
 923 1210 919 1208 918 1204 c 2
 621 104 l 1
 621 96 625 93 630 93 c 2
 669 93 l 2
 690 93 699 83 699 65 c 2
 699 28 l 2
 699 10 690 0 669 0 c 2
 448 0 l 2
 430 0 420 10 420 28 c 2
 420 65 l 2
 420 83 430 93 448 93 c 2
 487 93 l 2
 492 93 496 96 496 104 c 1
 199 1204 l 1
 196 1208 194 1210 191 1210 c 2
 121 1210 l 2
 103 1210 93 1219 93 1240 c 2
 93 1275 l 2
 93 1293 103 1303 121 1303 c 2
 344 1303 l 2
 362 1303 372 1293 372 1275 c 2
 372 1240 l 2
 372 1219 362 1210 344 1210 c 2
1126 93 m 2
 1249 93 l 2
 1254 93 1258 97 1258 102 c 2
 1258 1202 l 2
 1258 1207 1254 1210 1249 1210 c 2
 1126 1210 l 2
 1121 1210 1117 1207 1117 1202 c 2
 1117 102 l 2
 1117 97 1121 93 1126 93 c 2
1360 93 m 2
 1481 93 l 2
 1486 93 1489 97 1489 102 c 2
 1489 1202 l 2
 1489 1207 1486 1210 1481 1210 c 2
 1360 1210 l 2
 1355 1210 1351 1207 1351 1202 c 2
 1351 102 l 2
 1351 97 1355 93 1360 93 c 2
EndSplineSet
Validated: 1
EndChar

StartChar: uni2168
Encoding: 8552 8552 53
Width: 1303
VWidth: 2216
Flags: W
HStem: 0 93<93 186 279 411.406 501.003 559 931 987.998 1077.59 1210> 1210 93<93 186 279 411.406 501.003 559 931 987.998 1077.59 1210>
VStem: 186 93<93.0022 1210> 688 114<564.328 739.531> 931 279<0 92.9934 1210.01 1303>
LayerCount: 2
Fore
SplineSet
1182 0 m 6
 959 0 l 6
 940 0 931 9 931 28 c 6
 931 65 l 6
 931 84 940 93 959 93 c 6
 979 93 l 6
 985 93 988 94 988 98 c 0
 988 100 987 103 985 106 c 6
 753 539 l 5
 749 544 747 547 744 547 c 0
 741 547 739 544 738 539 c 5
 504 106 l 6
 502 103 501 100 501 98 c 0
 501 94 505 93 511 93 c 6
 530 93 l 6
 549 93 559 84 559 65 c 6
 559 28 l 6
 559 9 549 0 530 0 c 6
 121 0 l 6
 102 0 93 9 93 28 c 6
 93 65 l 6
 93 84 102 93 121 93 c 6
 178 93 l 6
 184 93 186 96 186 102 c 6
 186 1202 l 6
 186 1208 184 1210 178 1210 c 6
 121 1210 l 6
 102 1210 93 1220 93 1240 c 6
 93 1275 l 6
 93 1294 102 1303 121 1303 c 6
 530 1303 l 6
 549 1303 559 1294 559 1275 c 6
 559 1240 l 6
 559 1220 549 1210 530 1210 c 6
 511 1210 l 6
 505 1210 501 1209 501 1205 c 0
 501 1203 502 1200 504 1197 c 6
 738 764 l 5
 739 759 741 757 744 757 c 0
 747 757 749 759 753 764 c 5
 985 1197 l 6
 987 1200 988 1203 988 1205 c 0
 988 1209 985 1210 979 1210 c 6
 959 1210 l 6
 940 1210 931 1220 931 1240 c 6
 931 1275 l 6
 931 1294 940 1303 959 1303 c 6
 1182 1303 l 6
 1201 1303 1210 1294 1210 1275 c 6
 1210 1240 l 6
 1210 1220 1201 1210 1182 1210 c 6
 1115 1210 l 6
 1102 1210 1094 1205 1091 1195 c 5
 805 665 l 6
 803 661 802 656 802 652 c 0
 802 648 803 643 805 639 c 6
 1091 108 l 6
 1095 98 1103 93 1115 93 c 6
 1182 93 l 6
 1201 93 1210 84 1210 65 c 6
 1210 28 l 6
 1210 9 1201 0 1182 0 c 6
288 93 m 6
 375 93 l 6
 387 93 394 98 398 108 c 6
 684 639 l 6
 687 643 688 648 688 652 c 0
 688 656 687 661 684 665 c 6
 398 1195 l 6
 394 1205 387 1210 375 1210 c 6
 288 1210 l 6
 282 1210 279 1208 279 1202 c 6
 279 102 l 6
 279 96 282 93 288 93 c 6
EndSplineSet
Validated: 1
EndChar

StartChar: Tenroman
Encoding: 8553 8553 54
Width: 1117
VWidth: 2216
Flags: W
HStem: 0 93<93 225.406 315.003 372 745 801.997 891.594 1024> 1210 93<93 225.406 315.003 372 745 801.997 891.594 1024>
VStem: 93 279<0 92.9934 1210.01 1303> 501 115<564.328 739.531> 745 279<0 92.9934 1210.01 1303>
LayerCount: 2
Fore
SplineSet
996 0 m 2
 773 0 l 2
 754 0 745 9 745 28 c 2
 745 65 l 2
 745 84 754 93 773 93 c 2
 792 93 l 2
 798 93 802 95 802 100 c 0
 802 102 802 104 801 106 c 1
 567 539 l 2
 564 543 562 546 559 546 c 0
 556 546 553 543 550 539 c 2
 318 106 l 2
 316 103 315 100 315 98 c 0
 315 94 319 93 325 93 c 2
 344 93 l 2
 363 93 372 84 372 65 c 2
 372 28 l 2
 372 9 363 0 344 0 c 2
 121 0 l 2
 102 0 93 9 93 28 c 2
 93 65 l 2
 93 84 102 93 121 93 c 2
 188 93 l 2
 200 93 208 98 212 108 c 2
 498 639 l 2
 500 643 501 648 501 652 c 0
 501 656 500 661 498 665 c 2
 212 1195 l 2
 208 1205 200 1210 188 1210 c 2
 121 1210 l 2
 102 1210 93 1220 93 1240 c 2
 93 1275 l 2
 93 1294 102 1303 121 1303 c 2
 344 1303 l 2
 363 1303 372 1294 372 1275 c 2
 372 1240 l 2
 372 1220 363 1210 344 1210 c 2
 325 1210 l 2
 319 1210 315 1209 315 1205 c 0
 315 1203 316 1200 318 1197 c 2
 550 764 l 2
 553 760 556 758 559 758 c 0
 562 758 564 760 567 764 c 2
 801 1197 l 1
 802 1199 802 1201 802 1203 c 0
 802 1208 798 1210 792 1210 c 2
 773 1210 l 2
 754 1210 745 1220 745 1240 c 2
 745 1275 l 2
 745 1294 754 1303 773 1303 c 2
 996 1303 l 2
 1015 1303 1024 1294 1024 1275 c 2
 1024 1240 l 2
 1024 1220 1015 1210 996 1210 c 2
 929 1210 l 2
 916 1210 908 1205 905 1195 c 1
 619 665 l 2
 617 661 616 656 616 652 c 0
 616 648 617 643 619 639 c 2
 905 108 l 2
 909 98 917 93 929 93 c 2
 996 93 l 2
 1015 93 1024 84 1024 65 c 2
 1024 28 l 2
 1024 9 1015 0 996 0 c 2
EndSplineSet
Validated: 1
EndChar

StartChar: Elevenroman
Encoding: 8554 8554 55
Width: 1303
VWidth: 2216
Flags: W
HStem: 0 93<93 225.406 315.003 372 745 801.997 891.594 1024 1117 1210> 1210 93<93 225.406 315.003 372 745 801.997 891.594 1024 1117 1210>
VStem: 93 279<0 92.9927 1210.01 1303> 501 114<564.328 739.531> 1024 93<93.0029 1210>
LayerCount: 2
Fore
SplineSet
121 0 m 2
 103 0 93 10 93 28 c 2
 93 65 l 2
 93 83 103 93 121 93 c 2
 188 93 l 2
 200 93 208 98 212 108 c 2
 498 639 l 2
 500 643 501 648 501 652 c 0
 501 656 500 661 498 665 c 2
 212 1195 l 1
 209 1205 201 1210 188 1210 c 2
 121 1210 l 2
 103 1210 93 1219 93 1240 c 2
 93 1275 l 2
 93 1293 103 1303 121 1303 c 2
 344 1303 l 2
 362 1303 372 1293 372 1275 c 2
 372 1240 l 2
 372 1219 362 1210 344 1210 c 2
 325 1210 l 2
 319 1210 315 1208 315 1205 c 0
 315 1203 316 1200 318 1197 c 2
 550 764 l 1
 553 759 557 757 559 757 c 0
 562 757 564 759 565 764 c 1
 799 1197 l 2
 801 1200 802 1203 802 1205 c 0
 802 1208 798 1210 792 1210 c 2
 773 1210 l 2
 755 1210 745 1219 745 1240 c 2
 745 1275 l 2
 745 1293 755 1303 773 1303 c 2
 1182 1303 l 2
 1200 1303 1210 1293 1210 1275 c 2
 1210 1240 l 2
 1210 1219 1200 1210 1182 1210 c 2
 1126 1210 l 2
 1121 1210 1117 1207 1117 1202 c 2
 1117 102 l 2
 1117 97 1121 93 1126 93 c 2
 1182 93 l 2
 1200 93 1210 83 1210 65 c 2
 1210 28 l 2
 1210 10 1200 0 1182 0 c 2
 773 0 l 2
 755 0 745 10 745 28 c 2
 745 65 l 2
 745 83 755 93 773 93 c 2
 792 93 l 2
 798 93 802 96 802 99 c 0
 802 101 801 103 799 106 c 2
 565 539 l 1
 564 544 562 547 559 547 c 0
 557 547 553 544 550 539 c 1
 318 106 l 2
 316 103 315 101 315 99 c 0
 315 96 319 93 325 93 c 2
 344 93 l 2
 362 93 372 83 372 65 c 2
 372 28 l 2
 372 10 362 0 344 0 c 2
 121 0 l 2
1015 93 m 2
 1020 93 1024 97 1024 102 c 2
 1024 1202 l 2
 1024 1207 1020 1210 1015 1210 c 2
 929 1210 l 2
 917 1210 909 1205 905 1195 c 2
 619 665 l 2
 616 661 615 656 615 652 c 0
 615 648 616 643 619 639 c 2
 905 108 l 2
 909 98 917 93 929 93 c 2
 1015 93 l 2
EndSplineSet
Validated: 1
EndChar

StartChar: notsimilar
Encoding: 8769 8769 56
Width: 835
VWidth: 2216
Flags: W
HStem: 372 95<486.193 711.066> 463 94<121.687 354.185>
VStem: 93 650
LayerCount: 2
Fore
SplineSet
482 491 m 2x60
 482 488 486 485 489 485 c 1
 518 473 546 467 572 467 c 0
 608 467 641 478 671 500 c 0
 683 509 696 508 710 498 c 1
 733 472 l 2
 739 464 743 456 743 449 c 0
 743 441 739 435 731 429 c 0
 682 391 637 372 583 372 c 0xa0
 540 372 496 382 450 401 c 0
 447 402 444 402 443 401 c 1
 440 401 439 399 439 396 c 1
 287 54 l 2
 281 41 274 35 264 35 c 0
 259 35 253 36 248 39 c 2
 216 54 l 1
 197 61 192 74 201 91 c 2
 355 435 l 1
 355 442 l 1
 336 461 287 463 265 463 c 0
 229 463 195 453 166 431 c 0
 152 419 139 420 127 433 c 2
 103 459 l 2
 96 467 93 473 93 480 c 0
 93 487 98 494 106 500 c 0
 154 539 198 557 252 557 c 0
 295 557 340 547 387 530 c 1
 393 530 l 1
 398 535 l 1
 552 877 l 2
 557 889 564 895 574 895 c 0
 578 895 583 894 588 892 c 2
 621 877 l 2
 638 868 643 856 636 840 c 2
 482 498 l 1
 482 491 l 2x60
EndSplineSet
Validated: 1
EndChar

StartChar: notalmostequal
Encoding: 8777 8777 57
Width: 838
VWidth: 2216
Flags: W
HStem: 231 91<438.828 580> 323 92<121.275 299.999> 510 96<541.001 709.391> 603 92<124.37 394.949>
VStem: 93 653
LayerCount: 2
Fore
SplineSet
400 281 m 1xe8
 393 281 l 2
 390 281 389 280 389 277 c 1
 290 54 l 2
 284 41 276 35 266 35 c 0
 261 35 256 36 251 39 c 2
 220 54 l 1
 201 61 196 74 205 91 c 2
 300 307 l 2
 301 310 301 313 300 316 c 1
 300 319 298 320 294 320 c 0
 283 322 273 323 263 323 c 0
 228 323 195 312 166 288 c 0
 152 276 139 277 127 290 c 2
 103 316 l 2
 96 324 93 331 93 338 c 0
 93 346 98 352 106 359 c 0
 152 396 203 415 260 415 c 0
 285 415 310 412 337 405 c 0
 340 405 342 406 342 407 c 1
 345 407 346 408 346 411 c 1
 406 548 l 2
 407 549 409 551 409 554 c 1
 404 559 l 1
 364 578 324 591 284 600 c 0
 275 602 267 603 258 603 c 0
 227 603 196 591 166 567 c 0
 153 557 140 557 127 569 c 1
 103 595 l 2
 96 603 93 610 93 617 c 0
 93 625 98 632 106 639 c 0
 152 677 199 695 248 695 c 0xd8
 317 695 378 673 441 645 c 0
 442 644 445 643 448 643 c 1
 451 646 452 648 452 649 c 2
 554 877 l 2
 559 889 567 895 578 895 c 0
 583 895 587 894 593 892 c 2
 623 877 l 2
 640 868 645 856 638 840 c 2
 541 617 l 1
 538 614 538 612 541 611 c 1
 541 608 543 606 547 606 c 0
 558 603 569 602 580 602 c 0
 612 602 643 613 671 636 c 0
 684 646 697 646 710 634 c 1
 733 608 l 2
 741 600 746 594 746 587 c 0
 746 580 741 573 731 567 c 1
 685 529 633 510 576 510 c 0
 553 510 529 514 504 520 c 1
 500 520 l 2
 497 520 495 518 495 515 c 1
 432 379 l 1
 432 370 l 2
 432 367 434 366 437 366 c 1
 476 347 515 334 554 325 c 0
 563 323 571 322 580 322 c 1
 671 357 l 1
 684 367 697 367 710 355 c 1
 733 329 l 2
 741 321 746 315 746 308 c 0
 746 301 741 294 731 288 c 1
 684 250 636 231 587 231 c 0
 520 231 461 251 400 281 c 1xe8
EndSplineSet
Validated: 1
EndChar

StartChar: smileface
Encoding: 9786 9786 58
Width: 1677
VWidth: 2216
Flags: W
HStem: -184 92<761.058 918.386> -73 118<385.124 503.41 1179.52 1294.05> -18 113<480.156 603.559 1074.25 1190.66> 141 93<663.679 1016.04> 372 93<190.1 229.45 1450.01 1488.85> 606 186<514.184 699.87 982.073 1165.82> 652 93<190.1 230.016 1449.42 1488.85> 1021 117<479.078 605.909 1072.18 1200.92> 1071 122<385.352 503.982 1175.47 1293.82> 1211 92<761.058 918.386>
VStem: 93 94<466.084 649.465> 205 121<105.404 221.979 894.516 1010.95> 260 117<198.266 319.348 795.414 918.734> 513 188<607.184 790.87> 654 93<-88.8535 -49.7245 1169.6 1207.85> 933 93<-88.8535 -49.1503 1169.01 1207.85> 981 186<607.184 790.87> 1302 117<199.359 321.703 793.35 917.641> 1353 122<106.411 222.631 893.818 1009.77> 1493 92<479.058 637.217>
CounterMasks: 2 9040 25
LayerCount: 2
Fore
SplineSet
526 420 m 4x986010
 553 367 592 323 643 290 c 4
 702 252 768 234 840 234 c 4
 991 234 1096 313 1154 420 c 5
 1158 432 1166 437 1177 437 c 0
 1181 437 1186 437 1191 435 c 5
 1223 420 l 6
 1235 414 1242 405 1242 395 c 0
 1242 391 1240 386 1238 381 c 5
 1203 312 1153 256 1087 214 c 5
 1013 165 931 141 840 141 c 4
 749 141 667 165 593 214 c 5
 525 257 475 313 442 381 c 4
 439 386 438 391 438 396 c 0
 438 406 444 414 457 420 c 6
 489 435 l 5
 493 436 497 437 500 437 c 0
 512 437 520 431 526 420 c 4x986010
634 -58 m 5
 596 -45 568 -34 548 -22 c 5
 543 -20 538 -18 534 -18 c 0xb86330
 527 -18 521 -22 515 -28 c 6
 478 -65 l 5
 470 -70 464 -73 457 -73 c 0
 451 -73 447 -71 442 -67 c 5
 329 5 284 46 212 160 c 5
 207 165 205 170 205 176 c 0xd87330
 205 182 208 189 214 197 c 5
 251 234 l 6
 257 240 260 246 260 254 c 0
 260 258 259 262 258 266 c 5
 245 286 233 315 221 353 c 4
 218 366 209 372 195 372 c 6
 141 372 l 6
 127 372 117 380 113 396 c 4
 100 460 93 513 93 557 c 4
 93 601 100 656 113 721 c 5
 117 737 127 745 141 745 c 6
 195 745 l 6
 209 745 218 751 221 764 c 5
 233 800 245 829 258 851 c 5
 259 855 260 858 260 862 c 0xda6810
 260 869 257 876 251 883 c 6
 214 920 l 6
 208 927 205 933 205 940 c 0
 205 946 207 952 212 957 c 5
 285 1070 330 1113 442 1189 c 5
 447 1192 453 1193 458 1193 c 0xdaf010
 465 1193 471 1190 478 1184 c 6
 515 1147 l 6
 521 1141 527 1138 534 1138 c 0
 538 1138 543 1139 548 1141 c 5
 568 1153 596 1165 634 1178 c 4
 647 1182 654 1191 654 1204 c 6
 654 1258 l 6
 654 1274 662 1283 678 1286 c 4
 742 1298 795 1303 839 1303 c 4
 883 1303 937 1298 1002 1286 c 4
 1018 1283 1026 1274 1026 1258 c 6
 1026 1204 l 6
 1026 1191 1033 1182 1046 1178 c 4
 1082 1165 1110 1153 1132 1141 c 4
 1136 1139 1141 1138 1145 1138 c 0x997310
 1152 1138 1159 1141 1165 1147 c 6
 1202 1184 l 6
 1208 1190 1214 1193 1221 1193 c 0
 1226 1193 1232 1192 1238 1189 c 5
 1349 1111 1392 1068 1470 957 c 5
 1473 951 1474 945 1474 940 c 0
 1474 933 1472 926 1466 920 c 6
 1429 883 l 6
 1423 877 1419 870 1419 863 c 0
 1419 859 1420 855 1422 851 c 4
 1434 829 1446 800 1459 764 c 4
 1463 751 1472 745 1485 745 c 6
 1539 745 l 6
 1555 745 1564 737 1567 721 c 4
 1579 656 1585 601 1585 557 c 4
 1585 513 1579 460 1567 396 c 4
 1564 380 1555 372 1539 372 c 6
 1485 372 l 6
 1472 372 1463 366 1459 353 c 4
 1446 315 1434 286 1422 266 c 5
 1420 261 1419 257 1419 253 c 0x9af350
 1419 246 1423 240 1429 234 c 6
 1466 197 l 6
 1472 190 1475 183 1475 176 c 0
 1475 171 1473 165 1470 160 c 5
 1393 47 1350 7 1238 -69 c 5
 1233 -71 1228 -73 1223 -73 c 0xdae030
 1216 -73 1209 -70 1202 -65 c 5
 1165 -28 l 6
 1159 -22 1152 -18 1145 -18 c 0
 1141 -18 1136 -20 1132 -22 c 4
 1110 -34 1082 -45 1046 -58 c 5
 1033 -59 1026 -68 1026 -84 c 6
 1026 -139 l 6
 1026 -152 1018 -161 1002 -167 c 5
 937 -179 883 -184 839 -184 c 4
 795 -184 742 -179 678 -167 c 5
 662 -161 654 -152 654 -139 c 6
 654 -84 l 6xb86330
 654 -68 647 -59 634 -58 c 5
773 -89 m 5
 795 -91 818 -92 840 -92 c 0
 862 -92 885 -91 907 -89 c 5
 924 -86 933 -75 933 -58 c 6
 933 -15 l 6
 933 -1 941 8 955 11 c 4
 1048 33 1070 45 1145 91 c 5
 1150 93 1154 94 1159 94 c 0
 1166 94 1174 92 1182 87 c 5
 1212 54 l 6
 1218 47 1225 44 1232 44 c 0
 1238 44 1244 47 1251 52 c 4
 1286 79 1318 111 1347 147 c 5
 1351 154 1353 160 1353 166 c 0xb87330
 1353 173 1349 180 1344 186 c 6
 1312 219 l 6
 1305 225 1302 230 1302 237 c 0
 1302 242 1304 247 1308 253 c 4
 1353 328 1363 351 1388 444 c 5
 1389 458 1399 465 1416 465 c 6
 1459 465 l 6
 1476 465 1486 474 1489 491 c 5
 1491 513 1493 537 1493 559 c 0
 1493 581 1491 604 1489 626 c 5
 1486 643 1476 652 1459 652 c 6
 1416 652 l 6
 1399 652 1389 659 1388 673 c 5
 1363 765 1352 787 1308 864 c 5
 1304 869 1302 874 1302 879 c 0
 1302 886 1305 891 1312 898 c 6
 1344 931 l 6
 1350 937 1354 944 1354 951 c 0
 1354 957 1352 963 1347 970 c 5
 1318 1005 1286 1036 1251 1065 c 5
 1244 1070 1238 1072 1232 1072 c 0
 1225 1072 1218 1069 1212 1063 c 6
 1180 1030 l 6
 1173 1023 1167 1021 1160 1021 c 0
 1155 1021 1150 1022 1145 1026 c 5
 1068 1070 1047 1081 955 1106 c 5
 941 1107 933 1117 933 1134 c 6
 933 1178 l 6
 933 1195 924 1205 907 1208 c 5
 885 1210 862 1211 840 1211 c 0
 818 1211 795 1210 773 1208 c 5
 756 1205 747 1195 747 1178 c 6
 747 1134 l 6
 747 1117 739 1107 725 1106 c 5
 632 1081 610 1071 535 1026 c 4
 529 1022 524 1021 519 1021 c 0xbb6350
 512 1021 506 1023 500 1030 c 6
 468 1063 l 6
 462 1068 455 1071 448 1071 c 0
 442 1071 436 1069 429 1065 c 5
 393 1036 360 1005 333 970 c 4
 328 963 325 956 325 950 c 0
 325 943 329 937 336 931 c 6
 368 898 l 6
 374 891 377 885 377 878 c 0
 377 873 375 869 372 864 c 4
 326 789 314 766 292 673 c 4
 289 659 280 652 264 652 c 6
 221 652 l 6
 202 652 193 643 193 626 c 5
 189 604 187 581 187 559 c 0
 187 537 189 513 193 491 c 5
 193 474 202 465 221 465 c 6
 264 465 l 6
 280 465 289 458 292 444 c 4
 314 350 325 327 372 253 c 4
 375 248 377 243 377 238 c 0x9aeb50
 377 231 374 225 368 219 c 6
 336 186 l 6
 330 180 326 173 326 166 c 0
 326 160 328 154 333 147 c 4
 360 111 393 79 429 52 c 4
 436 47 442 45 448 45 c 0xdaf010
 455 45 462 48 468 54 c 6
 500 87 l 6
 506 93 512 95 519 95 c 0
 524 95 530 94 535 91 c 4
 609 44 631 33 725 11 c 4
 739 8 747 -1 747 -15 c 6
 747 -58 l 6
 747 -75 756 -86 773 -89 c 5
1037 792 m 6x9c6090
 1108 792 l 6
 1147 792 1167 773 1167 734 c 6
 1167 665 l 6
 1167 626 1147 606 1108 606 c 6
 1037 606 l 6
 999 606 981 626 981 665 c 6
 981 734 l 6
 981 773 999 792 1037 792 c 6x9c6090
572 792 m 6
 643 792 l 6
 682 792 701 773 701 734 c 6
 701 665 l 6
 701 626 682 606 643 606 c 6
 572 606 l 6
 533 606 513 626 513 665 c 6
 513 734 l 6x9c6410
 513 773 533 792 572 792 c 6
EndSplineSet
Validated: 1
EndChar

StartChar: uni2639
Encoding: 9785 9785 59
Width: 1677
VWidth: 2216
Flags: W
HStem: -184 92<761.058 918.386> -73 118<384.932 503.41 1176.36 1294.05> -18 113<480.156 603.559 1074.25 1199.84> 372 93<188.728 229.45 651.855 1026.19 1450.01 1488.85> 606 186<514.184 699.87 982.073 1165.82> 652 93<188.728 230.016 1449.42 1488.85> 1021 117<479.078 605.909 1072.18 1200.92> 1071 122<385.352 503.982 1175.47 1293.82> 1211 92<761.058 918.386>
VStem: 93 93<465.542 650.733> 204 122<105.581 221.979 894.516 1010.2> 260 117<198.266 319.348 795.414 918.734> 513 188<607.184 790.87> 654 93<-88.8535 -49.7245 1169.6 1207.85> 933 93<-88.8535 -49.1503 1169.01 1207.85> 981 186<607.184 790.87> 1302 117<199.359 321.703 793.35 917.641> 1353 122<106.411 222.631 893.818 1009.77> 1493 92<479.058 637.217>
CounterMasks: 2 9080 2a
LayerCount: 2
Fore
SplineSet
496 314 m 5x90c020
 534 360 580 397 636 424 c 5
 700 457 768 474 840 474 c 4
 914 474 981 457 1043 424 c 5
 1098 397 1145 360 1184 314 c 5
 1190 307 1193 300 1193 294 c 4
 1193 286 1188 279 1178 273 c 5
 1150 251 l 6
 1144 247 1137 245 1132 245 c 4
 1124 245 1118 250 1111 258 c 5
 1081 291 1044 319 1002 342 c 5
 951 368 898 381 840 381 c 4
 722 381 626 323 569 258 c 4
 561 250 554 245 546 245 c 4
 530 251 l 6
 502 273 l 5
 491 280 486 286 486 294 c 4
 486 300 490 307 496 314 c 5x90c020
634 -58 m 5
 596 -45 568 -34 548 -22 c 5
 543 -20 538 -18 534 -18 c 4xb0c660
 527 -18 521 -22 515 -28 c 6
 478 -65 l 5
 470 -70 464 -73 457 -73 c 4
 451 -73 447 -71 442 -67 c 5
 328 5 284 47 210 160 c 4
 206 166 204 172 204 177 c 4xd0e660
 204 184 207 190 214 197 c 6
 251 234 l 6
 257 240 260 246 260 254 c 4
 260 258 259 262 258 266 c 5
 245 286 233 315 221 353 c 4
 217 366 208 372 195 372 c 6
 141 372 l 6
 127 372 117 380 113 396 c 4
 100 460 93 513 93 557 c 4
 93 601 100 656 113 721 c 5
 117 737 127 745 141 745 c 6
 195 745 l 6
 207 745 215 751 221 764 c 5
 233 800 245 829 258 851 c 5
 259 855 260 858 260 862 c 4xd4d020
 260 869 257 876 251 883 c 6
 214 920 l 6
 207 926 204 932 204 939 c 4
 204 945 207 951 212 957 c 5
 285 1070 330 1113 442 1189 c 5
 447 1192 453 1193 458 1193 c 4xd5e020
 465 1193 471 1190 478 1184 c 6
 515 1147 l 6
 521 1141 527 1138 534 1138 c 4
 538 1138 543 1139 548 1141 c 5
 568 1153 596 1165 634 1178 c 4
 647 1182 654 1191 654 1204 c 6
 654 1258 l 6
 654 1274 662 1283 678 1286 c 4
 742 1298 795 1303 839 1303 c 4
 883 1303 937 1298 1002 1286 c 4
 1018 1283 1026 1274 1026 1258 c 6
 1026 1204 l 6
 1026 1191 1033 1182 1046 1178 c 4
 1082 1165 1110 1153 1132 1141 c 4
 1136 1139 1141 1138 1145 1138 c 4x92e620
 1152 1138 1159 1141 1165 1147 c 6
 1202 1184 l 6
 1208 1190 1214 1193 1221 1193 c 4
 1226 1193 1232 1192 1238 1189 c 5
 1349 1111 1392 1068 1470 957 c 5
 1473 951 1474 945 1474 940 c 4
 1474 933 1472 926 1466 920 c 6
 1429 883 l 6
 1423 877 1419 870 1419 863 c 4
 1419 859 1420 855 1422 851 c 4
 1434 829 1446 800 1459 764 c 4
 1463 751 1472 745 1485 745 c 6
 1539 745 l 6
 1555 745 1564 737 1567 721 c 4
 1579 656 1585 601 1585 557 c 4
 1585 513 1579 460 1567 396 c 4
 1564 380 1555 372 1539 372 c 6
 1485 372 l 6
 1472 372 1463 366 1459 353 c 4
 1446 315 1434 286 1422 266 c 5
 1420 261 1419 257 1419 253 c 4x95e6a0
 1419 246 1423 240 1429 234 c 6
 1466 197 l 6
 1472 190 1475 183 1475 176 c 4
 1475 171 1473 165 1470 160 c 5
 1393 47 1350 7 1238 -69 c 5
 1233 -71 1228 -73 1223 -73 c 4xd5c060
 1216 -73 1209 -70 1202 -65 c 5
 1165 -28 l 6
 1159 -22 1152 -18 1145 -18 c 4
 1141 -18 1136 -20 1132 -22 c 4
 1110 -34 1082 -45 1046 -58 c 5
 1033 -59 1026 -68 1026 -84 c 6
 1026 -139 l 6
 1026 -152 1018 -161 1002 -167 c 5
 937 -179 883 -184 839 -184 c 4
 795 -184 742 -179 678 -167 c 5
 662 -161 654 -152 654 -139 c 6
 654 -84 l 6xb0c660
 654 -68 647 -59 634 -58 c 5
773 -89 m 5
 795 -91 818 -92 840 -92 c 4
 862 -92 885 -91 907 -89 c 5
 924 -86 933 -75 933 -58 c 6
 933 -15 l 6
 933 -1 941 8 955 11 c 4
 1048 33 1070 45 1145 91 c 4
 1150 94 1155 95 1160 95 c 4
 1167 95 1173 93 1180 87 c 6
 1212 54 l 6
 1218 47 1225 44 1232 44 c 4
 1238 44 1244 47 1251 52 c 4
 1286 79 1318 111 1347 147 c 5
 1351 154 1353 160 1353 166 c 4xb0e660
 1353 173 1349 180 1344 186 c 6
 1312 219 l 6
 1305 225 1302 230 1302 237 c 4
 1302 242 1304 247 1308 253 c 4
 1353 328 1363 351 1388 444 c 5
 1389 458 1399 465 1416 465 c 6
 1459 465 l 6
 1476 465 1486 474 1489 491 c 5
 1491 513 1493 537 1493 559 c 4
 1493 581 1491 604 1489 626 c 5
 1486 643 1476 652 1459 652 c 6
 1416 652 l 6
 1399 652 1389 659 1388 673 c 5
 1363 765 1352 787 1308 864 c 5
 1304 869 1302 874 1302 879 c 4
 1302 886 1305 891 1312 898 c 6
 1344 931 l 6
 1350 937 1354 944 1354 951 c 4
 1354 957 1352 963 1347 970 c 5
 1318 1005 1286 1036 1251 1065 c 5
 1244 1070 1238 1072 1232 1072 c 4
 1225 1072 1218 1069 1212 1063 c 6
 1180 1030 l 6
 1173 1023 1167 1021 1160 1021 c 4
 1155 1021 1150 1022 1145 1026 c 5
 1068 1070 1047 1081 955 1106 c 5
 941 1107 933 1117 933 1134 c 6
 933 1178 l 6
 933 1195 924 1205 907 1208 c 5
 885 1210 862 1211 840 1211 c 4
 818 1211 795 1210 773 1208 c 5
 756 1205 747 1195 747 1178 c 6
 747 1134 l 6
 747 1117 739 1107 725 1106 c 5
 632 1081 610 1071 535 1026 c 4
 529 1022 524 1021 519 1021 c 4xb6c6a0
 512 1021 506 1023 500 1030 c 6
 468 1063 l 6
 462 1068 455 1071 448 1071 c 4
 442 1071 436 1069 429 1065 c 5
 393 1036 360 1005 333 970 c 4
 328 963 325 956 325 950 c 4
 325 943 329 937 336 931 c 6
 368 898 l 6
 374 891 377 885 377 878 c 4
 377 873 375 869 372 864 c 4
 326 789 314 766 292 673 c 4
 289 659 280 652 264 652 c 6
 221 652 l 6
 202 652 192 643 191 626 c 4
 188 604 186 581 186 559 c 4
 186 537 188 513 191 491 c 4
 192 474 202 465 221 465 c 6
 264 465 l 6
 280 465 289 458 292 444 c 4
 314 350 325 327 372 253 c 4
 375 248 377 243 377 238 c 4x95d6a0
 377 231 374 225 368 219 c 6
 336 186 l 6
 330 180 326 173 326 166 c 4
 326 160 328 154 333 147 c 4
 360 111 393 79 429 52 c 4
 436 47 442 45 448 45 c 4xd5e020
 455 45 462 48 468 54 c 6
 500 87 l 6
 506 93 512 95 519 95 c 4
 524 95 530 94 535 91 c 4
 609 44 631 33 725 11 c 4
 739 8 747 -1 747 -15 c 6
 747 -58 l 6
 747 -75 756 -86 773 -89 c 5
572 792 m 6x98c820
 643 792 l 6
 682 792 701 773 701 734 c 6
 701 665 l 6
 701 626 682 606 643 606 c 6
 572 606 l 6
 533 606 513 626 513 665 c 6
 513 734 l 6
 513 773 533 792 572 792 c 6x98c820
1037 792 m 6
 1108 792 l 6
 1147 792 1167 773 1167 734 c 6
 1167 665 l 6
 1167 626 1147 606 1108 606 c 6
 1037 606 l 6
 999 606 981 626 981 665 c 6
 981 734 l 6x98c120
 981 773 999 792 1037 792 c 6
EndSplineSet
Validated: 1
EndChar

StartChar: invsmileface
Encoding: 9787 9787 60
Width: 1675
VWidth: 2216
Flags: W
HStem: -184 92<758.727 916.386> -73 118<385.026 501.41 1177.52 1291.86> -18 113<478.359 601.26 1072.6 1189.59> 230 94<858.908 1119.46> 326 92<554.862 823.93> 372 93<188.728 229.452 1448.01 1488.64> 606 186<514.073 697.87 980.073 1163.82> 652 93<188.728 229.452 1447.42 1488.64> 1021 117<477.266 604.398 1070.52 1200.7> 1071 122<384.95 501.982 1173.89 1291.63> 1211 92<758.727 916.386>
VStem: 93 93<466.084 649.465> 203 121<105.723 221.979 894.516 1010.52> 260 115<200.453 319.476 796.282 917.094> 513 186<606.936 791.107> 652 93<-88.8535 -48.652 1168.15 1207.85> 931 93<-88.8535 -48.5781 1168.42 1207.85> 979 186<607.184 790.87> 1301 116<198.266 321.703 789.347 918.734> 1350 122<103.533 224.191 892.654 1012.63> 1491 92<465.542 650.733>
CounterMasks: 1 2280
LayerCount: 2
Fore
SplineSet
632 -58 m 5xb57198
 603 -47 572 -36 546 -22 c 5
 541 -20 536 -18 532 -18 c 0xb57198
 525 -18 519 -22 513 -28 c 6
 476 -65 l 5
 468 -70 462 -73 455 -73 c 0
 449 -73 444 -71 439 -67 c 5
 326 5 282 46 210 160 c 5
 205 165 203 170 203 176 c 0xd03a08
 203 182 206 189 212 197 c 5
 249 234 l 5
 256 239 260 245 260 252 c 0xd03408
 260 256 258 261 255 266 c 5
 238 304 227 333 221 353 c 4
 217 366 207 372 193 372 c 6
 141 372 l 6
 124 372 114 380 113 396 c 5
 100 460 93 513 93 557 c 4
 93 601 100 656 113 721 c 5
 114 737 124 745 141 745 c 6
 193 745 l 6
 206 745 215 751 221 764 c 5
 227 784 238 813 255 851 c 4
 257 856 259 860 259 864 c 0
 259 871 256 877 251 883 c 5
 212 920 l 5
 206 927 203 933 203 940 c 0
 203 946 205 952 210 957 c 5
 283 1070 327 1113 439 1189 c 5
 444 1192 450 1193 455 1193 c 0
 462 1193 469 1190 476 1184 c 6
 513 1147 l 6xd57a08
 519 1141 525 1138 533 1138 c 0
 537 1138 543 1139 548 1141 c 5
 562 1148 590 1161 632 1178 c 4
 645 1182 652 1191 652 1204 c 6
 652 1258 l 6
 652 1274 659 1283 675 1286 c 4
 739 1298 793 1303 837 1303 c 4
 881 1303 935 1298 1000 1286 c 4
 1016 1283 1024 1274 1024 1258 c 6
 1024 1204 l 6
 1024 1191 1030 1182 1043 1178 c 4
 1079 1165 1108 1153 1130 1141 c 4
 1134 1139 1138 1138 1142 1138 c 0x90b188
 1149 1138 1157 1141 1163 1147 c 6
 1202 1184 l 5
 1207 1190 1213 1193 1220 1193 c 0
 1225 1193 1230 1192 1236 1189 c 5
 1347 1111 1390 1068 1468 957 c 5
 1471 951 1472 945 1472 940 c 0x907198
 1472 933 1469 926 1463 920 c 6
 1427 883 l 6
 1421 877 1417 870 1417 863 c 0
 1417 859 1418 855 1420 851 c 4
 1432 829 1444 800 1457 764 c 4
 1461 751 1471 745 1485 745 c 6
 1537 745 l 6
 1553 745 1562 737 1565 721 c 4
 1577 656 1583 601 1583 557 c 4
 1583 513 1577 460 1565 396 c 4
 1562 380 1553 372 1537 372 c 6
 1485 372 l 6
 1471 372 1461 366 1457 353 c 4
 1444 315 1432 286 1420 266 c 5
 1418 261 1417 257 1417 253 c 0x957028
 1417 246 1421 240 1427 234 c 6
 1463 197 l 6
 1469 190 1472 183 1472 176 c 0
 1472 171 1471 165 1468 160 c 5
 1391 47 1348 7 1236 -69 c 5
 1231 -72 1226 -74 1221 -74 c 0
 1214 -74 1208 -71 1202 -65 c 6
 1163 -28 l 6
 1157 -22 1149 -18 1142 -18 c 0
 1138 -18 1134 -20 1130 -22 c 4
 1108 -34 1079 -45 1043 -58 c 5
 1030 -59 1024 -68 1024 -84 c 6
 1024 -139 l 6
 1024 -152 1016 -161 1000 -167 c 5
 935 -179 881 -184 837 -184 c 4
 793 -184 739 -179 675 -167 c 5
 659 -161 652 -152 652 -139 c 6
 652 -84 l 6
 652 -68 645 -59 632 -58 c 5xb57198
1150 288 m 4
 1100 247 1049 230 998 230 c 0
 940 230 881 252 818 284 c 4
 771 307 727 326 683 326 c 0
 651 326 619 316 587 290 c 5
 580 285 573 283 567 283 c 0
 560 283 554 286 548 292 c 6
 524 318 l 5
 516 325 513 332 513 339 c 0
 513 347 517 354 526 362 c 4
 576 402 627 418 679 418 c 0x983208
 737 418 796 398 859 368 c 5
 907 344 951 324 995 324 c 0
 1026 324 1056 334 1089 359 c 5
 1096 363 1102 365 1108 365 c 0
 1115 365 1122 362 1128 357 c 6
 1154 331 l 5
 1160 324 1163 318 1163 311 c 0
 1163 303 1159 295 1150 288 c 4
569 792 m 6x923208
 641 792 l 6
 680 792 699 773 699 734 c 6
 699 665 l 6
 699 626 680 606 641 606 c 6
 569 606 l 6
 531 606 513 626 513 665 c 6
 513 734 l 6
 513 773 531 792 569 792 c 6x923208
1035 792 m 6
 1106 792 l 6
 1145 792 1165 773 1165 734 c 6
 1165 665 l 6
 1165 626 1145 606 1106 606 c 6
 1035 606 l 6
 997 606 979 626 979 665 c 6
 979 734 l 6x923048
 979 773 997 792 1035 792 c 6
771 -89 m 5
 793 -91 816 -92 838 -92 c 0
 860 -92 883 -91 905 -89 c 5
 922 -86 931 -75 931 -58 c 6
 931 -15 l 6
 931 -1 939 8 953 11 c 4
 1046 33 1068 45 1143 91 c 5
 1148 93 1152 94 1157 94 c 0
 1164 94 1172 92 1180 87 c 5
 1210 54 l 6
 1216 47 1223 44 1230 44 c 0
 1236 44 1242 47 1249 52 c 4
 1284 79 1315 111 1344 147 c 5
 1348 154 1350 160 1350 166 c 0xb03998
 1350 173 1347 180 1342 186 c 6
 1310 219 l 6
 1304 224 1301 230 1301 236 c 0
 1301 241 1303 247 1308 253 c 5
 1353 328 1361 351 1386 444 c 5
 1387 458 1397 465 1414 465 c 6
 1459 465 l 6
 1475 465 1484 474 1487 491 c 5
 1489 513 1491 537 1491 559 c 0
 1491 581 1489 604 1487 626 c 5
 1484 643 1475 652 1459 652 c 6
 1414 652 l 6
 1397 652 1387 659 1386 673 c 5
 1361 765 1349 787 1305 864 c 5
 1301 869 1300 874 1300 879 c 0
 1300 886 1303 891 1310 898 c 6
 1342 931 l 6
 1348 937 1351 944 1351 951 c 0
 1351 957 1349 963 1344 970 c 5
 1315 1005 1284 1036 1249 1065 c 5
 1242 1070 1236 1072 1230 1072 c 0
 1223 1072 1216 1069 1210 1063 c 6
 1180 1030 l 5
 1172 1024 1165 1022 1158 1022 c 0
 1153 1022 1148 1023 1143 1026 c 4
 1066 1070 1045 1081 953 1106 c 5
 939 1107 931 1117 931 1134 c 6
 931 1178 l 6
 931 1195 922 1205 905 1208 c 5
 883 1210 860 1211 838 1211 c 0
 816 1211 793 1210 771 1208 c 5
 754 1205 745 1195 745 1178 c 6
 745 1134 l 6
 745 1117 737 1107 723 1106 c 5
 630 1081 608 1071 533 1026 c 4
 527 1022 522 1021 517 1021 c 0xb5b1a8
 510 1021 504 1023 498 1030 c 6
 465 1063 l 6
 459 1068 453 1071 446 1071 c 0
 440 1071 433 1069 426 1065 c 5
 394 1039 363 1008 333 970 c 5
 327 964 325 957 325 951 c 0
 325 945 327 938 333 931 c 5
 366 898 l 6
 372 891 375 885 375 878 c 0
 375 873 373 869 370 864 c 4
 324 790 311 767 292 673 c 5
 286 659 277 652 264 652 c 6
 219 652 l 6
 200 652 191 643 191 626 c 5
 188 604 186 581 186 559 c 0
 186 537 188 513 191 491 c 5
 191 474 200 465 219 465 c 6
 264 465 l 6
 278 465 287 458 290 444 c 4
 312 350 323 327 370 253 c 4
 373 248 375 243 375 238 c 0x9575a8
 375 231 372 225 366 219 c 6
 333 186 l 6
 327 179 324 172 324 165 c 0
 324 159 326 153 331 147 c 4
 366 105 397 74 426 52 c 4
 433 47 440 45 446 45 c 0xd57808
 453 45 459 48 465 54 c 6
 498 87 l 6
 504 93 510 95 517 95 c 0
 522 95 528 94 533 91 c 4
 607 44 629 33 723 11 c 4
 737 8 745 -1 745 -15 c 6
 745 -58 l 6xb03908
 745 -75 754 -86 771 -89 c 5
EndSplineSet
Validated: 1
EndChar

StartChar: Gostrus
Encoding: 13007 13007 61
Width: 2210
VWidth: 2216
Flags: W
HStem: -97 33<598.653 650.483 1937.79 2055.56> -63 44<500.094 502 524.094 529.906 530.048 564.997 720.617 760.608> -47 42<504.609 560.59 687.829 742.906> 2 33<149.745 292 956.591 1078.27 1665.05 1785> 35 56<541.725 598.275> 75 120<392.07 424.716 824.178 850.951> 75 33<424.877 434.792 817.003 823.931> 178 58<541.41 598.59> 234 33<236 292> 275 41<504.594 564.787 684.238 740.906> 301 32<502 511.688 736.281 754.56 967.44 1083.01 1198 1222 1255 1311 1421 1506.69> 333 34<598.653 650.483 1944.22 2068.05> 433 34<149.745 315>
VStem: 93 34<56.5754 409.819> 226 100<234 267> 292 34<35 233.999> 391 34<108.373 160.825> 425 44<-11.923 30.8828 36.093 40.9062 41.093 74.9978 234.11 281.729> 442 41<17.0945 20.8594 22.5948 74.8251 198.355 251.906> 541 58<35.4533 90.5467 178.532 235.468> 565 33<-63.4532 -56.0952 323.795 332.453> 651 33<-63.3164 -56.0952 323.309 332.316> 723 33<77.5517 191.65> 765 41<14.5952 74.916 195.411 251.906> 824 32<108.373 160.825> 923 33<229.832 289.004> 1089 32<47.0392 102.548> 1222 33<12 300.999 333.001 457> 1388 33<12 301> 1619 34<46.9805 324> 1785 34<35 324> 1886 32<220.717 306.41> 2085 32<-36.2856 46.7189>
CounterMasks: 4 0005001e 00020041 00008280 0000410080
LayerCount: 2
Fore
SplineSet
193 2 m 2x909d07ff80
 138 2 93 47 93 102 c 2
 93 367 l 2
 93 421 138 467 193 467 c 2
 315 467 l 2
 321 467 326 463 326 457 c 2
 326 444 l 2
 326 436 321 433 315 433 c 2
 193 433 l 2
 156 433 127 403 127 367 c 2
 127 102 l 2
 127 84 132 67 145 54 c 0
 159 41 187 38 193 35 c 1
 289 35 l 2
 291 35 292 36 292 38 c 2
 292 231 l 2x909d07ff80
 292 233 291 234 289 234 c 2
 236 234 l 2
 230 234 226 237 226 245 c 2
 226 258 l 2
 226 264 230 267 236 267 c 2
 315 267 l 2
 321 267 326 264 326 258 c 0x909e07ff80
 326 176 326 94 326 12 c 0
 326 6 321 2 315 2 c 2
 193 2 l 2x909d07ff80
391 134 m 0x840ca7ff80
 391 148 394 165 398 186 c 0
 399 191 402 195 408 195 c 2
 422 195 l 2
 426 195 430 197 432 201 c 1
 434 209 438 217 441 223 c 0
 442 224 442 226 442 227 c 0x840ca7ff80
 442 229 440 233 438 235 c 2
 429 246 l 2
 427 248 425 250 425 252 c 0
 425 253 427 256 428 258 c 0
 453 295 464 306 500 331 c 0
 502 332 505 333 507 333 c 0x842c47ff80
 509 333 511 332 513 330 c 2
 524 319 l 2
 526 317 528 316 530 316 c 0
 531 316 534 316 535 317 c 0
 541 320 548 324 557 327 c 0
 561 328 565 332 565 337 c 2
 565 352 l 2
 565 356 568 361 573 362 c 0
 594 366 610 367 623 367 c 0
 637 367 654 366 675 362 c 0
 681 361 684 356 684 352 c 2
 684 337 l 2
 684 332 687 328 691 327 c 0
 700 324 707 320 712 317 c 0
 714 317 716 316 718 316 c 0x805c4fff80
 720 316 723 317 725 319 c 2
 735 330 l 2
 737 332 739 333 741 333 c 0
 743 333 746 332 748 331 c 1
 784 305 795 295 820 259 c 0
 821 257 823 254 823 252 c 0
 823 250 821 248 819 246 c 2
 809 235 l 2
 808 233 806 230 806 228 c 0
 806 226 807 225 808 223 c 0
 810 219 813 211 817 201 c 1
 817 197 821 195 826 195 c 2
 841 195 l 2
 846 195 850 191 851 186 c 0
 854 165 856 148 856 134 c 0
 856 120 854 104 851 83 c 0
 850 78 846 75 841 75 c 2
 826 75 l 2x842c4fff80
 821 75 817 72 817 68 c 1
 813 58 810 50 808 45 c 0
 807 44 806 42 806 40 c 0
 806 38 808 37 809 35 c 2
 819 24 l 2
 821 22 823 18 823 16 c 0
 823 15 822 13 820 11 c 0
 795 -25 784 -36 748 -62 c 1
 746 -63 743 -63 741 -63 c 0xc80c4fff80
 739 -63 737 -62 735 -60 c 2
 725 -50 l 2
 723 -48 720 -47 718 -47 c 0
 716 -47 714 -47 712 -48 c 0
 707 -51 700 -54 691 -56 c 0
 687 -58 684 -62 684 -67 c 2
 684 -81 l 2
 684 -85 681 -90 675 -92 c 0
 654 -96 637 -97 623 -97 c 0
 610 -97 594 -96 573 -92 c 0
 568 -90 565 -85 565 -81 c 2
 565 -67 l 2
 565 -62 561 -58 557 -56 c 0
 548 -54 541 -51 535 -48 c 0
 534 -47 531 -47 530 -47 c 0xa00c4fff80
 528 -47 526 -48 524 -50 c 2
 513 -60 l 2
 511 -62 509 -63 507 -63 c 0
 505 -63 502 -63 500 -62 c 0
 464 -36 453 -25 428 11 c 0
 427 13 425 15 425 17 c 0
 425 19 427 22 429 24 c 2
 438 35 l 2xc80c4fff80
 440 37 442 39 442 41 c 0
 442 43 442 44 441 45 c 1
 438 51 434 59 432 68 c 0
 431 72 426 75 422 75 c 2
 408 75 l 2
 402 75 399 78 398 83 c 0
 394 104 391 120 391 134 c 0x840ca7ff80
425 134 m 0
 425 122 423 108 435 108 c 2
 447 108 l 2
 451 108 456 106 457 100 c 0
 465 71 467 64 482 41 c 0
 483 39 483 38 483 36 c 0x824ca7ff80
 483 34 483 30 481 28 c 2
 472 21 l 1
 470 18 469 15 469 13 c 0
 469 11 470 8 472 6 c 0
 480 -3 488 -10 496 -16 c 0
 498 -18 500 -21 502 -21 c 1
 510 -16 l 1
 517 -9 l 2
 519 -7 522 -5 524 -5 c 0xa24c47ff80
 526 -5 528 -7 530 -8 c 0
 554 -22 561 -25 590 -31 c 0
 595 -32 598 -36 598 -41 c 2
 598 -53 l 2
 598 -59 601 -63 607 -63 c 0
 612 -63 618 -64 623 -64 c 0
 629 -64 636 -63 641 -63 c 0
 647 -63 651 -59 651 -53 c 2
 651 -41 l 2
 651 -36 654 -32 658 -31 c 0
 687 -25 694 -21 718 -8 c 1
 720 -6 722 -4 723 -4 c 0
 726 -4 728 -7 731 -9 c 2
 738 -16 l 2
 740 -18 743 -19 745 -19 c 0
 747 -19 750 -19 752 -17 c 0
 761 -9 768 -2 777 6 c 0
 778 8 779 11 779 13 c 0
 779 15 778 19 776 21 c 2
 769 28 l 2
 767 30 765 33 765 35 c 0xc80c4fff80
 765 37 765 39 766 41 c 0
 780 65 785 71 791 100 c 0
 792 105 796 108 801 108 c 2
 812 108 l 2
 825 108 824 122 824 134 c 0
 824 147 825 161 812 161 c 2
 801 161 l 2
 796 161 792 165 791 169 c 0
 783 198 780 203 766 228 c 0
 765 230 764 233 764 234 c 0
 764 236 767 239 769 241 c 2
 776 249 l 2
 778 251 779 253 779 255 c 0
 779 257 778 261 777 263 c 0
 766 274 758 283 752 287 c 0
 750 289 747 290 745 290 c 0
 743 290 740 289 738 287 c 2
 731 279 l 1
 729 276 726 275 723 275 c 0
 722 275 720 275 718 277 c 1
 694 291 687 294 658 302 c 0
 654 303 651 306 651 312 c 2
 651 323 l 2
 651 329 647 332 641 332 c 0
 636 332 629 333 623 333 c 0x82dc4fff80
 618 333 612 332 607 332 c 0
 601 332 598 329 598 323 c 2
 598 312 l 2
 598 307 595 302 590 301 c 0x802c4fff80
 561 295 554 291 530 277 c 0
 528 276 527 275 525 275 c 0
 522 275 519 276 517 279 c 2
 510 287 l 2
 508 289 504 290 502 290 c 1
 496 287 l 1
 486 278 478 269 472 263 c 0
 470 261 469 259 469 257 c 0x804c4fff80
 469 254 470 251 472 249 c 2
 481 241 l 1
 483 238 483 236 483 233 c 0
 483 232 483 230 482 228 c 0
 467 204 466 199 457 169 c 0
 456 164 451 161 447 161 c 2
 435 161 l 2
 423 161 425 146 425 134 c 0
541 52 m 2x880c17ff80
 541 74 l 2
 541 86 548 91 560 91 c 2
 580 91 l 2
 592 91 599 86 599 74 c 2
 599 52 l 2
 599 40 592 35 580 35 c 2
 560 35 l 2
 548 35 541 40 541 52 c 2x880c17ff80
541 196 m 2
 541 218 l 2
 541 230 548 236 560 236 c 2
 580 236 l 2
 592 236 599 230 599 218 c 2
 599 196 l 2
 599 184 592 178 580 178 c 2
 560 178 l 2x810c17ff80
 548 178 541 184 541 196 c 2
662 27 m 2
 661 29 661 31 661 32 c 0
 661 35 664 38 667 40 c 0
 683 49 695 61 705 75 c 0x820c07ff80
 717 92 723 111 723 134 c 0
 723 157 717 177 705 194 c 0
 695 209 682 219 667 228 c 0
 664 230 661 234 661 237 c 0
 661 238 661 240 662 241 c 2
 667 253 l 2
 669 257 671 260 675 260 c 0
 676 260 679 260 681 259 c 0
 702 249 719 234 733 212 c 0
 749 189 756 162 756 134 c 0
 756 78 721 30 681 11 c 0
 679 10 676 9 675 9 c 0
 671 9 669 11 667 16 c 2
 662 27 l 2
1022 35 m 0x902c07ff80
 1053 35 1089 45 1089 73 c 0
 1089 84 1084 93 1078 101 c 0
 1070 107 1062 114 1053 122 c 2
 971 187 l 1
 959 196 947 207 937 218 c 0
 927 229 923 243 923 261 c 0
 923 262 923 262 923 263 c 0
 923 311 970 333 1022 333 c 0
 1065 333 1088 324 1118 303 c 0
 1121 301 1123 299 1123 296 c 0
 1123 294 1121 291 1119 289 c 2
 1112 279 l 2
 1110 276 1106 274 1104 274 c 1
 1073 290 1064 301 1022 301 c 0
 992 301 956 290 956 263 c 0
 956 238 978 225 992 213 c 2
 1074 148 l 2
 1086 138 1096 128 1106 117 c 0
 1117 105 1121 91 1121 73 c 0
 1121 25 1073 2 1022 2 c 0
 981 2 954 11 928 32 c 0
 925 34 922 38 922 40 c 0
 922 42 923 45 924 47 c 2
 933 56 l 2
 935 59 938 61 941 61 c 0
 943 61 945 59 947 58 c 0
 966 43 988 35 1022 35 c 0x902c07ff80
1187 312 m 2
 1187 324 l 2
 1187 330 1192 333 1198 333 c 2
 1218 333 l 2
 1221 333 1222 335 1222 337 c 2
 1222 457 l 2
 1222 463 1226 467 1232 467 c 2
 1245 467 l 2
 1251 467 1255 463 1255 457 c 2
 1255 337 l 2
 1255 335 1256 333 1258 333 c 2
 1311 333 l 2
 1317 333 1321 330 1321 324 c 2
 1321 312 l 2
 1321 304 1317 301 1311 301 c 2
 1258 301 l 2
 1256 301 1255 300 1255 298 c 2
 1255 12 l 2
 1255 6 1251 2 1245 2 c 2
 1232 2 l 2
 1226 2 1222 6 1222 12 c 2
 1222 298 l 2
 1222 300 1221 301 1218 301 c 2
 1198 301 l 2
 1192 301 1187 304 1187 312 c 2
1388 12 m 2
 1388 324 l 2
 1388 330 1391 333 1397 333 c 2x901c07ff80
 1470 333 l 2
 1513 333 1545 301 1553 263 c 0
 1553 262 1553 262 1553 261 c 0
 1553 255 1548 251 1542 251 c 2
 1530 251 l 2
 1525 251 1521 255 1520 260 c 0
 1517 282 1495 301 1470 301 c 2
 1425 301 l 2
 1423 301 1421 300 1421 298 c 2
 1421 12 l 2
 1421 6 1416 2 1410 2 c 2
 1397 2 l 2
 1391 2 1388 6 1388 12 c 2
1619 86 m 2
 1619 324 l 2
 1619 330 1623 333 1629 333 c 2
 1642 333 l 2
 1648 333 1653 330 1653 324 c 2
 1653 86 l 2
 1653 57 1673 35 1702 35 c 2
 1782 35 l 2
 1784 35 1785 36 1785 38 c 2
 1785 324 l 2
 1785 330 1789 333 1795 333 c 2
 1808 333 l 2
 1814 333 1819 330 1819 324 c 2
 1819 12 l 2
 1819 6 1814 2 1808 2 c 2
 1702 2 l 1
 1662 2 1633 28 1624 58 c 0
 1621 67 1619 76 1619 86 c 2
2001 -64 m 0
 2043 -64 2085 -39 2085 2 c 0
 2085 26 2073 47 2054 64 c 2
 1927 180 l 1
 1899 204 1886 232 1886 267 c 0
 1886 327 1938 367 2001 367 c 0x909c07ff80
 2046 367 2092 345 2115 320 c 0
 2117 318 2118 316 2118 314 c 0
 2118 311 2116 307 2112 305 c 2
 2101 299 l 2
 2100 298 2098 297 2096 297 c 0
 2094 297 2090 298 2088 301 c 0x802c07ff80
 2072 319 2037 333 2001 333 c 0
 1957 333 1918 308 1918 267 c 0x809c07ff80
 1918 243 1929 223 1948 205 c 2
 2077 89 l 2
 2104 65 2117 36 2117 2 c 0
 2117 -56 2063 -97 2001 -97 c 0
 1956 -97 1910 -77 1889 -51 c 0
 1886 -48 1885 -45 1885 -42 c 0
 1885 -40 1887 -38 1891 -36 c 2
 1902 -29 l 2
 1904 -27 1906 -27 1908 -27 c 0
 1910 -27 1913 -28 1915 -30 c 0
 1930 -49 1969 -64 2001 -64 c 0
EndSplineSet
Validated: 1
EndChar

StartChar: onethird
Encoding: 8531 8531 62
Width: 1443
VWidth: 2216
Flags: W
HStem: 0 93<931 1204.96> 465 96<1067 1174.46> 838 93<931 1169.64> 1495 135<233.531 278.999>
VStem: 279 93<699 1495> 1067 160<482.574 560.854> 1210 93<594.808 798.799> 1258 93<145.337 404.672>
CounterMasks: 1 e0
LayerCount: 2
Fore
SplineSet
1351 279 m 0xfd
 1351 125 1247 0 1100 0 c 2
 959 0 l 2
 940 0 931 9 931 28 c 2
 931 65 l 2
 931 84 940 93 959 93 c 2
 1100 93 l 2
 1198 93 1258 177 1258 279 c 0
 1258 374 1189 465 1095 465 c 0
 1076 465 1067 475 1067 494 c 2
 1067 530 l 2xfd
 1067 547 1075 558 1091 561 c 0
 1159 570 1210 625 1210 699 c 0
 1210 737 1197 770 1171 799 c 0
 1142 825 1110 838 1072 838 c 2
 959 838 l 2
 940 838 931 847 931 866 c 2
 931 903 l 2
 931 922 940 931 959 931 c 2
 1072 931 l 2
 1201 931 1303 828 1303 699 c 0xfa
 1303 631 1279 574 1230 528 c 0
 1228 526 1227 525 1227 523 c 0
 1227 521 1229 517 1232 515 c 0
 1301 472 1351 375 1351 279 c 0xfd
117 1457 m 2
 255 1619 l 2
 262 1626 270 1630 277 1630 c 2
 344 1630 l 2
 363 1630 372 1620 372 1600 c 2
 372 727 l 2
 372 708 363 699 344 699 c 2
 307 699 l 2
 288 699 279 708 279 727 c 2
 279 1481 l 2
 279 1490 278 1495 275 1495 c 0
 272 1495 269 1492 264 1485 c 1
 186 1396 l 2
 179 1387 172 1383 164 1383 c 0
 158 1383 151 1386 145 1392 c 2
 119 1416 l 2
 111 1423 108 1430 108 1437 c 0
 108 1444 111 1450 117 1457 c 2
1067 1589 m 1
 342 17 l 2
 336 5 328 0 316 0 c 2
 277 0 l 2
 256 0 245 7 245 20 c 0
 245 26 247 33 251 41 c 2
 976 1613 l 2
 982 1625 990 1630 1002 1630 c 2
 1041 1630 l 2
 1063 1630 1074 1624 1074 1611 c 0
 1074 1605 1072 1598 1067 1589 c 1
EndSplineSet
Validated: 1
EndChar

StartChar: twothirds
Encoding: 8532 8532 63
Width: 1630
VWidth: 2216
Flags: W
HStem: 0 93<1117 1387.66> 465 96<1253 1361.23> 699 91<240 559> 838 93<1117 1355.64> 1537 91<227.043 426.734>
VStem: 95 93<1396 1497.86> 465 94<1281.04 1497.17> 1396 93<595.016 799.017> 1444 93<147.088 404.3>
CounterMasks: 1 d0
LayerCount: 2
Fore
SplineSet
1537 279 m 0xfe80
 1537 125 1434 0 1286 0 c 2
 1147 0 l 2
 1126 0 1117 10 1117 28 c 2
 1117 65 l 2
 1117 83 1126 93 1147 93 c 2
 1286 93 l 2
 1383 93 1444 178 1444 279 c 0xfe80
 1444 374 1376 465 1282 465 c 0
 1264 465 1253 476 1253 494 c 2
 1253 530 l 2
 1253 547 1261 558 1277 561 c 0
 1344 570 1396 625 1396 699 c 0
 1396 737 1383 770 1357 799 c 1
 1328 825 1296 838 1258 838 c 2
 1147 838 l 2
 1126 838 1117 848 1117 866 c 2
 1117 903 l 2
 1117 921 1126 931 1147 931 c 2
 1258 931 l 2
 1387 931 1489 829 1489 699 c 0xff
 1489 631 1465 575 1416 528 c 0
 1412 524 1413 519 1418 515 c 0
 1487 471 1537 374 1537 279 c 0xfe80
465 1396 m 0
 465 1472 403 1537 327 1537 c 0
 258 1537 196 1480 188 1420 c 1
 185 1404 176 1396 160 1396 c 2
 123 1396 l 2
 101 1396 92 1407 95 1429 c 0
 107 1540 210 1628 327 1628 c 0
 453 1628 559 1525 559 1396 c 0
 559 1349 547 1308 522 1269 c 2
 232 805 l 1
 224 795 227 790 240 790 c 2
 530 790 l 2
 548 790 559 780 559 762 c 2
 559 727 l 2
 559 709 548 699 530 699 c 2
 108 699 l 2
 85 699 73 705 73 717 c 0
 73 724 77 733 84 743 c 1
 444 1318 l 2
 458 1340 465 1366 465 1396 c 0
1256 1589 m 2
 528 17 l 2
 523 5 514 0 502 0 c 2
 463 0 l 2
 442 0 431 7 431 20 c 0
 431 26 433 33 437 41 c 2
 1163 1613 l 2
 1168 1625 1177 1630 1189 1630 c 2
 1228 1630 l 2
 1250 1630 1261 1623 1261 1609 c 0
 1261 1604 1259 1596 1256 1589 c 2
EndSplineSet
Validated: 1
EndChar

StartChar: oneeighth
Encoding: 8539 8539 64
Width: 1443
VWidth: 2216
Flags: W
HStem: 0 91<1025.68 1208.45> 448 93<1039.26 1192.39> 836 93<1040.74 1192.38> 1495 135<233.531 278.999>
VStem: 279 93<699 1495> 885 94<137.414 400.098> 916 93<569.716 807.479> 1225 93<568.967 807.204> 1258 93<139.852 395.933>
CounterMasks: 1 e0
LayerCount: 2
Fore
SplineSet
1117 91 m 0xfc80
 1203 91 1258 182 1258 268 c 0
 1258 354 1200 448 1117 448 c 0
 1033 448 979 356 979 268 c 0
 979 179 1029 91 1117 91 c 0xfc80
117 1457 m 2
 255 1619 l 2
 263 1627 269 1630 277 1630 c 2
 344 1630 l 2
 362 1630 372 1621 372 1600 c 2
 372 727 l 2
 372 709 362 699 344 699 c 2
 307 699 l 2
 289 699 279 709 279 727 c 2
 279 1481 l 2
 279 1491 278 1495 276 1495 c 0
 273 1495 269 1491 264 1485 c 2
 186 1396 l 2
 178 1387 173 1383 165 1383 c 0
 159 1383 151 1387 145 1392 c 2
 119 1416 l 2
 111 1422 107 1429 107 1437 c 0
 107 1443 111 1451 117 1457 c 2
1067 1589 m 2
 342 17 l 2
 337 5 328 0 316 0 c 2
 277 0 l 2
 255 0 246 7 246 21 c 0
 246 26 247 32 251 41 c 2
 976 1613 l 2
 981 1625 990 1630 1002 1630 c 2
 1041 1630 l 2
 1062 1630 1073 1623 1073 1610 c 0
 1073 1604 1070 1597 1067 1589 c 2
1117 541 m 0
 1184 541 1225 618 1225 688 c 0
 1225 757 1184 836 1117 836 c 0
 1049 836 1009 757 1009 688 c 0xfb
 1009 618 1049 541 1117 541 c 0
1117 929 m 0
 1174 929 1224 904 1264 855 c 1
 1300 806 1318 750 1318 688 c 0xfb
 1318 624 1300 570 1264 522 c 0
 1262 520 1246 507 1246 499 c 0
 1246 497 1247 495 1249 494 c 1
 1266 480 1278 468 1286 459 c 0
 1329 403 1351 338 1351 268 c 0
 1351 129 1256 0 1117 0 c 0
 977 0 885 127 885 268 c 0xfc80
 885 362 925 441 985 494 c 1
 988 495 989 497 989 499 c 0
 989 501 988 504 985 507 c 0
 941 551 916 617 916 688 c 0
 916 809 999 929 1117 929 c 0
EndSplineSet
Validated: 1
EndChar

StartChar: uni215F
Encoding: 8543 8543 65
Width: 1031
VWidth: 2216
Flags: W
HStem: 0 21G<133.5 189> 0 21G<133.5 189>
LayerCount: 2
Fore
SplineSet
935 1589 m 1x80
 209 17 l 2
 203 5 195 0 183 0 c 2
 144 0 l 2
 123 0 113 7 113 20 c 0
 113 26 114 33 118 41 c 2
 844 1613 l 2
 850 1625 858 1630 870 1630 c 2
 909 1630 l 2
 930 1630 940 1623 940 1609 c 0
 940 1603 938 1597 935 1589 c 1x80
EndSplineSet
Validated: 1
EndChar

StartChar: threeeighths
Encoding: 8540 8540 66
Width: 1443
VWidth: 2216
Flags: W
HStem: 0 93<1027.13 1208.55> 450 96<1038.87 1194.17> 699 93<93 364.078> 838 93<1039.84 1194.17> 1163 95<229 333.745> 1537 93<93 330.106>
VStem: 229 159<1182.11 1262.55> 372 93<1294.15 1498.49> 420 93<845.362 1102.55> 885 94<140.537 403.265> 916 93<572.682 810.486> 1225 93<573.12 808.88> 1258 93<143.902 402.756>
CounterMasks: 2 d0 2c
LayerCount: 2
Fore
SplineSet
1117 450 m 4xfc48
 1031 450 979 361 979 273 c 4
 979 183 1033 93 1117 93 c 4
 1201 93 1258 185 1258 273 c 4
 1258 361 1204 450 1117 450 c 4xfc48
513 979 m 0xfe80
 513 826 411 699 262 699 c 2
 121 699 l 2
 103 699 93 709 93 727 c 2
 93 762 l 2
 93 783 103 792 121 792 c 2
 262 792 l 2
 361 792 420 878 420 979 c 0
 420 1070 352 1163 258 1163 c 0
 240 1163 229 1172 229 1193 c 2
 229 1230 l 2xfe80
 229 1246 237 1256 253 1258 c 0
 280 1262 307 1274 331 1297 c 0
 359 1323 372 1357 372 1396 c 0
 372 1473 311 1537 234 1537 c 2
 121 1537 l 2
 103 1537 93 1547 93 1565 c 2
 93 1600 l 2
 93 1621 103 1630 121 1630 c 2
 234 1630 l 2
 364 1630 465 1524 465 1396 c 0xfd
 465 1327 441 1271 392 1228 c 0
 390 1226 388 1223 388 1221 c 0
 388 1219 390 1217 394 1215 c 1
 463 1162 513 1079 513 979 c 0xfe80
1115 1589 m 2
 390 17 l 2
 385 5 376 0 364 0 c 2
 325 0 l 2
 304 0 293 7 293 20 c 0
 293 26 295 33 299 41 c 2
 1024 1613 l 2
 1028 1625 1037 1630 1050 1630 c 2
 1089 1630 l 2
 1110 1630 1120 1623 1120 1609 c 0
 1120 1603 1119 1597 1115 1589 c 2
1117 838 m 4
 1049 838 1009 762 1009 691 c 4
 1009 620 1048 546 1117 546 c 4
 1184 546 1225 620 1225 691 c 4xfc30
 1225 762 1184 838 1117 838 c 4
1117 0 m 4
 980 0 885 131 885 273 c 4xfc48
 885 367 926 442 985 496 c 4
 989 500 990 502 990 504 c 4
 990 508 986 510 983 513 c 4
 972 526 l 5
 934 573 916 627 916 691 c 4
 916 813 999 931 1117 931 c 4
 1236 931 1318 817 1318 691 c 4xfc30
 1318 626 1300 570 1264 526 c 4
 1257 518 1254 515 1249 509 c 4
 1247 507 1246 504 1246 502 c 4
 1246 500 1247 498 1249 496 c 4
 1312 445 1351 361 1351 273 c 4xfc08
 1351 200 1331 136 1286 82 c 4
 1239 25 1181 0 1117 0 c 4
EndSplineSet
Validated: 1
EndChar

StartChar: fiveeighths
Encoding: 8541 8541 67
Width: 1443
VWidth: 2216
Flags: W
HStem: 0 93<1027.13 1207.41> 450 96<1038.87 1194.17> 699 93<93 363.98> 838 93<1039.84 1194.17> 1160 93<186 363.557> 1537 93<186 513>
VStem: 93 93<1253 1537> 420 93<850.966 1102.78> 885 94<140.537 403.265> 916 93<572.682 810.486> 1225 93<573.12 808.88> 1258 93<145.258 402.756>
CounterMasks: 2 d0 2c
LayerCount: 2
Fore
SplineSet
1117 450 m 4xff90
 1031 450 979 361 979 273 c 4
 979 183 1033 93 1117 93 c 4
 1201 93 1258 185 1258 273 c 4
 1258 361 1204 450 1117 450 c 4xff90
1117 838 m 4
 1049 838 1009 762 1009 691 c 4
 1009 620 1048 546 1117 546 c 4
 1184 546 1225 620 1225 691 c 4xff60
 1225 762 1184 838 1117 838 c 4
1351 273 m 4xff10
 1351 131 1253 0 1117 0 c 4
 980 0 885 131 885 273 c 4xff90
 885 367 926 442 985 496 c 4
 989 500 990 502 990 504 c 4
 990 510 976 522 972 526 c 4
 934 573 916 627 916 691 c 4
 916 813 999 931 1117 931 c 4
 1236 931 1318 817 1318 691 c 4xff60
 1318 626 1300 570 1264 526 c 4
 1258 519 1246 511 1246 502 c 4
 1246 500 1247 498 1249 496 c 4
 1312 445 1351 361 1351 273 c 4xff10
420 979 m 4
 420 1066 356 1160 268 1160 c 6
 123 1160 l 6
 103 1160 93 1170 93 1189 c 4
 93 1326 93 1463 93 1600 c 4
 93 1620 103 1630 123 1630 c 6
 483 1630 l 6
 503 1630 513 1620 513 1600 c 6
 513 1565 l 6
 513 1546 503 1537 483 1537 c 6
 195 1537 l 6
 189 1537 186 1534 186 1528 c 6
 186 1262 l 6
 186 1256 189 1253 195 1253 c 6
 268 1253 l 6
 334 1253 395 1226 444 1169 c 4
 491 1114 513 1050 513 979 c 4
 513 834 406 699 268 699 c 6
 121 699 l 6
 102 699 93 708 93 727 c 6
 93 762 l 6
 93 782 102 792 121 792 c 6
 268 792 l 6
 357 792 420 890 420 979 c 4
1115 1589 m 6
 390 17 l 6
 384 5 376 0 364 0 c 6
 325 0 l 6
 304 0 293 7 293 20 c 0
 293 26 295 33 299 41 c 6
 1024 1613 l 6
 1028 1625 1037 1630 1050 1630 c 6
 1089 1630 l 6
 1110 1630 1120 1623 1120 1609 c 0
 1120 1603 1119 1597 1115 1589 c 6
EndSplineSet
Validated: 1
EndChar

StartChar: seveneighths
Encoding: 8542 8542 68
Width: 1443
VWidth: 2216
Flags: W
HStem: 0 93<1027.13 1207.41> 450 96<1038.87 1194.17> 838 93<1039.84 1194.17> 1537 93<186.002 465>
VStem: 93 93<1444 1537> 465 94<1430.61 1537> 885 94<140.537 403.265> 916 93<572.682 810.486> 1225 93<573.12 808.88> 1258 93<145.258 402.756>
CounterMasks: 1 e0
LayerCount: 2
Fore
SplineSet
1117 450 m 4xfe40
 1031 450 979 361 979 273 c 4
 979 183 1033 93 1117 93 c 4
 1201 93 1258 185 1258 273 c 4
 1258 361 1204 450 1117 450 c 4xfe40
1117 838 m 4
 1049 838 1009 762 1009 691 c 4
 1009 620 1048 546 1117 546 c 4
 1184 546 1225 620 1225 691 c 4xfd80
 1225 762 1184 838 1117 838 c 4
1351 273 m 4xfc40
 1351 131 1253 0 1117 0 c 4
 980 0 885 131 885 273 c 4xfe40
 885 367 926 442 985 496 c 4
 989 500 990 502 990 504 c 4
 990 510 976 522 972 526 c 4
 934 573 916 627 916 691 c 4
 916 813 999 931 1117 931 c 4
 1236 931 1318 817 1318 691 c 4xfd80
 1318 626 1300 570 1264 526 c 4
 1258 519 1246 511 1246 502 c 4
 1246 500 1247 498 1249 496 c 4
 1312 445 1351 361 1351 273 c 4xfc40
93 1472 m 6
 93 1600 l 6
 93 1620 102 1630 121 1630 c 6
 530 1630 l 6
 549 1630 559 1620 559 1600 c 6
 559 1481 l 5
 381 721 l 5
 375 707 366 699 353 699 c 6
 316 699 l 6
 296 699 286 707 286 722 c 0
 286 726 287 730 288 734 c 6
 465 1492 l 5
 465 1528 l 6
 465 1534 463 1537 457 1537 c 6
 195 1537 l 6
 189 1537 186 1534 186 1528 c 6
 186 1472 l 6
 186 1453 177 1444 158 1444 c 6
 121 1444 l 6
 102 1444 93 1453 93 1472 c 6
1067 1589 m 6
 342 17 l 6
 336 5 328 0 316 0 c 6
 277 0 l 6
 256 0 245 7 245 20 c 0
 245 26 247 33 251 41 c 6
 976 1613 l 6
 982 1625 990 1630 1002 1630 c 6
 1041 1630 l 6
 1062 1630 1073 1623 1073 1609 c 0
 1073 1603 1071 1597 1067 1589 c 6
EndSplineSet
Validated: 1
EndChar

StartChar: uni2170
Encoding: 8560 8560 69
Width: 279
VWidth: 2216
Flags: W
HStem: 0 21G<111.5 167.5> 0 21G<111.5 167.5> 1283 20G<111.5 167.5>
VStem: 93 93<0 1303>
LayerCount: 2
Fore
SplineSet
93 28 m 6xb0
 93 1275 l 6
 93 1294 102 1303 121 1303 c 6
 158 1303 l 6
 177 1303 186 1294 186 1275 c 6
 186 28 l 6
 186 9 177 0 158 0 c 6
 121 0 l 6
 102 0 93 9 93 28 c 6xb0
EndSplineSet
Validated: 1
EndChar

StartChar: trademark
Encoding: 8482 8482 70
Width: 1303
VWidth: 2216
Flags: W
HStem: 1210 93<93 278.999 372.002 559>
VStem: 279 93<559 1210> 699 93<559 1098.64> 1117 93<559 1098.64>
CounterMasks: 1 70
LayerCount: 2
Fore
SplineSet
1117 587 m 2
 1117 1093 l 2
 1117 1110 1112 1112 1102 1098 c 1
 981 881 l 2
 972 865 964 857 955 857 c 1
 929 881 l 1
 808 1098 l 1
 798 1112 792 1110 792 1093 c 2
 792 587 l 2
 792 568 782 559 762 559 c 2
 727 559 l 2
 708 559 699 568 699 587 c 2
 699 1275 l 2
 699 1294 708 1303 727 1303 c 2
 782 1303 l 2
 792 1303 801 1298 808 1288 c 1
 946 1039 l 2
 952 1030 957 1030 963 1039 c 2
 1102 1288 l 2
 1108 1298 1116 1303 1128 1303 c 2
 1182 1303 l 2
 1201 1303 1210 1294 1210 1275 c 2
 1210 587 l 2
 1210 568 1201 559 1182 559 c 2
 1147 559 l 2
 1127 559 1117 568 1117 587 c 2
372 1202 m 2
 372 587 l 2
 372 568 363 559 344 559 c 2
 307 559 l 2
 288 559 279 568 279 587 c 2
 279 1202 l 2
 279 1208 277 1210 271 1210 c 2
 121 1210 l 2
 102 1210 93 1220 93 1240 c 2
 93 1275 l 2
 93 1294 102 1303 121 1303 c 2
 530 1303 l 2
 549 1303 559 1294 559 1275 c 2
 559 1240 l 2
 559 1220 549 1210 530 1210 c 2
 381 1210 l 2
 375 1210 372 1208 372 1202 c 2
EndSplineSet
Validated: 1
EndChar

StartChar: .notdef
Encoding: 1114112 -1 71
Width: 1024
VWidth: 2216
Flags: W
HStem: 0 93<233 791> 606 93<467 560> 1210 93<233 791>
VStem: 140 93<93 1210> 467 93<606 699> 791 93<93 1210>
LayerCount: 2
Fore
SplineSet
884 1275 m 2
 884 28 l 2
 884 9 875 0 856 0 c 2
 168 0 l 2
 149 0 140 9 140 28 c 2
 140 1275 l 2
 140 1294 149 1303 168 1303 c 2
 856 1303 l 2
 875 1303 884 1294 884 1275 c 2
529 606 m 2
 495 606 l 2
 476 606 467 615 467 634 c 2
 467 669 l 2
 467 689 476 699 495 699 c 2
 529 699 l 2
 549 699 560 689 560 669 c 2
 560 634 l 2
 560 615 549 606 529 606 c 2
783 1210 m 2
 241 1210 l 2
 235 1210 233 1208 233 1202 c 2
 233 102 l 2
 233 96 235 93 241 93 c 2
 783 93 l 2
 789 93 791 96 791 102 c 2
 791 1202 l 2
 791 1208 789 1210 783 1210 c 2
EndSplineSet
Validated: 1
EndChar

StartChar: A
Encoding: 65 65 74
Width: 930
VWidth: 2216
Flags: W
HStem: 0 21G<118.5 173 759 812.5> 0 21G<118.5 173 759 812.5> 372 93<305.002 624.997> 1283 20G<432 497.5>
LayerCount: 2
Fore
SplineSet
102 37 m 1x70
 411 1282 l 2
 415 1296 425 1303 439 1303 c 2
 491 1303 l 2
 504 1303 515 1296 520 1282 c 1
 831 37 l 1
 832 33 832 29 832 26 c 0
 832 9 822 0 803 0 c 2
 766 0 l 2
 752 0 742 8 738 22 c 2
 654 362 l 2
 651 370 646 372 641 372 c 2
 290 372 l 2
 282 372 278 370 277 362 c 2
 193 22 l 2
 190 8 181 0 165 0 c 2
 128 0 l 2xb0
 109 0 99 7 99 21 c 0
 99 25 100 31 102 37 c 1x70
623 476 m 2
 474 1078 l 2
 473 1082 469 1085 464 1085 c 0
 459 1085 457 1082 457 1078 c 2
 307 476 l 1
 306 474 305 472 305 471 c 0
 305 468 308 465 316 465 c 2
 615 465 l 2
 621 465 625 468 625 472 c 0
 625 473 624 474 623 476 c 2
EndSplineSet
Validated: 1
EndChar

StartChar: B
Encoding: 66 66 75
Width: 837
VWidth: 2216
Flags: W
HStem: 0 93<186 541.851> 652 93<186 506.487> 1210 93<186 507.076>
VStem: 93 93<93 652 745 1210> 606 93<842.872 1112.78> 652 93<212.559 536.786>
LayerCount: 2
Fore
SplineSet
420 0 m 6xf4
 121 0 l 6
 102 0 93 9 93 28 c 6
 93 1275 l 6
 93 1294 102 1303 121 1303 c 6
 372 1303 l 6
 460 1303 538 1272 604 1208 c 4
 668 1144 699 1068 699 979 c 4xf8
 699 888 668 811 604 747 c 4
 600 743 578 725 568 716 c 4
 565 714 563 711 563 709 c 4
 563 707 564 706 569 704 c 5
 670 635 745 520 745 372 c 4
 745 178 606 0 420 0 c 6xf4
652 372 m 4xf4
 652 450 628 518 582 574 c 4
 534 626 481 652 420 652 c 6
 195 652 l 6
 189 652 186 649 186 643 c 6
 186 102 l 6
 186 96 189 93 195 93 c 6
 420 93 l 6
 555 93 652 228 652 372 c 4xf4
606 979 m 4xf8
 606 1105 501 1210 372 1210 c 6
 195 1210 l 6
 189 1210 186 1208 186 1202 c 6
 186 753 l 6
 186 747 189 745 195 745 c 6
 372 745 l 6
 499 745 606 850 606 979 c 4xf8
EndSplineSet
Validated: 1
EndChar

StartChar: C
Encoding: 67 67 76
Width: 744
VWidth: 2216
Flags: W
HStem: 0 93<256.789 652> 1210 93<256.789 652>
VStem: 93 93<163.789 1138.35>
LayerCount: 2
Fore
SplineSet
372 0 m 6
 217 0 93 124 93 279 c 6
 93 1024 l 6
 93 1177 217 1303 372 1303 c 6
 623 1303 l 6
 642 1303 652 1294 652 1275 c 6
 652 1240 l 6
 652 1220 642 1210 623 1210 c 6
 372 1210 l 6
 269 1210 186 1124 186 1024 c 6
 186 279 l 6
 186 177 270 93 372 93 c 6
 623 93 l 6
 642 93 652 84 652 65 c 6
 652 28 l 6
 652 9 642 0 623 0 c 6
 372 0 l 6
EndSplineSet
Validated: 1
EndChar

StartChar: D
Encoding: 68 68 77
Width: 837
VWidth: 2216
Flags: W
HStem: 0 93<186 583.004> 1210 93<186 583.834>
VStem: 93 93<93 1210> 652 93<163.789 1138.35>
LayerCount: 2
Fore
SplineSet
745 279 m 6
 745 124 618 0 465 0 c 6
 121 0 l 6
 102 0 93 9 93 28 c 6
 93 1275 l 6
 93 1294 102 1303 121 1303 c 6
 465 1303 l 6
 618 1303 745 1177 745 1024 c 6
 745 279 l 6
465 93 m 6
 566 93 652 176 652 279 c 6
 652 1024 l 6
 652 1124 568 1210 465 1210 c 6
 195 1210 l 6
 189 1210 186 1208 186 1202 c 6
 186 102 l 6
 186 96 189 93 195 93 c 6
 465 93 l 6
EndSplineSet
Validated: 1
EndChar

StartChar: E
Encoding: 69 69 78
Width: 744
VWidth: 2216
Flags: W
HStem: 0 93<186 652> 652 93<186 465> 1210 93<186 652>
VStem: 93 93<93 652 745 1210>
LayerCount: 2
Fore
SplineSet
195 745 m 6
 437 745 l 6
 456 745 465 736 465 717 c 6
 465 680 l 6
 465 661 456 652 437 652 c 6
 195 652 l 6
 189 652 186 649 186 643 c 6
 186 102 l 6
 186 96 189 93 195 93 c 6
 623 93 l 6
 642 93 652 84 652 65 c 6
 652 28 l 6
 652 9 642 0 623 0 c 6
 121 0 l 6
 102 0 93 9 93 28 c 6
 93 1275 l 6
 93 1294 102 1303 121 1303 c 6
 623 1303 l 6
 642 1303 652 1294 652 1275 c 6
 652 1240 l 6
 652 1220 642 1210 623 1210 c 6
 195 1210 l 6
 189 1210 186 1208 186 1202 c 6
 186 753 l 6
 186 747 189 745 195 745 c 6
EndSplineSet
Validated: 1
EndChar

StartChar: F
Encoding: 70 70 79
Width: 744
VWidth: 2216
Flags: W
HStem: 0 21G<111.5 167.5> 0 21G<111.5 167.5> 652 93<186.002 652> 1210 93<186.002 652>
VStem: 93 93<0 652 745 1210>
LayerCount: 2
Fore
SplineSet
195 745 m 2xb8
 623 745 l 2
 642 745 652 736 652 717 c 2
 652 680 l 2
 652 661 642 652 623 652 c 2
 195 652 l 2
 189 652 186 649 186 643 c 2
 186 28 l 2
 186 9 177 0 158 0 c 2
 121 0 l 2
 102 0 93 9 93 28 c 2
 93 1275 l 2
 93 1294 102 1303 121 1303 c 2
 623 1303 l 2
 642 1303 652 1294 652 1275 c 2
 652 1240 l 2
 652 1220 642 1210 623 1210 c 2
 195 1210 l 2
 189 1210 186 1208 186 1202 c 2
 186 753 l 2
 186 747 189 745 195 745 c 2xb8
EndSplineSet
Validated: 1
EndChar

StartChar: G
Encoding: 71 71 80
Width: 837
VWidth: 2216
Flags: W
HStem: 0 93<256.789 652> 652 93<465 652> 1210 93<256.789 745>
VStem: 93 93<160.988 1141.18> 465 280<652.007 745> 652 93<93 651.998>
LayerCount: 2
Fore
SplineSet
93 1024 m 6xf4
 93 1176 217 1303 372 1303 c 6
 717 1303 l 6
 736 1303 745 1294 745 1275 c 6
 745 1240 l 6
 745 1220 736 1210 717 1210 c 6
 372 1210 l 6
 269 1210 186 1124 186 1024 c 6
 186 279 l 6
 186 177 270 93 372 93 c 6
 643 93 l 6
 649 93 652 96 652 102 c 6
 652 643 l 6xf4
 652 649 649 652 643 652 c 6
 494 652 l 6
 475 652 465 661 465 680 c 6
 465 717 l 6
 465 736 475 745 494 745 c 6
 717 745 l 6
 736 745 745 736 745 717 c 6xf8
 745 28 l 6
 745 9 736 0 717 0 c 6
 372 0 l 6
 217 0 93 127 93 279 c 6
 93 1024 l 6xf4
EndSplineSet
Validated: 1
EndChar

StartChar: H
Encoding: 72 72 81
Width: 837
VWidth: 2216
Flags: W
HStem: 0 21G<111.5 167.5 670.5 726.5> 0 21G<111.5 167.5 670.5 726.5> 652 93<186.002 651.998> 1283 20G<111.5 167.5 670.5 726.5>
VStem: 93 93<0 652 745 1303> 652 93<0 652 745 1303>
LayerCount: 2
Fore
SplineSet
93 28 m 6xbc
 93 1275 l 6
 93 1294 102 1303 121 1303 c 6
 158 1303 l 6
 177 1303 186 1294 186 1275 c 6
 186 753 l 6
 186 747 189 745 195 745 c 6
 643 745 l 6
 649 745 652 747 652 753 c 6
 652 1275 l 6
 652 1294 661 1303 680 1303 c 6
 717 1303 l 6
 736 1303 745 1294 745 1275 c 6
 745 28 l 6
 745 9 736 0 717 0 c 6
 680 0 l 6
 661 0 652 9 652 28 c 6
 652 643 l 6
 652 649 649 652 643 652 c 6
 195 652 l 6
 189 652 186 649 186 643 c 6
 186 28 l 6
 186 9 177 0 158 0 c 6
 121 0 l 6
 102 0 93 9 93 28 c 6xbc
EndSplineSet
Validated: 1
EndChar

StartChar: I
Encoding: 73 73 82
Width: 279
VWidth: 2216
Flags: W
HStem: 0 21G<111.5 167.5> 0 21G<111.5 167.5> 1283 20G<111.5 167.5>
VStem: 93 93<0 1303>
LayerCount: 2
Fore
SplineSet
186 1275 m 2xb0
 186 28 l 2
 186 9 177 0 158 0 c 2
 121 0 l 2
 102 0 93 9 93 28 c 2
 93 1275 l 2
 93 1294 102 1303 121 1303 c 2
 158 1303 l 2
 177 1303 186 1294 186 1275 c 2xb0
EndSplineSet
Validated: 1
EndChar

StartChar: J
Encoding: 74 74 83
Width: 651
VWidth: 2216
Flags: W
HStem: 0 93<93 393.526> 1283 20G<484.5 539.5>
VStem: 465 94<163.789 1303>
LayerCount: 2
Fore
SplineSet
279 93 m 2
 379 93 465 176 465 279 c 2
 465 1275 l 2
 465 1294 475 1303 494 1303 c 2
 530 1303 l 2
 549 1303 559 1294 559 1275 c 2
 559 279 l 2
 559 124 432 0 279 0 c 2
 121 0 l 2
 102 0 93 9 93 28 c 2
 93 65 l 2
 93 84 102 93 121 93 c 2
 279 93 l 2
EndSplineSet
Validated: 1
EndChar

StartChar: K
Encoding: 75 75 84
Width: 837
VWidth: 2216
Flags: W
HStem: 0 21G<111.5 167.5 656 714.5> 0 21G<111.5 167.5 656 714.5> 1283 20G<111.5 167.5 652 711.5>
VStem: 93 93<0 517.25 649 1303>
LayerCount: 2
Fore
SplineSet
201 643 m 2xb0
 634 1290 l 2
 638 1299 646 1303 658 1303 c 2
 701 1303 l 2
 722 1303 733 1296 733 1283 c 0
 733 1276 730 1268 725 1258 c 1
 370 727 l 2
 367 723 367 718 370 714 c 2
 727 43 l 2
 732 33 735 25 735 19 c 0
 735 6 725 0 704 0 c 2
 662 0 l 2
 650 0 643 5 639 15 c 2
 314 621 l 2
 310 631 305 631 299 621 c 2
 188 455 l 2
 187 454 186 451 186 448 c 2
 186 28 l 2
 186 9 177 0 158 0 c 2
 121 0 l 2
 102 0 93 9 93 28 c 2
 93 1275 l 2
 93 1294 102 1303 121 1303 c 2
 158 1303 l 2
 177 1303 186 1294 186 1275 c 2
 186 649 l 2
 186 629 191 627 201 643 c 2xb0
EndSplineSet
Validated: 1
EndChar

StartChar: L
Encoding: 76 76 85
Width: 651
VWidth: 2216
Flags: W
HStem: 0 93<186 559> 1283 20G<111.5 167.5>
VStem: 93 93<93 1303>
LayerCount: 2
Fore
SplineSet
93 28 m 2
 93 1275 l 2
 93 1294 102 1303 121 1303 c 2
 158 1303 l 2
 177 1303 186 1294 186 1275 c 2
 186 102 l 2
 186 96 189 93 195 93 c 2
 530 93 l 2
 549 93 559 84 559 65 c 2
 559 28 l 2
 559 9 549 0 530 0 c 2
 121 0 l 2
 102 0 93 9 93 28 c 2
EndSplineSet
Validated: 1
EndChar

StartChar: M
Encoding: 77 77 86
Width: 1024
VWidth: 2216
Flags: W
HStem: 0 21G<111.5 167.5 858 912.5> 0 21G<111.5 167.5 858 912.5> 1283 20G<111.5 184 843 912.5>
VStem: 93 93<0 1103.95> 838 93<0 1111>
LayerCount: 2
Fore
SplineSet
838 28 m 2xb8
 838 1095 l 1
 838 1105 837 1111 834 1111 c 0
 831 1111 828 1107 823 1100 c 1
 537 602 l 2
 520 572 503 572 487 602 c 2
 204 1100 l 2
 201 1104 197 1105 193 1104 c 0
 189 1103 186 1099 186 1095 c 2
 186 28 l 2
 186 9 177 0 158 0 c 2
 121 0 l 2
 102 0 93 9 93 28 c 2
 93 1275 l 2
 93 1294 102 1303 121 1303 c 2
 178 1303 l 2
 190 1303 197 1298 201 1288 c 2
 504 760 l 2
 510 750 516 750 520 760 c 2
 823 1288 l 2
 829 1298 837 1303 849 1303 c 2
 903 1303 l 2
 922 1303 931 1294 931 1275 c 2
 931 28 l 2
 931 9 922 0 903 0 c 2
 868 0 l 2
 848 0 838 9 838 28 c 2xb8
EndSplineSet
Validated: 1
EndChar

StartChar: N
Encoding: 78 78 87
Width: 837
VWidth: 2216
Flags: W
HStem: 0 21G<111.5 167.5 670.5 726.5> 0 21G<111.5 167.5 670.5 726.5> 1283 20G<111.5 167.5 670.5 726.5>
VStem: 93 93<0 1012.95 1173.06 1303> 652 93<0 39 290.049 1303>
LayerCount: 2
Fore
SplineSet
652 39 m 2xb8
 204 1009 l 2
 201 1013 197 1014 193 1013 c 0
 189 1012 186 1009 186 1005 c 2
 186 28 l 2
 186 9 177 0 158 0 c 2
 121 0 l 2
 102 0 93 9 93 28 c 2
 93 1275 l 2
 93 1294 102 1303 121 1303 c 2
 158 1303 l 2
 177 1303 186 1294 186 1275 c 0
 186 1271 187 1267 188 1264 c 2
 634 294 l 2
 635 290 639 289 644 290 c 0
 649 291 652 295 652 299 c 2
 652 1275 l 2
 652 1294 661 1303 680 1303 c 6
 717 1303 l 2
 736 1303 745 1294 745 1275 c 2
 745 28 l 2
 745 9 736 0 717 0 c 2
 680 0 l 2
 661 0 652 9 652 28 c 0
 652 30 652 31 652 34 c 0
 652 37 652 37 652 39 c 2xb8
EndSplineSet
Validated: 1
EndChar

StartChar: O
Encoding: 79 79 88
Width: 837
VWidth: 2216
Flags: W
HStem: 0 93<268.617 567.897> 1210 93<270.555 568.119>
VStem: 93 93<173.024 1129.15> 652 93<173.436 1128.74>
LayerCount: 2
Fore
SplineSet
420 1210 m 256
 303 1210 186 1136 186 1024 c 2
 186 279 l 2
 186 166 303 93 420 93 c 256
 537 93 652 167 652 279 c 2
 652 1024 l 2
 652 1135 537 1210 420 1210 c 256
420 0 m 0
 252 0 93 116 93 279 c 2
 93 1024 l 2
 93 1185 251 1303 420 1303 c 0
 586 1303 745 1184 745 1024 c 2
 745 279 l 2
 745 117 585 0 420 0 c 0
EndSplineSet
Validated: 1
EndChar

StartChar: P
Encoding: 80 80 89
Width: 837
VWidth: 2216
Flags: W
HStem: 0 21G<111.5 167.5> 0 21G<111.5 167.5> 559 93<186.002 541.851> 1210 93<186.002 541.851>
VStem: 93 93<0 559 652 1210> 652 93<771.559 1093.58>
LayerCount: 2
Fore
SplineSet
745 931 m 0xbc
 745 737 606 559 420 559 c 2
 195 559 l 2
 189 559 186 556 186 550 c 2
 186 28 l 2
 186 9 177 0 158 0 c 2
 121 0 l 2
 102 0 93 9 93 28 c 2
 93 1275 l 2
 93 1294 102 1303 121 1303 c 2
 420 1303 l 2
 606 1303 745 1123 745 931 c 0xbc
652 931 m 0
 652 1073 558 1210 420 1210 c 2
 195 1210 l 2
 189 1210 186 1208 186 1202 c 2
 186 660 l 2
 186 654 189 652 195 652 c 2
 420 652 l 2
 555 652 652 787 652 931 c 0
EndSplineSet
Validated: 1
EndChar

StartChar: Q
Encoding: 81 81 90
Width: 871
VWidth: 2216
Flags: W
HStem: 0 93<270.288 555.388> 1210 93<270.066 566.817>
VStem: 93 93<173.436 1128.74> 652 93<211.078 1129.15>
LayerCount: 2
Fore
SplineSet
418 1210 m 256
 303 1210 186 1135 186 1024 c 2
 186 279 l 2
 186 167 303 93 418 93 c 0
 467 93 512 105 554 128 c 0
 561 131 563 137 556 143 c 2
 409 273 l 2
 395 286 394 300 407 314 c 2
 431 340 l 2
 444 353 458 354 472 342 c 2
 621 208 l 1
 625 202 630 203 634 210 c 0
 646 233 652 256 652 279 c 2
 652 1024 l 2
 652 1136 533 1210 418 1210 c 256
418 1303 m 256
 586 1303 745 1185 745 1024 c 2
 745 279 l 2
 745 230 731 185 704 145 c 0
 703 142 703 138 706 132 c 1
 799 50 l 1
 805 44 807 36 807 29 c 0
 807 14 796 0 779 0 c 2
 727 0 l 2
 718 0 712 2 708 6 c 2
 643 63 l 2
 637 69 632 69 628 65 c 0
 567 22 497 0 418 0 c 0
 252 0 93 117 93 279 c 2
 93 1024 l 2
 93 1184 251 1303 418 1303 c 256
EndSplineSet
Validated: 1
EndChar

StartChar: R
Encoding: 82 82 91
Width: 837
VWidth: 2216
Flags: W
HStem: 0 21G<111.5 167.5 662.5 722.5> 0 21G<111.5 167.5 662.5 722.5> 559 93<186.002 393.859> 1210 93<186.002 541.851>
VStem: 93 93<0 559 652 1210> 652 93<770.469 1093.37>
LayerCount: 2
Fore
SplineSet
745 931 m 0xbc
 745 758 641 610 498 569 c 4
 495 568 490 567 490 563 c 0
 490 562 490 561 491 559 c 4
 734 41 l 1
 746 14 737 0 708 0 c 2
 669 0 l 2
 656 0 647 5 643 17 c 2
 394 552 l 2
 391 556 387 559 381 559 c 2
 195 559 l 2
 189 559 186 556 186 550 c 2
 186 28 l 2
 186 9 177 0 158 0 c 2
 121 0 l 2
 102 0 93 9 93 28 c 2
 93 1275 l 2
 93 1294 102 1303 121 1303 c 2
 420 1303 l 2
 606 1303 745 1123 745 931 c 0xbc
652 931 m 0
 652 1072 556 1210 420 1210 c 2
 195 1210 l 2
 189 1210 186 1208 186 1202 c 2
 186 660 l 2
 186 654 189 652 195 652 c 2
 420 652 l 2
 555 652 652 789 652 931 c 0
EndSplineSet
Validated: 1
EndChar

StartChar: S
Encoding: 83 83 92
Width: 837
VWidth: 2216
Flags: W
HStem: 0 93<239.36 571.844> 1210 93<263.417 596.332>
VStem: 92 93<894.452 1137.75> 651 93<169.628 408.938>
LayerCount: 2
Fore
SplineSet
744 279 m 0
 744 111 594 0 419 0 c 0
 291 0 161 57 101 130 c 0
 94 138 91 146 91 152 c 0
 91 160 96 167 107 173 c 2
 138 191 l 2
 152 200 166 198 175 186 c 0
 216 133 329 93 419 93 c 0
 539 93 651 161 651 279 c 0
 651 345 622 404 566 455 c 2
 207 779 l 2
 131 848 92 930 92 1024 c 0
 92 1191 241 1303 419 1303 c 0
 544 1303 675 1247 735 1173 c 0
 742 1165 745 1158 745 1152 c 0
 745 1144 740 1136 729 1130 c 2
 698 1113 l 2
 685 1104 673 1105 662 1117 c 0
 617 1168 509 1210 419 1210 c 0
 292 1210 185 1140 185 1024 c 0
 185 956 215 899 270 849 c 2
 629 524 l 2
 705 456 744 374 744 279 c 0
EndSplineSet
Validated: 1
EndChar

StartChar: T
Encoding: 84 84 93
Width: 837
VWidth: 2216
Flags: W
HStem: 0 21G<391.5 446.5> 0 21G<391.5 446.5> 1210 93<93 371.999 465.002 745>
VStem: 372 93<0 1210>
LayerCount: 2
Fore
SplineSet
372 28 m 2xb0
 372 1202 l 2
 372 1208 370 1210 364 1210 c 2
 121 1210 l 2
 102 1210 93 1220 93 1240 c 2
 93 1275 l 2
 93 1294 102 1303 121 1303 c 2
 717 1303 l 2
 736 1303 745 1294 745 1275 c 2
 745 1240 l 2
 745 1220 736 1210 717 1210 c 2
 474 1210 l 2
 468 1210 465 1208 465 1202 c 2
 465 28 l 2
 465 9 456 0 437 0 c 2
 401 0 l 2
 382 0 372 9 372 28 c 2xb0
EndSplineSet
Validated: 1
EndChar

StartChar: U
Encoding: 85 85 94
Width: 837
VWidth: 2216
Flags: W
HStem: 0 93<268.617 567.897> 1283 20G<111.5 167.5 670.5 726.5>
VStem: 93 93<173.024 1303> 652 93<173.436 1303>
LayerCount: 2
Fore
SplineSet
420 0 m 0
 252 0 93 116 93 279 c 2
 93 1275 l 2
 93 1294 102 1303 121 1303 c 2
 158 1303 l 2
 177 1303 186 1294 186 1275 c 2
 186 279 l 2
 186 166 303 93 420 93 c 256
 537 93 652 167 652 279 c 2
 652 1275 l 2
 652 1294 661 1303 680 1303 c 2
 717 1303 l 2
 736 1303 745 1294 745 1275 c 2
 745 279 l 2
 745 117 585 0 420 0 c 0
EndSplineSet
Validated: 1
EndChar

StartChar: V
Encoding: 86 86 95
Width: 920
VWidth: 2216
Flags: W
HStem: 0 21G<427 492.5> 0 21G<427 492.5> 1283 20G<112.5 167 754 808>
LayerCount: 2
Fore
SplineSet
826 1269 m 2xa0
 514 22 l 1
 508 8 499 0 486 0 c 2
 434 0 l 2
 420 0 410 8 406 22 c 2
 96 1269 l 1
 94 1275 93 1280 93 1284 c 0
 93 1297 103 1303 122 1303 c 2
 159 1303 l 2
 175 1303 184 1296 187 1282 c 2
 451 225 l 2
 451 221 454 219 459 219 c 0
 464 219 468 221 469 225 c 2
 733 1282 l 2
 737 1296 747 1303 761 1303 c 2
 798 1303 l 2
 818 1303 828 1296 828 1281 c 0
 828 1277 827 1273 826 1269 c 2xa0
EndSplineSet
Validated: 1
EndChar

StartChar: W
Encoding: 87 87 96
Width: 1298
VWidth: 2216
Flags: W
HStem: 0 21G<347.5 391 909.5 952> 0 21G<347.5 391 909.5 952> 1283 20G<112.5 167 1132.5 1188>
LayerCount: 2
Fore
SplineSet
1206 1269 m 1xa0
 973 24 l 2
 970 8 960 0 944 0 c 2
 916 0 l 2
 903 0 894 6 890 19 c 2
 659 712 l 2
 658 716 654 719 649 719 c 0
 644 719 641 716 641 712 c 2
 410 19 l 2
 407 6 398 0 384 0 c 2
 356 0 l 2
 339 0 328 8 327 24 c 1
 94 1269 l 2
 94 1272 93 1274 93 1276 c 0
 93 1294 103 1303 122 1303 c 2
 159 1303 l 2
 175 1303 184 1295 187 1279 c 2
 377 264 l 2
 377 260 380 258 385 258 c 0
 390 258 394 260 395 264 c 2
 600 879 l 2
 604 892 613 898 626 898 c 2
 674 898 l 2
 688 898 697 892 700 879 c 2
 905 264 l 2
 906 260 910 258 915 258 c 0
 920 258 923 260 923 264 c 2
 1113 1279 l 1
 1114 1295 1124 1303 1141 1303 c 2
 1178 1303 l 2
 1198 1303 1207 1292 1206 1269 c 1xa0
EndSplineSet
Validated: 1
EndChar

StartChar: X
Encoding: 88 88 97
Width: 930
VWidth: 2216
Flags: W
HStem: 0 21G<124.5 180 751.5 807.5> 0 21G<124.5 180 751.5 807.5> 1283 20G<124.5 180 751.5 807.5>
VStem: 103 97<0 15 1288 1303> 732 96<0 15 1288 1303>
LayerCount: 2
Fore
SplineSet
109 41 m 2xb8
 410 643 l 2
 413 649 413 654 410 660 c 2
 109 1262 l 2
 105 1270 103 1277 103 1283 c 0
 103 1296 114 1303 135 1303 c 2
 174 1303 l 2
 186 1303 194 1298 200 1288 c 2
 457 771 l 2
 463 762 469 762 475 771 c 2
 732 1288 l 2
 736 1298 745 1303 758 1303 c 2
 797 1303 l 2
 818 1303 828 1296 828 1282 c 0
 828 1276 826 1270 823 1262 c 1
 522 660 l 2
 519 654 519 649 522 643 c 2
 823 41 l 1
 826 33 828 27 828 21 c 0x78
 828 7 818 0 797 0 c 2
 758 0 l 2
 745 0 736 5 732 15 c 2
 475 533 l 2
 469 542 463 542 457 533 c 2
 200 15 l 2
 194 5 186 0 174 0 c 2
 135 0 l 2
 114 0 103 7 103 20 c 0
 103 26 105 33 109 41 c 2xb8
EndSplineSet
Validated: 1
EndChar

StartChar: Y
Encoding: 89 89 98
Width: 930
VWidth: 2216
Flags: W
HStem: 0 21G<439.5 493> 0 21G<439.5 493> 1283 20G<124.5 180 751.5 807.5>
VStem: 420 94<0 645>
LayerCount: 2
Fore
SplineSet
420 28 m 2xb0
 420 636 l 2
 420 637 420 640 419 641 c 0
 418 642 418 644 418 645 c 2
 109 1262 l 2
 105 1270 103 1277 103 1283 c 0
 103 1296 114 1303 135 1303 c 2
 174 1303 l 2
 186 1303 194 1298 200 1288 c 2
 457 771 l 2
 463 762 469 762 475 771 c 2
 732 1288 l 2
 736 1298 745 1303 758 1303 c 2
 797 1303 l 2
 818 1303 828 1296 828 1282 c 0
 828 1276 826 1270 823 1262 c 1
 514 645 l 2
 514 643 514 643 514 641 c 0
 514 639 514 638 514 636 c 2
 514 28 l 2
 514 9 503 0 483 0 c 2
 449 0 l 2
 430 0 420 9 420 28 c 2xb0
EndSplineSet
Validated: 1
EndChar

StartChar: Z
Encoding: 90 90 99
Width: 837
VWidth: 2216
Flags: W
HStem: 0 93<196.864 745> 1210 93<93 642.121>
VStem: 93 652<0 92.9934 1210.01 1303>
LayerCount: 2
Fore
SplineSet
632 1210 m 2
 121 1210 l 2
 102 1210 93 1220 93 1240 c 2
 93 1275 l 2
 93 1294 102 1303 121 1303 c 2
 717 1303 l 2
 736 1303 745 1294 745 1275 c 2
 745 1206 l 2
 745 1200 744 1196 743 1195 c 2
 197 106 l 1
 194 97 197 93 206 93 c 2
 717 93 l 2
 736 93 745 84 745 65 c 2
 745 28 l 2
 745 9 736 0 717 0 c 2
 121 0 l 2
 102 0 93 9 93 28 c 2
 93 97 l 2
 93 103 94 107 95 110 c 2
 641 1197 l 1
 644 1206 641 1210 632 1210 c 2
EndSplineSet
Validated: 1
EndChar

StartChar: a
Encoding: 97 97 100
Width: 837
VWidth: 2216
Flags: W
HStem: 0 93<236.902 507.814 665.874 745> 838 93<238.053 559>
VStem: 93 93<145.41 786.9> 559 93<143.242 838>
LayerCount: 2
Fore
SplineSet
93 699 m 2
 93 834 229 931 372 931 c 2
 623 931 l 2
 642 931 652 922 652 903 c 2
 652 186 l 2
 652 141 683 104 723 95 c 0
 737 92 745 83 745 67 c 2
 745 32 l 2
 745 10 733 -2 710 2 c 0
 661 10 615 38 595 78 c 0
 590 88 572 70 565 65 c 0
 509 22 444 0 372 0 c 0
 230 0 93 98 93 234 c 2
 93 699 l 2
372 93 m 0
 461 93 559 146 559 234 c 2
 559 829 l 2
 559 835 556 838 550 838 c 2
 372 838 l 2
 282 838 186 784 186 699 c 2
 186 234 l 2
 186 146 281 93 372 93 c 0
EndSplineSet
Validated: 1
EndChar

StartChar: b
Encoding: 98 98 101
Width: 744
VWidth: 2216
Flags: W
HStem: 0 93<186 520.525> 838 93<186 520.089> 1283 20G<111.5 167.5>
VStem: 93 93<93 838 931 1303> 559 93<132.614 799.089>
LayerCount: 2
Fore
SplineSet
652 234 m 2
 652 104 548 0 420 0 c 2
 121 0 l 2
 102 0 93 9 93 28 c 2
 93 1275 l 2
 93 1294 102 1303 121 1303 c 2
 158 1303 l 2
 177 1303 186 1294 186 1275 c 2
 186 940 l 2
 186 934 189 931 195 931 c 2
 420 931 l 2
 547 931 652 826 652 699 c 2
 652 234 l 2
559 699 m 2
 559 775 496 838 420 838 c 2
 195 838 l 2
 189 838 186 835 186 829 c 2
 186 102 l 2
 186 96 189 93 195 93 c 2
 420 93 l 2
 497 93 559 158 559 234 c 2
 559 699 l 2
EndSplineSet
Validated: 1
EndChar

StartChar: c
Encoding: 99 99 102
Width: 651
VWidth: 2216
Flags: W
HStem: 0 93<225.347 559> 838 93<225.387 559>
VStem: 93 93<132.654 799.089>
LayerCount: 2
Fore
SplineSet
93 699 m 2
 93 826 197 931 325 931 c 6
 530 931 l 2
 549 931 559 922 559 903 c 2
 559 866 l 2
 559 847 549 838 530 838 c 2
 325 838 l 2
 251 838 186 775 186 699 c 2
 186 234 l 2
 186 158 249 93 325 93 c 2
 530 93 l 2
 549 93 559 84 559 65 c 2
 559 28 l 2
 559 9 549 0 530 0 c 2
 325 0 l 2
 199 0 93 105 93 234 c 2
 93 699 l 2
EndSplineSet
Validated: 1
EndChar

StartChar: d
Encoding: 100 100 103
Width: 744
VWidth: 2216
Flags: W
HStem: 0 93<225.251 559> 838 93<225.654 559> 1283 20G<577.5 632.5>
VStem: 93 93<133.089 798.653> 559 93<93 838 931.002 1303>
LayerCount: 2
Fore
SplineSet
93 699 m 2
 93 825 198 931 327 931 c 2
 550 931 l 2
 556 931 559 934 559 940 c 2
 559 1275 l 2
 559 1294 568 1303 587 1303 c 2
 623 1303 l 2
 642 1303 652 1294 652 1275 c 2
 652 28 l 2
 652 9 642 0 623 0 c 2
 327 0 l 2
 197 0 93 106 93 234 c 2
 93 699 l 2
186 234 m 2
 186 157 250 93 327 93 c 2
 550 93 l 2
 556 93 559 96 559 102 c 2
 559 829 l 2
 559 835 556 838 550 838 c 2
 327 838 l 2
 251 838 186 776 186 699 c 2
 186 234 l 2
EndSplineSet
Validated: 1
EndChar

StartChar: e
Encoding: 101 101 104
Width: 744
VWidth: 2216
Flags: W
HStem: 0 93<202.766 652> 420 93<186 559> 838 93<236.848 507.004>
VStem: 93 93<109.766 420 513 786.9> 559 93<513 786.9>
LayerCount: 2
Fore
SplineSet
372 838 m 0
 282 838 186 784 186 699 c 2
 186 522 l 2
 186 516 189 513 195 513 c 2
 550 513 l 2
 556 513 559 516 559 522 c 2
 559 699 l 2
 559 784 460 838 372 838 c 0
372 931 m 0
 514 931 652 834 652 699 c 2
 652 448 l 2
 652 429 642 420 623 420 c 2
 195 420 l 2
 189 420 186 417 186 411 c 2
 186 186 l 2
 186 134 227 93 279 93 c 2
 623 93 l 2
 642 93 652 84 652 65 c 2
 652 28 l 2
 652 9 642 0 623 0 c 2
 279 0 l 2
 177 0 93 84 93 186 c 2
 93 699 l 2
 93 834 229 931 372 931 c 0
EndSplineSet
Validated: 1
EndChar

StartChar: f
Encoding: 102 102 105
Width: 558
VWidth: 2216
Flags: W
HStem: 0 21G<204.5 260.5> 0 21G<204.5 260.5> 838 93<93 185.999 279.002 465> 1210 93<295.336 465>
VStem: 186 93<0 837.998 931.002 1192.8>
LayerCount: 2
Fore
SplineSet
186 1117 m 2xb8
 186 1218 269 1303 372 1303 c 2
 437 1303 l 2
 456 1303 465 1294 465 1275 c 2
 465 1240 l 2
 465 1220 456 1210 437 1210 c 2
 372 1210 l 2
 320 1210 279 1168 279 1117 c 2
 279 940 l 2
 279 934 282 931 288 931 c 2
 437 931 l 2
 456 931 465 922 465 903 c 2
 465 868 l 2
 465 848 456 838 437 838 c 2
 288 838 l 2
 282 838 279 835 279 829 c 2
 279 28 l 2
 279 9 270 0 251 0 c 2
 214 0 l 2
 195 0 186 9 186 28 c 2
 186 829 l 2
 186 835 184 838 178 838 c 2
 121 838 l 2
 102 838 93 848 93 868 c 2
 93 903 l 2
 93 922 102 931 121 931 c 2
 178 931 l 2
 184 931 186 934 186 940 c 2
 186 1117 l 2xb8
EndSplineSet
Validated: 1
EndChar

StartChar: g
Encoding: 103 103 106
Width: 744
VWidth: 2216
Flags: W
HStem: -370 93<93 540.979> 0 93<225.347 559> 838 93<225.387 559>
VStem: 93 93<132.654 799.089> 559 93<-259.804 0 93 838>
LayerCount: 2
Fore
SplineSet
652 -184 m 2
 652 -285 566 -370 465 -370 c 2
 121 -370 l 2
 102 -370 93 -361 93 -342 c 2
 93 -305 l 2
 93 -286 102 -277 121 -277 c 2
 465 -277 l 2
 515 -277 559 -234 559 -184 c 2
 559 -6 l 2
 559 -2 556 0 550 0 c 2
 325 0 l 2
 199 0 93 105 93 234 c 2
 93 699 l 2
 93 826 197 931 325 931 c 2
 623 931 l 2
 642 931 652 922 652 903 c 2
 652 -184 l 2
186 234 m 2
 186 158 249 93 325 93 c 2
 550 93 l 2
 556 93 559 96 559 102 c 2
 559 829 l 2
 559 835 556 838 550 838 c 2
 325 838 l 2
 251 838 186 775 186 699 c 2
 186 234 l 2
EndSplineSet
Validated: 1
EndChar

StartChar: h
Encoding: 104 104 107
Width: 744
VWidth: 2216
Flags: W
HStem: 0 21G<111.5 167.5 577.5 632.5> 0 21G<111.5 167.5 577.5 632.5> 838 93<186.002 519.613> 1283 20G<111.5 167.5>
VStem: 93 93<0 838 931 1303> 559 93<0 799.089>
LayerCount: 2
Fore
SplineSet
420 931 m 2xbc
 547 931 652 826 652 699 c 2
 652 28 l 2
 652 9 642 0 623 0 c 2
 587 0 l 2
 568 0 559 9 559 28 c 2
 559 699 l 2
 559 775 494 838 420 838 c 2
 195 838 l 2
 189 838 186 835 186 829 c 2
 186 28 l 2
 186 9 177 0 158 0 c 2
 121 0 l 2
 102 0 93 9 93 28 c 2
 93 1275 l 2
 93 1294 102 1303 121 1303 c 2
 158 1303 l 2
 177 1303 186 1294 186 1275 c 2
 186 940 l 2
 186 934 189 931 195 931 c 2
 420 931 l 2xbc
EndSplineSet
Validated: 1
EndChar

StartChar: i
Encoding: 105 105 108
Width: 279
VWidth: 2216
Flags: W
HStem: 0 21G<111.5 167.5> 0 21G<111.5 167.5> 911 20G<111.5 167.5> 1210 93<93 186>
VStem: 93 93<0 931 1210 1303>
LayerCount: 2
Fore
SplineSet
186 1275 m 2x38
 186 1240 l 2
 186 1220 177 1210 158 1210 c 2
 121 1210 l 2
 102 1210 93 1220 93 1240 c 2
 93 1275 l 2
 93 1294 102 1303 121 1303 c 2
 158 1303 l 2
 177 1303 186 1294 186 1275 c 2x38
186 903 m 2
 186 28 l 2
 186 9 177 0 158 0 c 2
 121 0 l 2xb8
 102 0 93 9 93 28 c 2
 93 903 l 2
 93 922 102 931 121 931 c 2
 158 931 l 2
 177 931 186 922 186 903 c 2
EndSplineSet
Validated: 1
EndChar

StartChar: j
Encoding: 106 106 109
Width: 418
VWidth: 2216
Flags: W
HStem: -370 93<46 214.804> 911 20G<250.5 306.5> 1210 93<232.007 325>
VStem: 232 93<-259.804 931 1210 1303>
LayerCount: 2
Fore
SplineSet
325 -184 m 2
 325 -285 240 -370 139 -370 c 2
 74 -370 l 2
 55 -370 46 -361 46 -342 c 2
 46 -305 l 2
 46 -286 55 -277 74 -277 c 2
 139 -277 l 2
 189 -277 232 -234 232 -184 c 2
 232 903 l 2
 232 922 241 931 260 931 c 2
 297 931 l 2
 316 931 325 922 325 903 c 2
 325 -184 l 2
325 1275 m 2
 325 1240 l 2
 325 1220 316 1210 297 1210 c 2
 260 1210 l 2
 241 1210 232 1220 232 1240 c 2
 232 1275 l 2
 232 1294 241 1303 260 1303 c 2
 297 1303 l 2
 316 1303 325 1294 325 1275 c 2
EndSplineSet
Validated: 1
EndChar

StartChar: k
Encoding: 107 107 110
Width: 744
VWidth: 2216
Flags: W
HStem: 0 21G<111.5 166 563 622.5> 0 21G<111.5 166 563 622.5> 911 20G<545.5 599> 1283 20G<113 167.5>
VStem: 93 93<0 369 491 1303>
LayerCount: 2
Fore
SplineSet
186 1275 m 2xb8
 186 491 l 2
 186 472 191 471 201 487 c 1
 526 920 l 1
 533 927 541 931 550 931 c 2
 593 931 l 2
 605 931 613 926 618 915 c 0
 623 904 623 894 617 885 c 2
 342 520 l 2
 338 513 338 506 342 500 c 2
 634 45 l 2
 641 34 645 26 645 19 c 0
 645 7 634 0 611 0 c 2
 569 0 l 2
 557 0 550 4 546 13 c 2
 284 420 l 2
 278 427 272 427 268 420 c 2
 193 318 l 2
 189 314 186 308 186 301 c 2
 186 28 l 2
 186 9 176 0 156 0 c 2
 121 0 l 2
 102 0 93 9 93 28 c 2
 93 1275 l 2
 93 1294 103 1303 123 1303 c 2
 158 1303 l 2
 177 1303 186 1294 186 1275 c 2xb8
EndSplineSet
Validated: 1
EndChar

StartChar: l
Encoding: 108 108 111
Width: 465
VWidth: 2216
Flags: W
HStem: 0 93<225.654 372> 1283 20G<111.5 167.5>
VStem: 93 93<132.654 1303>
LayerCount: 2
Fore
SplineSet
327 0 m 2
 198 0 93 105 93 234 c 2
 93 1275 l 2
 93 1294 102 1303 121 1303 c 2
 158 1303 l 2
 177 1303 186 1294 186 1275 c 2
 186 234 l 2
 186 157 250 93 327 93 c 2
 344 93 l 2
 363 93 372 84 372 65 c 2
 372 28 l 2
 372 9 363 0 344 0 c 2
 327 0 l 2
EndSplineSet
Validated: 1
EndChar

StartChar: m
Encoding: 109 109 112
Width: 1024
VWidth: 2216
Flags: W
HStem: 0 21G<111.5 167.5 486 539.5 858 912.5> 0 21G<111.5 167.5 486 539.5 858 912.5> 838 93<186.002 464.999 559.001 799.089>
VStem: 93 93<0 838> 465 94<0 838> 838 93<0 799.089>
CounterMasks: 1 1c
LayerCount: 2
Fore
SplineSet
699 931 m 2xbc
 826 931 931 826 931 699 c 2
 931 28 l 2
 931 9 922 0 903 0 c 2
 868 0 l 2
 848 0 838 9 838 28 c 2
 838 699 l 2
 838 775 775 838 699 838 c 2
 567 838 l 2
 561 838 559 835 559 829 c 2
 559 28 l 2
 559 9 549 0 530 0 c 2
 496 0 l 2
 476 0 465 9 465 28 c 2
 465 829 l 2
 465 835 463 838 457 838 c 2
 195 838 l 2
 189 838 186 835 186 829 c 2
 186 28 l 2
 186 9 177 0 158 0 c 2
 121 0 l 2
 102 0 93 9 93 28 c 2
 93 903 l 2
 93 922 102 931 121 931 c 6
 699 931 l 2xbc
EndSplineSet
Validated: 1
EndChar

StartChar: n
Encoding: 110 110 113
Width: 744
VWidth: 2216
Flags: W
HStem: 0 21G<111.5 167.5 577.5 632.5> 0 21G<111.5 167.5 577.5 632.5> 838 93<186.002 519.346>
VStem: 93 93<0 838> 559 93<0 799.525>
LayerCount: 2
Fore
SplineSet
418 931 m 2xb8
 547 931 652 827 652 699 c 2
 652 28 l 2
 652 9 642 0 623 0 c 2
 587 0 l 2
 568 0 559 9 559 28 c 2
 559 699 l 2
 559 776 494 838 418 838 c 2
 195 838 l 2
 189 838 186 835 186 829 c 2
 186 28 l 2
 186 9 177 0 158 0 c 2
 121 0 l 2
 102 0 93 9 93 28 c 2
 93 903 l 2
 93 922 102 931 121 931 c 2
 418 931 l 2xb8
EndSplineSet
Validated: 1
EndChar

StartChar: o
Encoding: 111 111 114
Width: 744
VWidth: 2216
Flags: W
HStem: 0 93<236.902 506.728> 838 93<236.848 507.004>
VStem: 93 93<145.41 786.9> 559 93<145.41 786.9>
LayerCount: 2
Fore
SplineSet
372 931 m 0
 514 931 652 834 652 699 c 2
 652 234 l 2
 652 98 512 0 372 0 c 0
 230 0 93 98 93 234 c 2
 93 699 l 2
 93 834 229 931 372 931 c 0
372 93 m 0
 461 93 559 146 559 234 c 2
 559 699 l 2
 559 784 460 838 372 838 c 0
 282 838 186 784 186 699 c 2
 186 234 l 2
 186 146 281 93 372 93 c 0
EndSplineSet
Validated: 1
EndChar

StartChar: p
Encoding: 112 112 115
Width: 744
VWidth: 2216
Flags: W
HStem: 0 93<186.002 518.911> 838 93<186.002 519.346>
VStem: 93 93<-370 0 93 838> 559 93<132.251 799.525>
LayerCount: 2
Fore
SplineSet
418 931 m 2
 547 931 652 827 652 699 c 2
 652 234 l 2
 652 104 546 0 418 0 c 2
 195 0 l 2
 189 0 186 -2 186 -6 c 2
 186 -342 l 2
 186 -361 177 -370 158 -370 c 2
 121 -370 l 2
 102 -370 93 -361 93 -342 c 2
 93 903 l 2
 93 922 102 931 121 931 c 2
 418 931 l 2
559 699 m 2
 559 776 494 838 418 838 c 2
 195 838 l 2
 189 838 186 835 186 829 c 2
 186 102 l 2
 186 96 189 93 195 93 c 2
 418 93 l 2
 495 93 559 157 559 234 c 2
 559 699 l 2
EndSplineSet
Validated: 1
EndChar

StartChar: q
Encoding: 113 113 116
Width: 744
VWidth: 2216
Flags: W
HStem: 0 93<225.654 558.998> 838 93<225.654 558.998>
VStem: 93 93<132.654 798.653> 559 93<-370 0 93 838>
LayerCount: 2
Fore
SplineSet
93 699 m 2
 93 825 198 931 327 931 c 2
 623 931 l 2
 642 931 652 922 652 903 c 2
 652 -342 l 2
 652 -361 642 -370 623 -370 c 2
 589 -370 l 2
 569 -370 559 -361 559 -342 c 2
 559 -6 l 2
 559 -2 556 0 550 0 c 2
 327 0 l 2
 198 0 93 105 93 234 c 2
 93 699 l 2
186 234 m 2
 186 157 250 93 327 93 c 2
 550 93 l 2
 556 93 559 96 559 102 c 2
 559 829 l 2
 559 835 556 838 550 838 c 2
 327 838 l 2
 251 838 186 776 186 699 c 2
 186 234 l 2
EndSplineSet
Validated: 1
EndChar

StartChar: r
Encoding: 114 114 117
Width: 649
VWidth: 2216
Flags: W
HStem: 0 21G<111.5 167.5> 0 21G<111.5 167.5> 838 93<186.002 423.771>
VStem: 93 93<0 838> 463 94<699 800.217>
LayerCount: 2
Fore
SplineSet
327 931 m 2xb8
 436 931 557 838 557 725 c 0
 557 708 546 699 528 699 c 2
 491 699 l 2
 474 699 465 707 463 723 c 0
 454 783 396 838 327 838 c 2
 195 838 l 2
 189 838 186 835 186 829 c 2
 186 28 l 2
 186 9 177 0 158 0 c 2
 121 0 l 2
 102 0 93 9 93 28 c 2
 93 903 l 2
 93 922 102 931 121 931 c 2
 327 931 l 2xb8
EndSplineSet
Validated: 1
EndChar

StartChar: s
Encoding: 115 115 118
Width: 744
VWidth: 2216
Flags: W
HStem: 0 93<192.661 529.532> 838 93<216.584 551.198>
VStem: 93 93<638.727 803.12> 558 93<125.258 289.827>
LayerCount: 2
Fore
SplineSet
372 931 m 0
 492 931 561 902 641 846 c 0
 650 840 653 833 653 825 c 0
 653 818 650 812 645 805 c 2
 623 777 l 1
 609 763 596 761 584 773 c 1
 514 819 473 838 372 838 c 0
 289 838 186 809 186 734 c 0
 186 664 243 626 286 593 c 2
 517 411 l 2
 550 384 581 355 609 323 c 0
 637 291 651 249 651 197 c 0
 651 67 516 0 372 0 c 0
 253 0 181 28 106 84 c 0
 96 91 92 99 92 107 c 0
 92 113 94 119 99 126 c 2
 121 154 l 2
 133 168 146 170 162 158 c 0
 217 117 276 93 372 93 c 0
 459 93 558 120 558 199 c 256
 558 264 496 307 459 338 c 2
 229 520 l 1
 194 546 163 574 135 606 c 0
 108 637 93 678 93 729 c 0
 93 863 223 931 372 931 c 0
EndSplineSet
Validated: 1
EndChar

StartChar: t
Encoding: 116 116 119
Width: 558
VWidth: 2216
Flags: W
HStem: 0 21G<204.5 260.5> 0 21G<204.5 260.5> 838 93<93 185.999 279.002 465> 1283 20G<204.5 260.5>
VStem: 186 93<0 837.998 931.002 1303>
LayerCount: 2
Fore
SplineSet
121 931 m 2xb8
 178 931 l 2
 184 931 186 934 186 940 c 2
 186 1275 l 2
 186 1294 195 1303 214 1303 c 2
 251 1303 l 2
 270 1303 279 1294 279 1275 c 2
 279 940 l 2
 279 934 282 931 288 931 c 2
 437 931 l 2
 456 931 465 922 465 903 c 2
 465 868 l 2
 465 848 456 838 437 838 c 2
 288 838 l 2
 282 838 279 835 279 829 c 2
 279 28 l 2
 279 9 270 0 251 0 c 2
 214 0 l 2
 195 0 186 9 186 28 c 2
 186 829 l 2
 186 835 184 838 178 838 c 2
 121 838 l 2
 102 838 93 848 93 868 c 2
 93 903 l 2
 93 922 102 931 121 931 c 2xb8
EndSplineSet
Validated: 1
EndChar

StartChar: u
Encoding: 117 117 120
Width: 744
VWidth: 2216
Flags: W
HStem: 0 93<225.251 559> 911 20G<111.5 167.5 579 632.5>
VStem: 93 93<133.089 931> 559 93<93 931>
LayerCount: 2
Fore
SplineSet
186 234 m 2
 186 157 250 93 327 93 c 2
 550 93 l 2
 556 93 559 96 559 102 c 2
 559 903 l 2
 559 922 569 931 589 931 c 2
 623 931 l 2
 642 931 652 922 652 903 c 2
 652 28 l 2
 652 9 642 0 623 0 c 2
 327 0 l 2
 197 0 93 106 93 234 c 2
 93 903 l 2
 93 922 102 931 121 931 c 2
 158 931 l 2
 177 931 186 922 186 903 c 2
 186 234 l 2
EndSplineSet
Validated: 1
EndChar

StartChar: v
Encoding: 118 118 121
Width: 744
VWidth: 2216
Flags: W
HStem: 0 21G<352 393> 0 21G<352 393> 911 20G<120 172 571.5 624>
VStem: 100 545<904 923>
LayerCount: 2
Fore
SplineSet
192 909 m 2xb0
 363 262 l 2
 363 258 366 255 371 255 c 0
 376 255 380 258 381 262 c 2
 552 909 l 1
 553 923 563 931 580 931 c 2
 614 931 l 2
 634 931 645 923 645 908 c 0
 645 904 645 899 643 894 c 2
 413 22 l 2
 410 8 401 0 385 0 c 2
 359 0 l 2
 345 0 335 8 331 22 c 2
 101 894 l 2
 100 899 100 903 100 907 c 0
 100 923 110 931 130 931 c 2
 164 931 l 2
 180 931 189 923 192 909 c 2xb0
EndSplineSet
Validated: 1
EndChar

StartChar: w
Encoding: 119 119 122
Width: 1117
VWidth: 2216
Flags: W
HStem: 0 21G<303.5 345 772 813> 0 21G<303.5 345 772 813> 911 20G<118 171.5 946.5 999>
LayerCount: 2
Fore
SplineSet
535 714 m 2xa0
 582 714 l 2
 596 714 604 708 608 695 c 2
 769 247 l 1
 776 231 782 231 786 247 c 2
 927 909 l 1
 928 923 938 931 955 931 c 2
 989 931 l 2
 1009 931 1019 923 1019 908 c 0
 1019 904 1019 900 1018 896 c 2
 833 24 l 2
 830 8 821 0 805 0 c 2
 779 0 l 2
 765 0 755 6 751 19 c 2
 567 537 l 2
 563 551 555 552 550 537 c 2
 366 19 l 2
 362 6 352 0 338 0 c 2
 312 0 l 2
 295 0 287 8 284 24 c 2
 100 896 l 2
 99 900 98 904 98 908 c 0
 98 923 108 931 128 931 c 2
 165 931 l 2
 178 931 190 924 193 909 c 2
 331 247 l 2
 334 231 343 230 349 247 c 2
 509 695 l 2
 513 708 522 714 535 714 c 2xa0
EndSplineSet
Validated: 1
EndChar

StartChar: x
Encoding: 120 120 123
Width: 744
VWidth: 2216
Flags: W
HStem: 0 21G<126 180.5 564 621.5> 0 21G<126 180.5 564 621.5> 911 20G<124 178.5 567 622>
VStem: 104 98<0 15 916 931> 546 96<0 15 916 931>
LayerCount: 2
Fore
SplineSet
611 0 m 2xb8
 570 0 l 2
 558 0 550 5 546 15 c 2
 381 344 l 1
 375 353 370 353 364 344 c 1
 202 15 l 1
 193 5 185 0 176 0 c 2
 137 0 l 2
 115 0 104 5 104 18 c 0
 104 24 106 32 111 41 c 2
 314 450 l 2
 318 459 318 467 314 476 c 2
 109 890 l 1
 104 899 101 906 101 912 c 0
 101 925 113 931 135 931 c 2
 174 931 l 2
 183 931 191 926 200 916 c 1
 364 582 l 1
 370 573 375 573 381 582 c 1
 546 916 l 1
 553 926 562 931 572 931 c 2
 611 931 l 2
 633 931 644 924 644 911 c 0
 644 905 642 899 637 890 c 2
 431 476 l 2
 427 467 427 459 431 450 c 2
 635 41 l 2
 640 32 642 25 642 19 c 0
 642 6 632 0 611 0 c 2xb8
EndSplineSet
Validated: 1
EndChar

StartChar: y
Encoding: 121 121 124
Width: 744
VWidth: 2216
Flags: W
HStem: -370 93<94 217.935> 911 20G<113.5 168 578 631.5>
LayerCount: 2
Fore
SplineSet
370 292 m 0
 375 292 378 295 379 299 c 2
 557 911 l 2
 561 924 571 931 585 931 c 2
 622 931 l 2
 641 931 652 923 652 907 c 0
 652 903 651 899 650 894 c 2
 319 -236 l 2
 298 -307 231 -370 141 -370 c 2
 122 -370 l 2
 103 -370 94 -361 94 -342 c 2
 94 -305 l 2
 94 -286 103 -277 122 -277 c 2
 141 -277 l 2
 186 -277 219 -248 230 -210 c 2
 319 93 l 2
 320 97 320 102 319 108 c 2
 96 894 l 1
 94 900 93 906 93 910 c 0
 93 924 103 931 124 931 c 2
 161 931 l 2
 175 931 184 923 187 909 c 1
 362 299 l 1
 362 295 365 292 370 292 c 0
EndSplineSet
Validated: 1
EndChar

StartChar: z
Encoding: 122 122 125
Width: 744
VWidth: 2216
Flags: W
HStem: 0 93<209.818 652> 838 93<93 536.121>
VStem: 93 559<0 92.946 838.018 931>
LayerCount: 2
Fore
SplineSet
121 931 m 2
 623 931 l 2
 642 931 652 922 652 903 c 2
 652 849 l 2
 652 845 650 839 647 833 c 2
 210 106 l 2
 206 97 209 93 219 93 c 2
 623 93 l 2
 642 93 652 84 652 65 c 2
 652 28 l 2
 652 9 642 0 623 0 c 2
 121 0 l 2
 102 0 93 9 93 28 c 2
 93 82 l 2
 93 86 94 91 97 97 c 2
 535 825 l 1
 538 834 535 838 526 838 c 2
 121 838 l 2
 102 838 93 847 93 866 c 2
 93 903 l 2
 93 922 102 931 121 931 c 2
EndSplineSet
Validated: 1
EndChar

StartChar: Becyrillic
Encoding: 1041 1041 127
Width: 837
VWidth: 2216
Flags: W
HStem: 0 93<186 541.851> 652 93<186 541.851> 1210 93<186 652>
VStem: 93 93<93 652 745 1210> 652 93<212.559 534.871>
LayerCount: 2
Fore
SplineSet
745 372 m 0
 745 178 606 0 420 0 c 2
 121 0 l 2
 102 0 93 9 93 28 c 2
 93 1275 l 2
 93 1294 102 1303 121 1303 c 2
 623 1303 l 2
 642 1303 652 1294 652 1275 c 2
 652 1240 l 2
 652 1220 642 1210 623 1210 c 2
 195 1210 l 2
 189 1210 186 1208 186 1202 c 2
 186 753 l 2
 186 747 189 745 195 745 c 2
 420 745 l 2
 606 745 745 564 745 372 c 0
652 372 m 0
 652 514 558 652 420 652 c 2
 195 652 l 2
 189 652 186 649 186 643 c 2
 186 102 l 2
 186 96 189 93 195 93 c 2
 420 93 l 2
 555 93 652 228 652 372 c 0
EndSplineSet
Validated: 1
EndChar

StartChar: Decyrillic
Encoding: 1044 1044 130
Width: 839
VWidth: 2216
Flags: W
HStem: -91 184<48 138.709 699.007 792> 0 93<242 606> 1210 93<416.001 606>
VStem: 48 93<-91 0> 327 89<847.152 1210> 606 93<93.0022 1210> 699 93<-91 0>
LayerCount: 2
Fore
SplineSet
606 102 m 2x7c
 606 1202 l 2
 606 1208 604 1210 598 1210 c 2
 424 1210 l 2
 418 1210 416 1208 416 1202 c 0
 395 803 334 432 234 104 c 1
 230 97 232 93 242 93 c 2
 598 93 l 2
 604 93 606 96 606 102 c 2x7c
136 106 m 0
 194 287 239 486 271 686 c 0
 301 875 327 1071 327 1275 c 0
 327 1294 336 1303 355 1303 c 2
 669 1303 l 2
 689 1303 699 1294 699 1275 c 2xba
 699 102 l 2xbc
 699 96 702 93 708 93 c 2
 762 93 l 2
 782 93 792 84 792 65 c 2
 792 -63 l 2
 792 -82 782 -91 762 -91 c 2
 727 -91 l 2xba
 708 -91 699 -82 699 -63 c 2
 699 -6 l 2
 699 -2 697 0 691 0 c 2
 149 0 l 2x7a
 143 0 141 -2 141 -6 c 2
 141 -63 l 2
 141 -82 130 -91 110 -91 c 2
 76 -91 l 2
 57 -91 48 -82 48 -63 c 2
 48 65 l 2
 48 84 57 93 76 93 c 2
 119 93 l 2xba
 128 93 133 97 136 106 c 0
EndSplineSet
Validated: 1
EndChar

StartChar: Zhecyrillic
Encoding: 1046 1046 132
Width: 1024
VWidth: 2216
Flags: W
HStem: 0 21G<115.5 171 484.5 539.5 855 908.5> 0 21G<115.5 171 484.5 539.5 855 908.5> 1283 20G<117.5 180 484.5 539.5 842.5 906>
VStem: 465 94<0 632.368 822.632 1303>
LayerCount: 2
Fore
SplineSet
100 41 m 2xb0
 388 725 l 2
 389 731 389 736 388 740 c 2
 110 1262 l 1
 93 1289 101 1303 134 1303 c 2
 175 1303 l 2
 185 1303 195 1299 201 1288 c 2
 448 823 l 1
 451 814 465 819 465 827 c 2
 465 1275 l 2
 465 1294 475 1303 494 1303 c 2
 530 1303 l 2
 549 1303 559 1294 559 1275 c 2
 559 827 l 2
 559 817 571 815 576 823 c 2
 825 1288 l 1
 828 1298 836 1303 849 1303 c 2
 890 1303 l 2
 922 1303 929 1290 914 1262 c 2
 636 740 l 2
 633 736 633 731 636 725 c 2
 924 41 l 2
 927 33 929 27 929 21 c 0x70
 929 7 919 0 898 0 c 2
 862 0 l 2
 848 0 837 5 833 17 c 2
 576 632 l 1
 571 640 559 638 559 628 c 2
 559 28 l 2
 559 9 549 0 530 0 c 2
 494 0 l 2
 475 0 465 9 465 28 c 2
 465 628 l 2
 465 636 451 641 448 632 c 2
 191 17 l 2
 185 5 177 0 165 0 c 2
 126 0 l 2
 105 0 94 6 94 20 c 0
 94 26 96 33 100 41 c 2xb0
EndSplineSet
Validated: 1
EndChar

StartChar: Zecyrillic
Encoding: 1047 1047 133
Width: 837
VWidth: 2216
Flags: W
HStem: 0 93<247.405 549.226> 652 93<279 546.092> 1210 93<243.662 558.294>
VStem: 652 93<201.095 572.358 847.515 1116.81>
LayerCount: 2
Fore
SplineSet
652 979 m 0
 652 1112 554 1210 420 1210 c 0
 342 1210 274 1192 219 1150 c 0
 204 1139 192 1137 180 1152 c 2
 158 1180 l 1
 141 1193 142 1207 162 1221 c 0
 233 1276 319 1303 420 1303 c 0
 603 1303 745 1162 745 979 c 0
 745 871 687 768 604 714 c 0
 596 709 596 706 604 701 c 0
 702 639 745 528 745 372 c 0
 745 166 617 0 420 0 c 0
 253 0 155 66 97 178 c 0
 93 185 92 190 92 195 c 0
 92 204 97 211 110 216 c 2
 145 232 l 1
 159 236 171 230 180 216 c 0
 226 130 294 93 420 93 c 0
 564 93 652 218 652 372 c 0
 652 444 642 517 613 565 c 0
 578 623 512 652 420 652 c 2
 307 652 l 2
 293 652 279 666 279 680 c 2
 279 717 l 2
 279 736 288 745 307 745 c 2
 418 745 l 1
 541 753 652 852 652 979 c 0
EndSplineSet
Validated: 1
EndChar

StartChar: Iicyrillic
Encoding: 1048 1048 134
Width: 837
VWidth: 2216
Flags: W
HStem: 0 21G<111.5 167.5 670.5 726.5> 0 21G<111.5 167.5 670.5 726.5> 1283 20G<111.5 167.5 670.5 726.5>
VStem: 93 93<0 131.75 293.588 1303> 652 93<0 1009.41 1173.06 1303>
LayerCount: 2
Fore
SplineSet
204 294 m 2xb8
 649 1264 l 2
 650 1265 652 1269 652 1275 c 0
 652 1294 661 1303 680 1303 c 2
 717 1303 l 2
 736 1303 745 1294 745 1275 c 2
 745 28 l 2
 745 9 736 0 717 0 c 2
 680 0 l 2
 661 0 652 9 652 28 c 2
 652 1005 l 2
 652 1013 637 1018 634 1009 c 2
 188 41 l 2
 187 38 186 34 186 28 c 0
 186 9 177 0 158 0 c 2
 121 0 l 2
 102 0 93 9 93 28 c 2
 93 1275 l 2
 93 1294 102 1303 121 1303 c 2
 158 1303 l 2
 177 1303 186 1294 186 1275 c 2
 186 299 l 2
 186 289 200 285 204 294 c 2xb8
EndSplineSet
Validated: 1
EndChar

StartChar: Iishortcyrillic
Encoding: 1049 1049 135
Width: 837
VWidth: 2216
Flags: W
HStem: 0 21G<111.5 167.5 670.5 726.5> 0 21G<111.5 167.5 670.5 726.5> 1283 20G<111.5 167.5 670.5 726.5> 1396 93<279 559>
VStem: 93 93<0 131.75 293.588 1303> 652 93<0 1009.41 1173.06 1303>
LayerCount: 2
Fore
SplineSet
204 294 m 2xbc
 649 1264 l 2
 650 1265 652 1269 652 1275 c 0
 652 1294 661 1303 680 1303 c 2
 717 1303 l 2
 736 1303 745 1294 745 1275 c 2
 745 28 l 2
 745 9 736 0 717 0 c 2
 680 0 l 2
 661 0 652 9 652 28 c 2
 652 1005 l 2
 652 1013 637 1018 634 1009 c 2
 188 41 l 2
 187 38 186 34 186 28 c 0
 186 9 177 0 158 0 c 2
 121 0 l 2
 102 0 93 9 93 28 c 2
 93 1275 l 2
 93 1294 102 1303 121 1303 c 2
 158 1303 l 2
 177 1303 186 1294 186 1275 c 2
 186 299 l 2
 186 289 200 285 204 294 c 2xbc
307 1489 m 2
 530 1489 l 2
 549 1489 559 1480 559 1461 c 2
 559 1427 l 2
 559 1407 549 1396 530 1396 c 2
 307 1396 l 2
 288 1396 279 1407 279 1427 c 2
 279 1461 l 2
 279 1480 288 1489 307 1489 c 2
EndSplineSet
Validated: 1
EndChar

StartChar: Elcyrillic
Encoding: 1051 1051 137
Width: 837
VWidth: 2216
Flags: W
HStem: 0 21G<120 173.5 670.5 726.5> 0 21G<120 173.5 670.5 726.5> 1210 93<463.002 651.998>
VStem: 372 91<895.229 1210> 652 93<0 1210>
LayerCount: 2
Fore
SplineSet
652 28 m 2xb8
 652 1202 l 2
 652 1208 649 1210 643 1210 c 2
 472 1210 l 2
 466 1210 463 1208 463 1202 c 0
 426 796 307 368 195 19 c 0
 191 5 180 0 167 0 c 2
 130 0 l 2
 110 0 101 7 101 20 c 0
 101 25 102 30 104 37 c 0
 174 255 238 476 290 708 c 0
 330 886 363 1074 372 1275 c 0
 373 1294 384 1303 403 1303 c 2
 717 1303 l 2
 736 1303 745 1294 745 1275 c 2
 745 28 l 2
 745 9 736 0 717 0 c 2
 680 0 l 2
 661 0 652 9 652 28 c 2xb8
EndSplineSet
Validated: 1
EndChar

StartChar: Ucyrillic
Encoding: 1059 1059 145
Width: 837
VWidth: 2216
Flags: W
HStem: 0 93<186 553.538> 559 93<320.391 652> 1283 20G<111.5 167.5 670.5 726.5>
VStem: 93 93<786.391 1303> 652 93<193.114 558.998 652 1303>
LayerCount: 2
Fore
SplineSet
465 559 m 2
 260 559 93 726 93 931 c 2
 93 1275 l 2
 93 1294 102 1303 121 1303 c 2
 158 1303 l 2
 177 1303 186 1294 186 1275 c 2
 186 931 l 2
 186 776 310 652 465 652 c 2
 643 652 l 2
 649 652 652 654 652 660 c 2
 652 1275 l 2
 652 1294 661 1303 680 1303 c 2
 717 1303 l 2
 736 1303 745 1294 745 1275 c 2
 745 327 l 2
 745 148 599 0 420 0 c 2
 214 0 l 2
 195 0 186 9 186 28 c 2
 186 65 l 2
 186 84 195 93 214 93 c 2
 420 93 l 2
 548 93 652 197 652 327 c 2
 652 550 l 2
 652 556 649 559 643 559 c 2
 465 559 l 2
EndSplineSet
Validated: 1
EndChar

StartChar: Efcyrillic
Encoding: 1060 1060 146
Width: 1210
VWidth: 2216
Flags: W
HStem: 0 21G<578.5 632> 0 21G<578.5 632> 279 93<322.534 558.997 652.002 887.673> 1024 93<324.641 558.997 652.002 881.64> 1283 20G<578.5 632>
VStem: 93 93<486.996 908.032> 559 93<0 278.998 372 1024 1117 1303> 1024 93<487.033 902.625>
LayerCount: 2
Fore
SplineSet
186 606 m 2x3f
 186 459 357 372 513 372 c 2
 550 372 l 2
 555 372 559 376 559 381 c 2
 559 1015 l 2
 559 1020 555 1024 550 1024 c 2
 513 1024 l 2
 358 1024 186 935 186 792 c 2
 186 606 l 2x3f
652 381 m 2
 652 376 655 372 660 372 c 2
 699 372 l 2
 852 372 1024 460 1024 606 c 2
 1024 792 l 2
 1024 934 851 1024 699 1024 c 2
 660 1024 l 2
 655 1024 652 1020 652 1015 c 2
 652 381 l 2
93 606 m 2
 93 792 l 2
 93 883 139 962 221 1026 c 0
 315 1099 399 1117 513 1117 c 2
 550 1117 l 2
 555 1117 559 1121 559 1126 c 2
 559 1275 l 2
 559 1293 568 1303 589 1303 c 2
 623 1303 l 2
 641 1303 652 1293 652 1275 c 2
 652 1126 l 2
 652 1121 655 1117 660 1117 c 2
 699 1117 l 2
 905 1117 1117 988 1117 792 c 2
 1117 606 l 2
 1117 409 906 279 699 279 c 2
 660 279 l 2
 655 279 652 276 652 271 c 2
 652 28 l 2
 652 10 641 0 623 0 c 2
 589 0 l 2xbf
 568 0 559 10 559 28 c 2
 559 271 l 2
 559 276 555 279 550 279 c 2
 513 279 l 2
 303 279 93 409 93 606 c 2
EndSplineSet
Validated: 1
EndChar

StartChar: Tsecyrillic
Encoding: 1062 1062 148
Width: 883
VWidth: 2216
Flags: W
HStem: 0 93<186 652> 1283 20G<111.5 167.5 670.5 726.5>
VStem: 93 93<93 1303> 652 93<93 1303> 745 93<-184 0>
LayerCount: 2
Fore
SplineSet
186 1275 m 2xe8
 186 102 l 2
 186 96 189 93 195 93 c 2
 643 93 l 2
 649 93 652 96 652 102 c 2
 652 1275 l 2
 652 1294 661 1303 680 1303 c 2
 717 1303 l 2
 736 1303 745 1294 745 1275 c 2
 745 102 l 2xf0
 745 96 747 93 753 93 c 2
 810 93 l 2
 829 93 838 84 838 65 c 2
 838 -156 l 2
 838 -175 829 -184 810 -184 c 2
 773 -184 l 2
 754 -184 745 -175 745 -156 c 2
 745 -6 l 2
 745 -2 742 0 736 0 c 2
 121 0 l 2
 102 0 93 9 93 28 c 2
 93 1275 l 2
 93 1294 102 1303 121 1303 c 2
 158 1303 l 2
 177 1303 186 1294 186 1275 c 2xe8
EndSplineSet
Validated: 1
EndChar

StartChar: Checyrillic
Encoding: 1063 1063 149
Width: 837
VWidth: 2216
Flags: W
HStem: 0 21G<670.5 726.5> 0 21G<670.5 726.5> 559 93<320.391 651.998> 1283 20G<111.5 167.5 670.5 726.5>
VStem: 93 93<786.391 1303> 652 93<0 558.998 652 1303>
LayerCount: 2
Fore
SplineSet
465 559 m 2xbc
 260 559 93 726 93 931 c 2
 93 1275 l 2
 93 1294 102 1303 121 1303 c 2
 158 1303 l 2
 177 1303 186 1294 186 1275 c 2
 186 931 l 2
 186 779 310 652 465 652 c 2
 643 652 l 2
 649 652 652 654 652 660 c 2
 652 1275 l 2
 652 1294 661 1303 680 1303 c 2
 717 1303 l 2
 736 1303 745 1294 745 1275 c 2
 745 28 l 2
 745 9 736 0 717 0 c 2
 680 0 l 2
 661 0 652 9 652 28 c 2
 652 550 l 2
 652 556 649 559 643 559 c 2
 465 559 l 2xbc
EndSplineSet
Validated: 1
EndChar

StartChar: Shacyrillic
Encoding: 1064 1064 150
Width: 1024
VWidth: 2216
Flags: W
HStem: 0 93<186 465 559 838> 1283 20G<111.5 167.5 484.5 539.5 858 912.5>
VStem: 93 93<93 1303> 465 94<93 1303> 838 93<93 1303>
CounterMasks: 1 38
LayerCount: 2
Fore
SplineSet
465 102 m 2
 465 1275 l 2
 465 1294 475 1303 494 1303 c 2
 530 1303 l 2
 549 1303 559 1294 559 1275 c 2
 559 102 l 2
 559 96 561 93 567 93 c 2
 829 93 l 2
 835 93 838 96 838 102 c 2
 838 1275 l 2
 838 1294 848 1303 868 1303 c 2
 903 1303 l 2
 922 1303 931 1294 931 1275 c 2
 931 28 l 2
 931 9 922 0 903 0 c 2
 121 0 l 2
 102 0 93 9 93 28 c 2
 93 1275 l 2
 93 1294 102 1303 121 1303 c 2
 158 1303 l 2
 177 1303 186 1294 186 1275 c 2
 186 102 l 2
 186 96 189 93 195 93 c 2
 457 93 l 2
 463 93 465 96 465 102 c 2
EndSplineSet
Validated: 1
EndChar

StartChar: Shchacyrillic
Encoding: 1065 1065 151
Width: 1069
VWidth: 2216
Flags: W
HStem: 0 93<186 465 559 838> 1283 20G<111.5 167.5 484.5 539.5 858 912.5>
VStem: 93 93<93 1303> 465 94<93 1303> 838 93<93 1303> 931 93<-184 0>
LayerCount: 2
Fore
SplineSet
940 93 m 2xf8
 996 93 l 2
 1015 93 1024 84 1024 65 c 2
 1024 -156 l 2
 1024 -175 1015 -184 996 -184 c 2
 961 -184 l 2
 941 -184 931 -175 931 -156 c 2
 931 -6 l 2xf4
 931 -2 928 0 922 0 c 2
 121 0 l 2
 102 0 93 9 93 28 c 2
 93 1275 l 2
 93 1294 102 1303 121 1303 c 2
 158 1303 l 2
 177 1303 186 1294 186 1275 c 2
 186 102 l 2
 186 96 189 93 195 93 c 2
 457 93 l 2
 463 93 465 96 465 102 c 2
 465 1275 l 2
 465 1294 475 1303 494 1303 c 2
 530 1303 l 2
 549 1303 559 1294 559 1275 c 2
 559 102 l 2
 559 96 561 93 567 93 c 2
 829 93 l 2
 835 93 838 96 838 102 c 2
 838 1275 l 2
 838 1294 848 1303 868 1303 c 2
 903 1303 l 2
 922 1303 931 1294 931 1275 c 2
 931 102 l 2
 931 96 934 93 940 93 c 2xf8
EndSplineSet
Validated: 1
EndChar

StartChar: Hardsigncyrillic
Encoding: 1066 1066 152
Width: 976
VWidth: 2216
Flags: W
HStem: 0 93<325 680.712> 652 93<325 680.712> 1210 93<45 231.998>
VStem: 232 93<93 652 745 1210> 790 93<208.546 534.871>
LayerCount: 2
Fore
SplineSet
790 372 m 0
 790 514 697 652 559 652 c 2
 333 652 l 2
 327 652 325 649 325 643 c 2
 325 102 l 2
 325 96 327 93 333 93 c 2
 559 93 l 2
 694 93 790 228 790 372 c 0
883 372 m 0
 883 178 745 0 559 0 c 2
 260 0 l 2
 241 0 232 9 232 28 c 2
 232 1202 l 2
 232 1208 229 1210 223 1210 c 2
 74 1210 l 2
 55 1210 45 1220 45 1240 c 2
 45 1275 l 2
 45 1294 55 1303 74 1303 c 2
 297 1303 l 2
 316 1303 325 1294 325 1275 c 2
 325 753 l 2
 325 747 327 745 333 745 c 2
 559 745 l 2
 745 745 883 564 883 372 c 0
EndSplineSet
Validated: 1
EndChar

StartChar: Yericyrillic
Encoding: 1067 1067 153
Width: 930
VWidth: 2216
Flags: W
HStem: 0 93<186 447.954> 652 93<186 447.954> 1283 20G<111.5 167.5 763.5 819.5>
VStem: 93 93<93 652 745 1303> 559 93<212.556 531.289> 745 93<0 1303>
LayerCount: 2
Fore
SplineSet
838 1275 m 2
 838 28 l 2
 838 9 829 0 810 0 c 2
 773 0 l 2
 754 0 745 9 745 28 c 2
 745 1275 l 2
 745 1294 754 1303 773 1303 c 2
 810 1303 l 2
 829 1303 838 1294 838 1275 c 2
652 372 m 0
 652 177 513 0 325 0 c 2
 121 0 l 2
 102 0 93 9 93 28 c 2
 93 1275 l 2
 93 1294 102 1303 121 1303 c 2
 158 1303 l 2
 177 1303 186 1294 186 1275 c 2
 186 753 l 2
 186 747 189 745 195 745 c 2
 325 745 l 2
 513 745 652 566 652 372 c 0
559 372 m 0
 559 514 463 652 325 652 c 2
 195 652 l 2
 189 652 186 649 186 643 c 2
 186 102 l 2
 186 96 189 93 195 93 c 2
 325 93 l 2
 462 93 559 229 559 372 c 0
EndSplineSet
Validated: 1
EndChar

StartChar: Softsigncyrillic
Encoding: 1068 1068 154
Width: 837
VWidth: 2216
Flags: W
HStem: 0 93<186 541.851> 652 93<186 541.851> 1283 20G<111.5 167.5>
VStem: 93 93<93 652 745 1303> 652 93<212.559 534.871>
LayerCount: 2
Fore
SplineSet
745 372 m 0
 745 178 606 0 420 0 c 2
 121 0 l 2
 102 0 93 9 93 28 c 2
 93 1275 l 2
 93 1294 102 1303 121 1303 c 2
 158 1303 l 2
 177 1303 186 1294 186 1275 c 2
 186 753 l 2
 186 747 189 745 195 745 c 2
 420 745 l 2
 606 745 745 564 745 372 c 0
652 372 m 0
 652 514 558 652 420 652 c 2
 195 652 l 2
 189 652 186 649 186 643 c 2
 186 102 l 2
 186 96 189 93 195 93 c 2
 420 93 l 2
 555 93 652 228 652 372 c 0
EndSplineSet
Validated: 1
EndChar

StartChar: Ereversedcyrillic
Encoding: 1069 1069 155
Width: 837
VWidth: 2216
Flags: W
HStem: 0 93<93 553.538> 652 93<279 652> 1210 93<93 552.678>
VStem: 652 93<193.114 651.998 745.001 1111.5>
LayerCount: 2
Fore
SplineSet
652 979 m 2
 652 1106 547 1210 420 1210 c 2
 121 1210 l 2
 102 1210 93 1220 93 1240 c 2
 93 1275 l 2
 93 1294 102 1303 121 1303 c 2
 420 1303 l 2
 597 1303 745 1156 745 979 c 2
 745 327 l 2
 745 148 599 0 420 0 c 2
 121 0 l 2
 102 0 93 9 93 28 c 2
 93 65 l 2
 93 84 102 93 121 93 c 2
 420 93 l 2
 548 93 652 197 652 327 c 2
 652 643 l 2
 652 649 649 652 643 652 c 2
 307 652 l 2
 288 652 279 661 279 680 c 2
 279 717 l 2
 279 736 288 745 307 745 c 2
 643 745 l 2
 649 745 652 747 652 753 c 2
 652 979 l 2
EndSplineSet
Validated: 1
EndChar

StartChar: IUcyrillic
Encoding: 1070 1070 156
Width: 930
VWidth: 2216
Flags: W
HStem: 0 93<423.49 693.317> 652 93<186.002 278.999> 1210 93<423.437 693.593>
VStem: 93 93<0 652 745 1303> 279 93<145.41 652 745 1159.76> 745 93<145.41 1159.76>
LayerCount: 2
Fore
SplineSet
559 93 m 0
 648 93 745 146 745 234 c 2
 745 1072 l 2
 745 1157 647 1210 559 1210 c 0
 469 1210 372 1157 372 1072 c 2
 372 234 l 2
 372 146 468 93 559 93 c 0
559 0 m 0
 417 0 279 98 279 234 c 2
 279 643 l 2
 279 649 277 652 271 652 c 2
 195 652 l 2
 189 652 186 649 186 643 c 2
 186 28 l 2
 186 9 177 0 158 0 c 2
 121 0 l 2
 102 0 93 9 93 28 c 2
 93 1275 l 2
 93 1294 102 1303 121 1303 c 2
 158 1303 l 2
 177 1303 186 1294 186 1275 c 2
 186 753 l 2
 186 747 189 745 195 745 c 2
 271 745 l 2
 277 745 279 747 279 753 c 2
 279 1072 l 2
 279 1207 416 1303 559 1303 c 0
 701 1303 838 1207 838 1072 c 2
 838 234 l 2
 838 98 699 0 559 0 c 0
EndSplineSet
Validated: 1
EndChar

StartChar: IAcyrillic
Encoding: 1071 1071 157
Width: 837
VWidth: 2216
Flags: W
HStem: 0 21G<115 175 670.5 726.5> 0 21G<115 175 670.5 726.5> 559 93<428.438 651.998> 1210 93<296.222 651.998>
VStem: 93 93<770.59 1090.01> 652 93<0 559 652 1210>
LayerCount: 2
Fore
SplineSet
93 931 m 0xbc
 93 1125 230 1303 420 1303 c 2
 717 1303 l 2
 736 1303 745 1294 745 1275 c 2
 745 28 l 2
 745 9 736 0 717 0 c 2
 680 0 l 2
 661 0 652 9 652 28 c 2
 652 550 l 2
 652 556 649 559 643 559 c 2
 459 559 l 2
 450 559 447 555 444 548 c 2
 195 17 l 2
 189 5 181 0 169 0 c 2
 130 0 l 2
 100 0 91 14 104 41 c 2
 346 559 l 2
 349 564 348 567 340 569 c 0
 197 609 93 760 93 931 c 0xbc
186 931 m 0
 186 788 281 652 420 652 c 10
 643 652 l 2
 649 652 652 654 652 660 c 2
 652 1202 l 2
 652 1208 649 1210 643 1210 c 2
 420 1210 l 18
 281 1210 186 1073 186 931 c 0
EndSplineSet
Validated: 1
EndChar

StartChar: Iocyrillic
Encoding: 1025 1025 158
Width: 744
VWidth: 2216
Flags: W
HStem: 0 93<186 652> 652 93<186 465> 1210 93<186 652> 1396 93<234 327 420 513>
VStem: 93 93<93 652 745 1210> 234 93<1396 1489> 420 93<1396 1489>
LayerCount: 2
Fore
SplineSet
262 1489 m 2
 297 1489 l 2
 317 1489 327 1480 327 1461 c 2
 327 1427 l 2
 327 1407 317 1396 297 1396 c 2
 262 1396 l 2
 243 1396 234 1407 234 1427 c 2
 234 1461 l 2
 234 1480 243 1489 262 1489 c 2
195 745 m 2
 437 745 l 2
 456 745 465 736 465 717 c 2
 465 680 l 2
 465 661 456 652 437 652 c 2
 195 652 l 2
 189 652 186 649 186 643 c 2
 186 102 l 2
 186 96 189 93 195 93 c 2
 623 93 l 2
 642 93 652 84 652 65 c 2
 652 28 l 2
 652 9 642 0 623 0 c 2
 121 0 l 2
 102 0 93 9 93 28 c 2
 93 1275 l 2
 93 1294 102 1303 121 1303 c 2
 623 1303 l 2
 642 1303 652 1294 652 1275 c 2
 652 1240 l 2
 652 1220 642 1210 623 1210 c 2
 195 1210 l 2
 189 1210 186 1208 186 1202 c 2
 186 753 l 2
 186 747 189 745 195 745 c 2
448 1489 m 2
 483 1489 l 2
 503 1489 513 1480 513 1461 c 2
 513 1427 l 2
 513 1407 503 1396 483 1396 c 2
 448 1396 l 2
 429 1396 420 1407 420 1427 c 2
 420 1461 l 2
 420 1480 429 1489 448 1489 c 2
EndSplineSet
Validated: 1
EndChar

StartChar: becyrillic
Encoding: 1073 1073 160
Width: 744
VWidth: 2216
Flags: W
HStem: 0 93<236.902 506.728> 838 94<236.125 368.231> 1210 93<259.678 652>
VStem: 93 93<145.41 787.186> 559 93<145.41 787.179>
LayerCount: 2
Fore
SplineSet
559 699 m 2
 559 784 460 838 372 838 c 0
 282 838 186 784 186 699 c 2
 186 234 l 2
 186 146 281 93 372 93 c 0
 461 93 559 146 559 234 c 2
 559 699 l 2
652 699 m 2
 652 234 l 2
 652 98 512 0 372 0 c 0
 230 0 93 98 93 234 c 2
 93 699 l 18
 93 765 122 821 171 861 c 0
 220 901 287 932 363 932 c 0
 373 932 373 938 368 946 c 1
 106 1225 l 2
 96 1236 92 1247 92 1258 c 0
 92 1282 114 1303 143 1303 c 2
 623 1303 l 2
 642 1303 652 1294 652 1275 c 2
 652 1240 l 2
 652 1220 642 1210 623 1210 c 2
 266 1210 l 2
 254 1210 253 1205 260 1195 c 1
 591 842 l 1
 631 802 652 754 652 699 c 2
EndSplineSet
Validated: 1
EndChar

StartChar: vecyrillic
Encoding: 1074 1074 161
Width: 744
VWidth: 2216
Flags: W
HStem: 0 93<236.679 507.173> 838 93<374.678 507.219> 1210 93<200.826 357.174>
VStem: 93 93<145.41 788.299 888.003 1196.45> 372 93<1033.06 1196.45> 559 93<145.41 784.427>
LayerCount: 2
Fore
SplineSet
372 0 m 0
 229 0 93 98 93 234 c 2
 93 1117 l 2
 93 1217 176 1303 279 1303 c 256
 382 1303 465 1217 465 1117 c 0
 465 1071 450 1030 418 994 c 2
 375 946 l 1
 368 936 369 931 381 931 c 0
 524 931 652 828 652 699 c 2
 652 234 l 2
 652 98 514 0 372 0 c 0
372 838 m 0
 282 838 186 784 186 699 c 2
 186 234 l 2
 186 146 281 93 372 93 c 0
 461 93 559 146 559 234 c 2
 559 699 l 2
 559 784 460 838 372 838 c 0
279 1210 m 256
 227 1210 186 1168 186 1117 c 2
 186 901 l 2
 186 892 188 888 191 888 c 0
 193 888 197 890 201 894 c 1
 349 1056 l 1
 365 1072 372 1092 372 1117 c 0
 372 1168 331 1210 279 1210 c 256
EndSplineSet
Validated: 1
EndChar

StartChar: gecyrillic
Encoding: 1075 1075 162
Width: 746
VWidth: 2216
Flags: W
HStem: 0 93<212.383 641.166> 41 93<308.477 652> 838 93<262.163 541.599>
VStem: 93 93<118.828 305.375> 561 93<662.096 816.416>
LayerCount: 2
Fore
SplineSet
654 745 m 1xb8
 653 696 636 654 604 621 c 0
 500 512 376 437 264 338 c 0
 232 309 186 267 186 210 c 0
 186 145 239 93 303 93 c 0
 310 93 318 93 325 93 c 0xb8
 430 93 527 114 617 134 c 0
 640 140 652 131 652 106 c 2
 652 69 l 2
 652 52 644 42 628 41 c 1x78
 527 20 420 0 303 0 c 0
 188 0 93 96 93 210 c 0
 93 297 152 363 201 407 c 0
 281 478 368 541 428 588 c 0
 488 635 561 687 561 745 c 0
 561 784 530 838 420 838 c 0
 349 838 289 817 238 777 c 1
 226 765 213 765 199 777 c 1
 175 803 l 1
 159 817 161 832 178 846 c 0
 244 902 324 931 418 931 c 0
 618 931 654 810 654 745 c 1xb8
EndSplineSet
Validated: 1
EndChar

StartChar: decyrillic
Encoding: 1076 1076 163
Width: 744
VWidth: 2216
Flags: W
HStem: 0 93<236.679 507.173> 838 93<236.848 508.019> 1210 93<186 543.056>
VStem: 93 93<145.41 786.9> 559 93<145.41 788.299 888 1194.75>
LayerCount: 2
Fore
SplineSet
652 1117 m 2
 652 234 l 2
 652 98 514 0 372 0 c 0
 229 0 93 98 93 234 c 2
 93 699 l 2
 93 834 229 931 372 931 c 0
 434 931 493 914 546 881 c 0
 555 875 559 878 559 888 c 2
 559 1117 l 2
 559 1169 517 1210 465 1210 c 2
 214 1210 l 2
 195 1210 186 1220 186 1240 c 2
 186 1275 l 2
 186 1294 195 1303 214 1303 c 2
 465 1303 l 2
 615 1303 652 1204 652 1117 c 2
372 93 m 0
 461 93 559 146 559 234 c 2
 559 699 l 2
 559 784 460 838 372 838 c 0
 282 838 186 784 186 699 c 2
 186 234 l 2
 186 146 281 93 372 93 c 0
EndSplineSet
Validated: 1
EndChar

StartChar: zhecyrillic
Encoding: 1078 1078 165
Width: 863
VWidth: 2216
Flags: W
HStem: 0 21G<90.5 146 405.5 459.5 718.5 774.5> 0 21G<90.5 146 405.5 459.5 718.5 774.5> 911 20G<90.5 146 403.5 458 718.5 774.5>
VStem: 69 97<0 15 916 931> 385 93<0 420.456 510.588 931> 699 96<0 15 916 931>
LayerCount: 2
Fore
SplineSet
699 15 m 2xbc
 495 424 l 1
 490 432 478 430 478 420 c 2
 478 28 l 2
 478 9 469 0 450 0 c 2
 415 0 l 2
 396 0 387 9 387 28 c 2
 385 416 l 2
 385 423 370 430 370 420 c 1
 166 15 l 2
 160 5 152 0 140 0 c 2
 101 0 l 2xbc
 80 0 69 7 69 20 c 0
 69 26 71 33 75 41 c 2
 281 452 l 2
 285 461 285 469 281 478 c 2
 75 890 l 2
 71 898 69 905 69 911 c 0
 69 924 80 931 101 931 c 2
 140 931 l 2
 152 931 160 926 166 916 c 2
 367 511 l 1
 370 502 385 507 385 515 c 2
 385 903 l 2
 385 922 394 931 413 931 c 2
 448 931 l 2
 468 931 478 922 478 903 c 2
 478 511 l 2
 478 501 490 499 495 507 c 1
 699 916 l 2
 703 926 712 931 725 931 c 2
 764 931 l 2
 785 931 795 924 795 910 c 0
 795 904 793 898 790 890 c 2
 584 478 l 2
 580 469 580 461 584 452 c 2
 790 41 l 2
 793 33 795 27 795 21 c 0x7c
 795 7 785 0 764 0 c 2
 725 0 l 2
 712 0 703 5 699 15 c 2xbc
EndSplineSet
Validated: 1
EndChar

StartChar: zecyrillic
Encoding: 1079 1079 166
Width: 651
VWidth: 2216
Flags: W
HStem: 0 93<210.267 416.058> 420 93<234 413.877> 838 93<209.071 416.256>
VStem: 89 91<123.818 191.925> 465 94<140.767 368.267 561.767 789.622>
LayerCount: 2
Fore
SplineSet
465 675 m 0
 465 761 401 838 314 838 c 0
 268 838 230 820 201 784 c 1
 188 771 175 768 162 777 c 2
 132 795 l 1
 112 805 110 819 126 838 c 1
 174 900 236 931 314 931 c 0
 451 931 559 814 559 675 c 256
 559 592 522 516 463 472 c 0
 459 468 459 463 463 459 c 0
 522 415 559 335 559 255 c 256
 559 117 451 0 314 0 c 0
 211 0 126 68 93 145 c 0
 90 151 89 156 89 161 c 0
 89 172 96 180 110 186 c 1
 145 195 l 2
 161 199 173 195 180 182 c 1
 200 133 251 93 314 93 c 0
 400 93 465 168 465 255 c 0
 465 340 397 420 314 420 c 2
 262 420 l 2
 243 420 234 429 234 448 c 2
 234 483 l 2
 234 503 243 513 262 513 c 2
 314 513 l 2
 400 513 465 588 465 675 c 0
EndSplineSet
Validated: 1
EndChar

StartChar: iishortcyrillic
Encoding: 1081 1081 168
Width: 744
VWidth: 2216
Flags: W
HStem: 0 93<225.347 559> 911 20G<111.5 167.5 579 632.5> 1210 93<234 513>
VStem: 93 93<132.654 931> 559 93<93 931>
LayerCount: 2
Fore
SplineSet
186 234 m 2
 186 158 249 93 325 93 c 2
 550 93 l 2
 556 93 559 96 559 102 c 2
 559 903 l 2
 559 922 569 931 589 931 c 2
 623 931 l 2
 642 931 652 922 652 903 c 2
 652 28 l 2
 652 9 642 0 623 0 c 2
 325 0 l 2
 199 0 93 105 93 234 c 2
 93 903 l 2
 93 922 102 931 121 931 c 2
 158 931 l 2
 177 931 186 922 186 903 c 2
 186 234 l 2
483 1212 m 2
 262 1210 l 2
 243 1210 234 1220 234 1240 c 2
 234 1275 l 2
 234 1294 243 1303 262 1303 c 2
 483 1303 l 2
 503 1303 513 1294 513 1275 c 2
 513 1240 l 2
 513 1221 503 1212 483 1212 c 2
EndSplineSet
Validated: 1
EndChar

StartChar: kacyrillic
Encoding: 1082 1082 169
Width: 691
VWidth: 2216
Flags: W
HStem: 0 21G<111.5 167.5 563 622.5> 0 21G<111.5 167.5 563 622.5> 911 20G<113 167.5 545.5 602.5>
VStem: 93 93<0 369 491 931>
LayerCount: 2
Fore
SplineSet
186 903 m 2xb0
 186 491 l 2
 186 472 191 471 201 487 c 1
 526 920 l 1
 533 927 541 931 550 931 c 2
 593 931 l 2
 612 931 631 906 617 885 c 1
 344 520 l 1
 337 513 336 506 342 500 c 1
 634 45 l 2
 641 34 645 26 645 19 c 0
 645 7 634 0 611 0 c 2
 569 0 l 2
 557 0 550 4 546 13 c 2
 284 420 l 2
 278 427 272 427 268 420 c 2
 193 318 l 2
 189 314 186 308 186 301 c 2
 186 28 l 2
 186 9 177 0 158 0 c 2
 121 0 l 2
 102 0 93 9 93 28 c 2
 93 903 l 2
 93 922 103 931 123 931 c 2
 158 931 l 2
 177 931 186 922 186 903 c 2xb0
EndSplineSet
Validated: 1
EndChar

StartChar: elcyrillic
Encoding: 1083 1083 170
Width: 744
VWidth: 2216
Flags: W
HStem: 0 21G<117.5 173 577.5 632.5> 0 21G<117.5 173 577.5 632.5> 838 93<370.002 558.998>
VStem: 96 97<0 132.512> 279 91<482.391 838> 559 93<0 838>
LayerCount: 2
Fore
SplineSet
559 28 m 2xbc
 559 829 l 2
 559 835 556 838 550 838 c 2
 379 838 l 2
 373 838 370 835 370 829 c 0
 358 664 337 515 307 379 c 1
 277 252 239 131 193 17 c 0
 187 5 179 0 167 0 c 2
 128 0 l 2
 107 0 96 6 96 19 c 0
 96 24 98 31 102 39 c 0
 184 243 233 413 259 648 c 0
 268 732 275 818 279 903 c 0
 280 922 291 931 310 931 c 2
 623 931 l 2
 642 931 652 922 652 903 c 2
 652 28 l 2
 652 9 642 0 623 0 c 2
 587 0 l 2
 568 0 559 9 559 28 c 2xbc
EndSplineSet
Validated: 1
EndChar

StartChar: emcyrillic
Encoding: 1084 1084 171
Width: 837
VWidth: 2216
Flags: W
HStem: 0 21G<111.5 167.5 670.5 726.5> 0 21G<111.5 167.5 670.5 726.5> 911 20G<111.5 151.5 686.5 726.5>
VStem: 93 93<0 729.997> 652 93<0 723.639>
LayerCount: 2
Fore
SplineSet
652 28 m 2xb8
 652 719 l 2
 652 728 647 737 636 723 c 2
 442 465 l 2
 426 443 410 443 396 465 c 1
 201 723 l 6
 197 728 194 730 192 730 c 0
 188 730 186 726 186 719 c 6
 186 28 l 2
 186 9 177 0 158 0 c 2
 121 0 l 2
 102 0 93 9 93 28 c 2
 93 903 l 2
 93 922 102 931 121 931 c 2
 147 931 l 2
 156 931 164 927 171 920 c 1
 411 600 l 1
 415 591 420 591 426 600 c 2
 667 920 l 1
 674 927 682 931 691 931 c 2
 717 931 l 2
 736 931 745 922 745 903 c 2
 745 28 l 2
 745 9 736 0 717 0 c 2
 680 0 l 2
 661 0 652 9 652 28 c 2xb8
EndSplineSet
Validated: 1
EndChar

StartChar: encyrillic
Encoding: 1085 1085 172
Width: 744
VWidth: 2216
Flags: W
HStem: 0 21G<111.5 167.5 579 632.5> 0 21G<111.5 167.5 579 632.5> 420 93<186.002 558.998> 911 20G<111.5 167.5 579 632.5>
VStem: 93 93<0 420 513 931> 559 93<0 420 513 931>
LayerCount: 2
Fore
SplineSet
652 903 m 2xbc
 652 28 l 2
 652 9 642 0 623 0 c 2
 589 0 l 2
 569 0 559 9 559 28 c 2
 559 411 l 2
 559 417 556 420 550 420 c 2
 195 420 l 2
 189 420 186 417 186 411 c 2
 186 28 l 2
 186 9 177 0 158 0 c 2
 121 0 l 2
 102 0 93 9 93 28 c 2
 93 903 l 2
 93 922 102 931 121 931 c 2
 158 931 l 2
 177 931 186 922 186 903 c 2
 186 522 l 2
 186 516 189 513 195 513 c 2
 550 513 l 2
 556 513 559 516 559 522 c 2
 559 903 l 2
 559 922 569 931 589 931 c 2
 623 931 l 2
 642 931 652 922 652 903 c 2xbc
EndSplineSet
Validated: 1
EndChar

StartChar: ucyrillic
Encoding: 1091 1091 178
Width: 744
VWidth: 2216
Flags: W
HStem: -370 93<141 543.535> 0 93<225.654 559> 911 20G<111.5 167.5 579 632.5>
VStem: 93 93<132.654 931> 559 93<-261.941 0 93 931>
LayerCount: 2
Fore
SplineSet
327 0 m 2
 198 0 93 105 93 234 c 2
 93 903 l 2
 93 922 102 931 121 931 c 2
 158 931 l 2
 177 931 186 922 186 903 c 2
 186 234 l 2
 186 157 250 93 327 93 c 2
 550 93 l 2
 556 93 559 96 559 102 c 2
 559 903 l 2
 559 922 569 931 589 931 c 2
 623 931 l 2
 642 931 652 922 652 903 c 2
 652 -184 l 2
 652 -233 634 -277 598 -316 c 1
 559 -352 514 -370 465 -370 c 2
 169 -370 l 2
 150 -370 141 -361 141 -342 c 2
 141 -305 l 2
 141 -286 150 -277 169 -277 c 2
 465 -277 l 2
 516 -277 559 -236 559 -184 c 2
 559 -6 l 2
 559 -2 556 0 550 0 c 2
 327 0 l 2
EndSplineSet
Validated: 1
EndChar

StartChar: efcyrillic
Encoding: 1092 1092 179
Width: 1024
VWidth: 2216
Flags: W
HStem: 0 93<240.557 465 559 787.203> 838 93<238.46 465 559 780.854>
VStem: 93 93<143.016 784.5> 465 94<-370 0 93 838 931 1165> 838 93<146.942 787.417>
CounterMasks: 1 38
LayerCount: 2
Fore
SplineSet
93 699 m 1
 93 700 93 700 93 701 c 0
 93 826 224 931 362 931 c 0
 365 931 369 931 372 931 c 1
 465 931 l 1
 465 1134 l 2
 465 1155 476 1165 494 1165 c 2
 530 1165 l 2
 548 1165 559 1155 559 1134 c 2
 559 931 l 1
 652 931 l 1
 656 931 661 931 665 931 c 0
 800 931 931 823 931 699 c 2
 931 234 l 1
 931 231 931 228 931 225 c 0
 931 99 791 0 662 0 c 0
 659 0 655 0 652 0 c 1
 559 0 l 1
 559 -342 l 2
 559 -360 548 -370 530 -370 c 2
 494 -370 l 2
 476 -370 465 -360 465 -342 c 2
 465 0 l 1
 372 0 l 1
 369 0 366 0 363 0 c 0
 228 0 93 105 93 234 c 2
 93 699 l 1
838 699 m 1
 838 701 l 0
 838 781 738 838 652 838 c 2
 559 838 l 1
 559 93 l 1
 652 93 l 1
 654 93 657 93 659 93 c 0
 746 93 838 151 838 234 c 2
 838 699 l 1
186 234 m 2
 186 232 l 0
 186 147 282 93 372 93 c 2
 465 93 l 1
 465 838 l 1
 372 838 l 1
 369 838 365 838 362 838 c 0
 275 838 186 777 186 699 c 2
 186 234 l 2
EndSplineSet
Validated: 1
EndChar

StartChar: tsecyrillic
Encoding: 1094 1094 181
Width: 790
VWidth: 2216
Flags: W
HStem: 0 93<225.347 559> 911 20G<111.5 167.5 579 632.5>
VStem: 93 93<132.654 931> 559 93<93 931> 652 93<-184 0>
LayerCount: 2
Fore
SplineSet
186 234 m 2xe8
 186 158 249 93 325 93 c 2
 550 93 l 2
 556 93 559 96 559 102 c 2
 559 903 l 2
 559 922 569 931 589 931 c 2
 623 931 l 2
 642 931 652 922 652 903 c 2
 652 102 l 2xf0
 652 96 654 93 660 93 c 2
 717 93 l 2
 736 93 745 84 745 65 c 2
 745 -156 l 2
 745 -175 736 -184 717 -184 c 2
 680 -184 l 2
 661 -184 652 -175 652 -156 c 2
 652 -6 l 2
 652 -2 649 0 643 0 c 2
 325 0 l 2
 199 0 93 105 93 234 c 2
 93 903 l 2
 93 922 102 931 121 931 c 2
 158 931 l 2
 177 931 186 922 186 903 c 2
 186 234 l 2xe8
EndSplineSet
Validated: 1
EndChar

StartChar: checyrillic
Encoding: 1095 1095 182
Width: 744
VWidth: 2216
Flags: W
HStem: 0 21G<577.5 632.5> 0 21G<577.5 632.5> 420 93<238.053 558.998> 911 20G<111.5 167.5 577.5 632.5>
VStem: 93 93<563.276 931> 559 93<0 419.998 513 931>
LayerCount: 2
Fore
SplineSet
186 652 m 2xbc
 186 566 279 513 372 513 c 2
 550 513 l 2
 556 513 559 516 559 522 c 2
 559 903 l 2
 559 922 568 931 587 931 c 2
 623 931 l 2
 642 931 652 922 652 903 c 2
 652 28 l 2
 652 9 642 0 623 0 c 2
 587 0 l 2
 568 0 559 9 559 28 c 2
 559 411 l 2
 559 417 556 420 550 420 c 2
 372 420 l 2
 229 420 93 515 93 652 c 2
 93 903 l 2
 93 922 102 931 121 931 c 2
 158 931 l 2
 177 931 186 922 186 903 c 2
 186 652 l 2xbc
EndSplineSet
Validated: 1
EndChar

StartChar: shacyrillic
Encoding: 1096 1096 183
Width: 1024
VWidth: 2216
Flags: W
HStem: 0 93<225.654 465 559 838> 911 20G<111.5 167.5 486 539.5 858 912.5>
VStem: 93 93<132.654 931> 465 94<93 931> 838 93<93 931>
CounterMasks: 1 38
LayerCount: 2
Fore
SplineSet
186 234 m 2
 186 157 250 93 327 93 c 2
 457 93 l 2
 463 93 465 96 465 102 c 2
 465 903 l 2
 465 922 476 931 496 931 c 2
 530 931 l 2
 549 931 559 922 559 903 c 2
 559 102 l 2
 559 96 561 93 567 93 c 2
 829 93 l 2
 835 93 838 96 838 102 c 2
 838 903 l 2
 838 922 848 931 868 931 c 2
 903 931 l 2
 922 931 931 922 931 903 c 2
 931 28 l 2
 931 9 922 0 903 0 c 2
 327 0 l 2
 198 0 93 105 93 234 c 2
 93 903 l 2
 93 922 102 931 121 931 c 2
 158 931 l 2
 177 931 186 922 186 903 c 2
 186 234 l 2
EndSplineSet
Validated: 1
EndChar

StartChar: shchacyrillic
Encoding: 1097 1097 184
Width: 1069
VWidth: 2216
Flags: W
HStem: 0 93<225.347 465 559 838> 911 20G<111.5 167.5 484.5 539.5 858 912.5>
VStem: 93 93<132.654 931> 465 94<93 931> 838 93<93 931> 931 93<-184 0>
LayerCount: 2
Fore
SplineSet
186 234 m 2xf4
 186 158 249 93 325 93 c 2
 457 93 l 2
 463 93 465 96 465 102 c 2
 465 903 l 2
 465 922 475 931 494 931 c 2
 530 931 l 2
 549 931 559 922 559 903 c 2
 559 102 l 2
 559 96 561 93 567 93 c 2
 829 93 l 2
 835 93 838 96 838 102 c 2
 838 903 l 2
 838 922 848 931 868 931 c 2
 903 931 l 2
 922 931 931 922 931 903 c 2
 931 102 l 2xf8
 931 96 934 93 940 93 c 2
 996 93 l 2
 1015 93 1024 84 1024 65 c 2
 1024 -156 l 2
 1024 -175 1015 -184 996 -184 c 2
 959 -184 l 2
 940 -184 931 -175 931 -156 c 2
 931 -6 l 2
 931 -2 928 0 922 0 c 2
 325 0 l 2
 199 0 93 105 93 234 c 2
 93 903 l 2
 93 922 102 931 121 931 c 2
 158 931 l 2
 177 931 186 922 186 903 c 2
 186 234 l 2xf4
EndSplineSet
Validated: 1
EndChar

StartChar: hardsigncyrillic
Encoding: 1098 1098 185
Width: 790
VWidth: 2216
Flags: W
HStem: 0 93<232 563.911> 420 91<232 559.561> 838 93<45 138.998>
VStem: 45 187<838.007 931> 139 93<93 420 511 837.998> 604 93<132.251 379.961>
CounterMasks: 1 e0
LayerCount: 2
Fore
SplineSet
697 234 m 2xec
 697 104 591 0 463 0 c 2
 167 0 l 2
 148 0 139 9 139 28 c 2
 139 829 l 2xec
 139 835 136 838 130 838 c 2
 74 838 l 2
 55 838 45 847 45 866 c 2
 45 903 l 2
 45 922 55 931 74 931 c 2
 204 931 l 2
 223 931 232 922 232 903 c 2xf4
 232 522 l 2
 232 515 234 511 240 511 c 2
 465 511 l 2
 591 511 697 408 697 279 c 2
 697 234 l 2xec
604 279 m 2
 604 355 537 420 465 420 c 2
 240 420 l 2
 234 420 232 417 232 411 c 2
 232 102 l 2
 232 96 234 93 240 93 c 2
 463 93 l 2
 540 93 604 157 604 234 c 2
 604 279 l 2
EndSplineSet
Validated: 1
EndChar

StartChar: yericyrillic
Encoding: 1099 1099 186
Width: 837
VWidth: 2216
Flags: W
HStem: 0 93<186 426.653> 420 93<186 421.561> 911 20G<111.5 167.5 672 726.5>
VStem: 93 93<93 420 513 931> 465 94<132.654 380.346> 652 93<0 931>
LayerCount: 2
Fore
SplineSet
745 903 m 2
 745 28 l 2
 745 9 736 0 717 0 c 2
 682 0 l 2
 662 0 652 9 652 28 c 2
 652 903 l 2
 652 922 662 931 682 931 c 2
 717 931 l 2
 736 931 745 922 745 903 c 2
559 234 m 2
 559 105 453 0 327 0 c 2
 121 0 l 2
 102 0 93 9 93 28 c 2
 93 903 l 2
 93 922 102 931 121 931 c 2
 158 931 l 2
 177 931 186 922 186 903 c 2
 186 522 l 2
 186 516 189 513 195 513 c 2
 327 513 l 2
 453 513 559 408 559 279 c 2
 559 234 l 2
465 279 m 2
 465 355 399 420 327 420 c 2
 195 420 l 2
 189 420 186 417 186 411 c 2
 186 102 l 2
 186 96 189 93 195 93 c 2
 327 93 l 2
 403 93 465 158 465 234 c 2
 465 279 l 2
EndSplineSet
Validated: 1
EndChar

StartChar: softsigncyrillic
Encoding: 1100 1100 187
Width: 744
VWidth: 2216
Flags: W
HStem: 0 93<186 519.653> 420 91<186 519.653> 911 20G<111.5 167.5>
VStem: 93 93<93 420 511 931> 559 93<132.654 379.961>
LayerCount: 2
Fore
SplineSet
652 234 m 2
 652 105 546 0 420 0 c 2
 121 0 l 2
 102 0 93 9 93 28 c 2
 93 903 l 2
 93 922 102 931 121 931 c 2
 158 931 l 2
 177 931 186 922 186 903 c 2
 186 522 l 2
 186 515 189 511 195 511 c 2
 420 511 l 2
 546 511 652 408 652 279 c 2
 652 234 l 2
559 279 m 2
 559 355 496 420 420 420 c 2
 195 420 l 2
 189 420 186 417 186 411 c 2
 186 102 l 2
 186 96 189 93 195 93 c 2
 420 93 l 2
 497 93 559 158 559 234 c 2
 559 279 l 2
EndSplineSet
Validated: 1
EndChar

StartChar: ereversedcyrillic
Encoding: 1101 1101 188
Width: 744
VWidth: 2216
Flags: W
HStem: 0 93<93 504.867> 420 91<327 559> 838 93<93 505.755>
VStem: 559 93<145.41 419.998 511.003 786.488>
CounterMasks: 1 e0
LayerCount: 2
Fore
SplineSet
372 93 m 2
 461 93 559 146 559 234 c 2
 559 411 l 2
 559 417 556 420 550 420 c 2
 355 420 l 2
 336 420 327 429 327 448 c 2
 327 483 l 2
 327 502 336 511 355 511 c 2
 550 511 l 2
 556 511 559 515 559 522 c 2
 559 699 l 2
 559 784 460 838 372 838 c 2
 121 838 l 2
 102 838 93 847 93 866 c 2
 93 903 l 2
 93 922 102 931 121 931 c 2
 372 931 l 2
 514 931 652 833 652 699 c 2
 652 234 l 2
 652 98 512 0 372 0 c 2
 121 0 l 2
 102 0 93 9 93 28 c 2
 93 65 l 2
 93 84 102 93 121 93 c 2
 372 93 l 2
EndSplineSet
Validated: 1
EndChar

StartChar: iucyrillic
Encoding: 1102 1102 189
Width: 837
VWidth: 2216
Flags: W
HStem: 0 93<411.452 613.178> 420 93<186.002 278.999> 838 93<411.634 613.849>
VStem: 93 93<0 420 513 931> 279 93<132.654 420 513 798.653> 652 93<132.654 799.339>
LayerCount: 2
Fore
SplineSet
513 0 m 1
 384 0 279 105 279 234 c 2
 279 411 l 2
 279 417 277 420 271 420 c 2
 195 420 l 2
 189 420 186 417 186 411 c 2
 186 28 l 2
 186 9 177 0 158 0 c 2
 121 0 l 2
 102 0 93 9 93 28 c 2
 93 903 l 2
 93 922 102 931 121 931 c 2
 158 931 l 2
 177 931 186 922 186 903 c 2
 186 522 l 2
 186 516 189 513 195 513 c 2
 271 513 l 2
 277 513 279 516 279 522 c 2
 279 699 l 2
 279 825 384 931 513 931 c 0
 575 931 632 910 678 864 c 0
 724 818 745 761 745 699 c 2
 745 234 l 2
 745 105 639 0 513 0 c 1
513 838 m 256
 437 838 372 776 372 699 c 2
 372 234 l 2
 372 157 436 93 513 93 c 256
 590 93 652 158 652 234 c 2
 652 699 l 2
 652 775 589 838 513 838 c 256
EndSplineSet
Validated: 1
EndChar

StartChar: iacyrillic
Encoding: 1103 1103 190
Width: 744
VWidth: 2216
Flags: W
HStem: 0 21G<121 181 577.5 632.5> 0 21G<121 181 577.5 632.5> 420 91<228.456 277.781 380.766 558.998> 838 93<225.387 558.998>
VStem: 93 93<552.587 799.089> 559 93<0 420 511 838>
LayerCount: 2
Fore
SplineSet
93 699 m 2xbc
 93 826 197 931 325 931 c 2
 623 931 l 2
 642 931 652 922 652 903 c 2
 652 28 l 2
 652 9 642 0 623 0 c 2
 587 0 l 2
 568 0 559 9 559 28 c 2
 559 411 l 2
 559 417 556 420 550 420 c 2
 411 420 l 2
 402 420 397 416 396 409 c 1
 201 15 l 2
 195 5 187 0 175 0 c 2
 136 0 l 2
 106 0 97 14 110 41 c 2
 292 409 l 1
 298 418 296 422 286 422 c 0
 179 422 93 537 93 652 c 2
 93 699 l 2xbc
186 652 m 2
 186 576 251 511 325 511 c 2
 550 511 l 2
 556 511 559 515 559 522 c 2
 559 829 l 2
 559 835 556 838 550 838 c 2
 325 838 l 2
 251 838 186 775 186 699 c 2
 186 652 l 2
EndSplineSet
Validated: 1
EndChar

StartChar: iocyrillic
Encoding: 1105 1105 191
Width: 744
VWidth: 2216
Flags: W
HStem: 0 93<202.766 652> 420 93<186 559> 838 93<236.848 507.004> 1210 93<234 325 420.007 513>
VStem: 93 93<109.766 420 513 786.9> 234 91<1210 1303> 420 93<1210 1303> 559 93<513 786.9>
LayerCount: 2
Fore
SplineSet
483 1210 m 2
 448 1210 l 2
 429 1210 420 1220 420 1240 c 1
 418 1275 l 1
 418 1294 428 1303 448 1303 c 2
 483 1303 l 2
 500 1303 513 1294 513 1275 c 2
 513 1240 l 2
 513 1221 503 1210 483 1210 c 2
372 838 m 0
 282 838 186 784 186 699 c 2
 186 522 l 2
 186 516 189 513 195 513 c 2
 550 513 l 2
 556 513 559 516 559 522 c 2
 559 699 l 2
 559 784 460 838 372 838 c 0
372 931 m 0
 514 931 652 834 652 699 c 2
 652 448 l 2
 652 429 642 420 623 420 c 2
 195 420 l 2
 189 420 186 417 186 411 c 2
 186 186 l 2
 186 134 227 93 279 93 c 2
 623 93 l 2
 642 93 652 84 652 65 c 2
 652 28 l 2
 652 9 642 0 623 0 c 2
 279 0 l 2
 177 0 93 84 93 186 c 2
 93 699 l 2
 93 834 229 931 372 931 c 0
297 1210 m 2
 262 1210 l 2
 243 1210 234 1220 234 1240 c 2
 234 1275 l 2
 234 1294 243 1303 262 1303 c 2
 297 1303 l 2
 316 1303 325 1294 325 1275 c 2
 325 1240 l 2
 325 1220 316 1210 297 1210 c 2
EndSplineSet
Validated: 1
EndChar

StartChar: Gamma
Encoding: 915 915 194
Width: 744
VWidth: 2216
Flags: W
HStem: 0 21G<111.5 167.5> 0 21G<111.5 167.5> 1210 93<186.002 652>
VStem: 93 93<0 1210>
LayerCount: 2
Fore
SplineSet
93 28 m 2xb0
 93 1275 l 2
 93 1294 102 1303 121 1303 c 2
 623 1303 l 2
 642 1303 652 1294 652 1275 c 2
 652 1240 l 2
 652 1220 642 1210 623 1210 c 2
 195 1210 l 2
 189 1210 186 1208 186 1202 c 2
 186 28 l 2
 186 9 177 0 158 0 c 2
 121 0 l 2
 102 0 93 9 93 28 c 2xb0
EndSplineSet
Validated: 1
EndChar

StartChar: Delta
Encoding: 916 916 195
Width: 930
VWidth: 2216
Flags: W
HStem: 0 93<192.001 738.998> 1283 20G<432 497.5>
VStem: 93 99<93 245.125> 739 99<93 150.422>
LayerCount: 2
Fore
SplineSet
520 1282 m 1
 838 97 l 2
 838 95 838 95 838 92 c 0
 838 89 l 1
 838 28 l 2
 838 10 828 0 810 0 c 2
 121 0 l 2
 103 0 93 10 93 28 c 2
 93 89 l 2
 93 91 94 94 95 97 c 9
 411 1282 l 2
 415 1296 425 1303 439 1303 c 2
 491 1303 l 2
 504 1303 515 1296 520 1282 c 1
738 104 m 2
 474 1091 l 2
 473 1095 470 1098 465 1098 c 0
 460 1098 457 1095 457 1091 c 2
 193 104 l 1
 192 102 192 100 192 99 c 0
 192 96 193 93 201 93 c 1
 730 93 l 2
 736 93 739 96 739 100 c 0
 739 101 739 102 738 104 c 2
EndSplineSet
Validated: 1
EndChar

StartChar: Theta
Encoding: 920 920 199
Width: 837
VWidth: 2216
Flags: W
HStem: 0 93<268.617 567.897> 652 93<279 559> 1210 93<270.555 568.119>
VStem: 93 93<173.024 1129.15> 652 93<173.436 1128.74>
LayerCount: 2
Fore
SplineSet
420 1210 m 256
 303 1210 186 1136 186 1024 c 2
 186 279 l 2
 186 166 303 93 420 93 c 256
 537 93 652 167 652 279 c 2
 652 1024 l 2
 652 1135 537 1210 420 1210 c 256
307 745 m 2
 530 745 l 2
 549 745 559 736 559 717 c 2
 559 680 l 2
 559 661 549 652 530 652 c 2
 307 652 l 2
 288 652 279 661 279 680 c 2
 279 717 l 2
 279 736 288 745 307 745 c 2
420 0 m 0
 252 0 93 116 93 279 c 2
 93 1024 l 2
 93 1185 251 1303 420 1303 c 0
 586 1303 745 1184 745 1024 c 2
 745 279 l 2
 745 117 585 0 420 0 c 0
EndSplineSet
Validated: 1
EndChar

StartChar: Lambda
Encoding: 923 923 202
Width: 924
VWidth: 2216
Flags: W
HStem: 0 21G<118.5 173 757.5 812.5> 0 21G<118.5 173 757.5 812.5> 1283 20G<432 497.5>
LayerCount: 2
Fore
SplineSet
102 37 m 1x60
 411 1282 l 2
 415 1296 425 1303 439 1303 c 2
 491 1303 l 2
 504 1303 514 1296 520 1282 c 1
 831 37 l 1
 832 33 832 29 832 26 c 0
 832 9 822 0 803 0 c 2
 766 0 l 2
 749 0 739 8 738 22 c 1
 474 1078 l 2
 473 1082 469 1085 464 1085 c 0
 459 1085 457 1082 457 1078 c 2
 193 22 l 2
 190 8 181 0 165 0 c 2
 128 0 l 2xa0
 109 0 99 7 99 21 c 0
 99 26 100 31 102 37 c 1x60
EndSplineSet
Validated: 1
EndChar

StartChar: Xi
Encoding: 926 926 205
Width: 837
VWidth: 2216
Flags: W
HStem: 0 93<93 745> 652 93<234 606> 1210 93<93 745>
VStem: 93 652<0 93 1210 1303>
LayerCount: 2
Fore
SplineSet
121 1303 m 2
 717 1303 l 2
 736 1303 745 1294 745 1275 c 2
 745 1240 l 2
 745 1220 736 1210 717 1210 c 2
 121 1210 l 2
 102 1210 93 1220 93 1240 c 2
 93 1275 l 2
 93 1294 102 1303 121 1303 c 2
262 745 m 2
 576 745 l 2
 596 745 606 736 606 717 c 2
 606 680 l 2
 606 661 596 652 576 652 c 2
 262 652 l 2
 243 652 234 661 234 680 c 2
 234 717 l 2
 234 736 243 745 262 745 c 2
121 93 m 2
 717 93 l 2
 736 93 745 84 745 65 c 2
 745 28 l 2
 745 9 736 0 717 0 c 2
 121 0 l 2
 102 0 93 9 93 28 c 2
 93 65 l 2
 93 84 102 93 121 93 c 2
EndSplineSet
Validated: 1
EndChar

StartChar: Pi
Encoding: 928 928 207
Width: 837
VWidth: 2216
Flags: W
HStem: 0 21G<111.5 167.5 670.5 726.5> 0 21G<111.5 167.5 670.5 726.5> 1210 93<186.002 651.998>
VStem: 93 93<0 1210> 652 93<0 1210>
LayerCount: 2
Fore
SplineSet
93 28 m 2xb8
 93 1275 l 2
 93 1294 102 1303 121 1303 c 2
 717 1303 l 2
 736 1303 745 1294 745 1275 c 2
 745 28 l 2
 745 9 736 0 717 0 c 2
 680 0 l 2
 661 0 652 9 652 28 c 2
 652 1202 l 2
 652 1208 649 1210 643 1210 c 2
 195 1210 l 2
 189 1210 186 1208 186 1202 c 2
 186 28 l 2
 186 9 177 0 158 0 c 2
 121 0 l 2
 102 0 93 9 93 28 c 2xb8
EndSplineSet
Validated: 1
EndChar

StartChar: Sigma
Encoding: 931 931 209
Width: 837
VWidth: 2216
Flags: W
HStem: 0 93<196.864 745> 1210 93<196.864 745>
VStem: 93 652<0 92.9934 1210.01 1303>
LayerCount: 2
Fore
SplineSet
121 1303 m 2
 717 1303 l 2
 736 1303 745 1294 745 1275 c 2
 745 1240 l 2
 745 1220 736 1210 717 1210 c 2
 206 1210 l 2
 197 1210 194 1206 197 1197 c 2
 465 665 l 1
 466 656 466 648 465 639 c 1
 197 106 l 2
 194 97 197 93 206 93 c 2
 717 93 l 2
 736 93 745 84 745 65 c 2
 745 28 l 2
 745 9 736 0 717 0 c 2
 121 0 l 2
 102 0 93 9 93 28 c 2
 93 100 l 2
 93 103 94 105 95 108 c 2
 362 639 l 2
 366 648 366 656 362 665 c 2
 95 1197 l 2
 94 1198 93 1201 93 1204 c 2
 93 1275 l 2
 93 1294 102 1303 121 1303 c 2
EndSplineSet
Validated: 1
EndChar

StartChar: Phi
Encoding: 934 934 212
Width: 930
VWidth: 2216
Flags: W
HStem: 0 21G<439 492> 0 21G<439 492> 191 95<309.251 419.997 511.003 623.451> 1283 20G<439 492>
VStem: 93 93<410.459 893.5> 420 91<0 190.997 294 1019 1113.14 1303> 745 93<411.113 893.5>
CounterMasks: 1 0e
LayerCount: 2
Fore
SplineSet
838 559 m 18xbe
 838 456 804 367 730 294 c 0
 669 233 598 201 520 191 c 0
 515 191 511 187 511 182 c 2
 511 28 l 2
 511 10 501 0 483 0 c 2
 448 0 l 2
 430 0 420 10 420 28 c 2
 420 182 l 2
 420 187 416 191 411 191 c 0
 236 214 93 372 93 559 c 10
 93 745 l 18
 93 849 128 938 201 1009 c 0
 261 1067 332 1101 411 1113 c 0
 417 1114 420 1118 420 1121 c 2
 420 1275 l 2
 420 1293 430 1303 448 1303 c 2
 483 1303 l 2
 501 1303 511 1293 511 1275 c 2
 511 1121 l 2
 511 1118 515 1116 520 1113 c 1
 598 1101 669 1067 730 1009 c 0
 804 938 838 849 838 745 c 10
 838 559 l 18xbe
186 559 m 18
 186 424 285 308 409 286 c 1
 415 286 l 2
 418 286 420 286 420 294 c 2
 420 1009 l 2
 420 1015 417 1019 413 1019 c 0
 412 1019 411 1018 409 1018 c 0
 285 992 186 881 186 745 c 10
 186 559 l 18
745 559 m 10
 745 745 l 18
 745 881 645 991 522 1018 c 0
 520 1018 518 1019 517 1019 c 0
 513 1019 511 1015 511 1009 c 2
 511 294 l 2
 511 286 513 286 516 286 c 2
 522 286 l 1
 645 308 745 423 745 559 c 10
EndSplineSet
Validated: 1
EndChar

StartChar: Psi
Encoding: 936 936 214
Width: 930
VWidth: 2216
Flags: W
HStem: 0 21G<438.5 492.5> 0 21G<438.5 492.5> 1283 20G<111.5 167.5 438.5 492.5 765 819.5>
VStem: 93 93<596.288 1303> 420 91<0 376.998 478.842 1303> 745 93<596.288 1303>
CounterMasks: 1 1c
LayerCount: 2
Fore
SplineSet
411 377 m 0xbc
 237 399 93 558 93 745 c 2
 93 1275 l 2
 93 1294 102 1303 121 1303 c 2
 158 1303 l 2
 177 1303 186 1294 186 1275 c 2
 186 745 l 2
 186 610 284 494 409 472 c 1
 416 468 420 471 420 481 c 2
 420 1275 l 2
 420 1294 429 1303 448 1303 c 2
 483 1303 l 2
 502 1303 511 1294 511 1275 c 2
 511 481 l 2
 511 471 515 468 522 472 c 1
 646 494 745 609 745 745 c 2
 745 1275 l 2
 745 1294 755 1303 775 1303 c 2
 810 1303 l 2
 829 1303 838 1294 838 1275 c 2
 838 745 l 2
 838 558 693 399 520 377 c 0
 514 377 511 374 511 368 c 2
 511 28 l 2
 511 9 502 0 483 0 c 2
 448 0 l 2
 429 0 420 9 420 28 c 2
 420 368 l 2
 420 374 417 377 411 377 c 0xbc
EndSplineSet
Validated: 1
EndChar

StartChar: Omega
Encoding: 937 937 215
Width: 930
VWidth: 2216
Flags: W
HStem: 0 93<186 327 604 745> 1210 93<317.304 612.69>
VStem: 93 93<500.11 1076.03> 327 91<93.0022 311.719> 513 91<93.0022 311.719> 745 93<498.566 1076.03>
LayerCount: 2
Fore
SplineSet
465 1303 m 0
 671 1303 838 1137 838 931 c 2
 838 652 l 2
 838 489 735 363 615 312 c 1
 608 306 604 300 604 294 c 2
 604 102 l 2
 604 96 608 93 615 93 c 2
 717 93 l 2
 736 93 745 84 745 65 c 2
 745 28 l 2
 745 9 736 0 717 0 c 2
 541 0 l 2
 522 0 513 9 513 28 c 2
 513 353 l 2
 513 367 520 377 533 381 c 0
 651 416 745 509 745 652 c 2
 745 931 l 2
 745 1084 618 1210 465 1210 c 0
 310 1210 186 1084 186 931 c 2
 186 652 l 2
 186 511 278 418 398 381 c 0
 411 377 418 367 418 353 c 2
 418 28 l 2
 418 9 409 0 390 0 c 2
 214 0 l 2
 195 0 186 9 186 28 c 2
 186 65 l 2
 186 84 195 93 214 93 c 2
 318 93 l 2
 324 93 327 96 327 102 c 2
 327 294 l 2
 327 300 323 306 316 312 c 1
 195 362 93 493 93 652 c 2
 93 931 l 2
 93 1137 260 1303 465 1303 c 0
EndSplineSet
Validated: 1
EndChar

StartChar: alpha
Encoding: 945 945 216
Width: 870
VWidth: 2216
Flags: W
HStem: -0 93<225.625 427.482> 838 93<224.931 428.154>
VStem: 93 93<132.654 799.089> 509 95<282.772 609.982>
LayerCount: 2
Fore
SplineSet
326 -0 m 0
 201 0 93 105 93 234 c 2
 93 699 l 2
 93 826 197 931 325 931 c 0
 383 931 434 914 478 875 c 0
 540 819 551 772 562 686 c 0
 564 669 567 668 575 693 c 0
 595 756 623 847 645 914 c 0
 648 926 657 933 669 933 c 0
 673 933 677 933 682 931 c 2
 714 920 l 1
 731 911 738 899 732 883 c 0
 685 742 640 593 604 439 c 1
 604 433 l 1
 634 285 701 137 771 48 c 0
 776 42 777 35 777 29 c 0
 777 14 765 0 749 0 c 2
 704 0 l 2
 694 0 686 4 682 13 c 1
 636 72 599 143 569 225 c 0
 560 248 554 195 554 193 c 0
 544 137 519 89 476 54 c 0
 431 18 378 0 326 -0 c 0
186 234 m 2
 186 158 249 93 325 93 c 0
 395 93 454 146 463 210 c 0
 474 285 490 359 509 433 c 1
 509 442 l 1
 488 530 477 624 463 723 c 0
 454 787 397 838 325 838 c 0
 251 838 186 775 186 699 c 2
 186 234 l 2
EndSplineSet
Validated: 1
EndChar

StartChar: beta
Encoding: 946 946 217
Width: 744
VWidth: 2216
Flags: W
HStem: 0 93<278.466 490.004> 745 93<279 452.08> 1212 91<246.623 451.013>
VStem: 93 93<-370 1148.33> 513 93<900.347 1149.34> 559 93<163.789 675.586>
LayerCount: 2
Fore
SplineSet
372 93 m 0xf4
 473 93 559 176 559 279 c 2
 559 559 l 2xf4
 559 660 473 745 372 745 c 2
 307 745 l 2
 288 745 279 754 279 773 c 2
 279 810 l 2
 279 829 288 838 307 838 c 2
 349 838 l 2
 440 838 513 927 513 1024 c 0
 513 1118 441 1212 349 1212 c 0
 255 1212 186 1117 186 1024 c 2
 186 -342 l 2
 186 -361 177 -370 158 -370 c 2
 121 -370 l 2
 102 -370 93 -361 93 -342 c 2
 93 1024 l 2
 93 1172 201 1303 349 1303 c 0
 496 1303 606 1173 606 1024 c 256xf8
 606 936 571 868 515 812 c 0
 511 809 509 802 517 799 c 1
 593 743 652 667 652 559 c 2
 652 279 l 2
 652 124 524 0 372 0 c 0
 350 0 326 4 297 11 c 0
 277 15 270 28 279 50 c 2
 292 82 l 2
 296 95 308 101 325 100 c 1
 339 96 355 93 372 93 c 0xf4
EndSplineSet
Validated: 1
EndChar

StartChar: gamma
Encoding: 947 947 218
Width: 744
VWidth: 2216
Flags: W
HStem: 838 93<93 219.549>
VStem: 303 93<-154.974 233.802> 368 100<265.406 596.488> 442 93<-153.743 232.514>
LayerCount: 2
Fore
SplineSet
468 463 m 1xa0
 505 310 535 168 535 0 c 0
 535 -115 500 -233 463 -340 c 0
 454 -363 438 -374 421 -374 c 0
 403 -374 384 -362 375 -338 c 0
 327 -209 303 -140 303 0 c 0xd0
 303 176 329 328 368 465 c 1
 368 474 l 2
 368 480 367 487 364 496 c 0
 329 613 291 701 249 762 c 0
 214 813 179 838 141 838 c 2
 121 838 l 2
 102 838 93 847 93 866 c 2
 93 903 l 2
 93 922 102 931 121 931 c 2
 141 931 l 2
 282 931 361 775 414 643 c 0
 418 630 423 627 429 643 c 0
 468 737 517 835 569 909 c 0
 579 923 595 927 611 916 c 2
 639 896 l 1
 647 888 652 881 652 873 c 0
 652 867 649 861 645 855 c 0
 562 731 521 635 468 474 c 1
 468 463 l 1xa0
411 227 m 0
 397 142 396 66 396 0 c 0
 396 -46 402 -96 414 -149 c 0
 415 -153 416 -156 418 -156 c 0
 420 -156 421 -153 422 -149 c 0
 436 -99 442 -49 442 0 c 0
 442 79 432 156 420 227 c 0
 419 232 418 235 416 235 c 0
 414 235 412 232 411 227 c 0
EndSplineSet
Validated: 1
EndChar

StartChar: delta
Encoding: 948 948 219
Width: 744
VWidth: 2216
Flags: W
HStem: 0 93<252.97 491.122> 1169 93<338.884 558.656> 1211 94<281.551 531.261>
VStem: 93 93<163.789 769.597> 186 95<1068.15 1210.19> 559 93<163.789 769.445>
LayerCount: 2
Fore
SplineSet
337 1211 m 0xac
 302 1211 281 1197 281 1163 c 0xac
 281 1139 294 1111 316 1080 c 0
 379 993 485 927 569 849 c 0
 625 797 652 730 652 652 c 2
 652 279 l 2
 652 124 524 0 372 0 c 256
 220 0 93 124 93 279 c 2
 93 652 l 2xb4
 93 787 191 899 314 924 c 0
 326 927 327 933 318 940 c 0
 259 999 186 1074 186 1161 c 0
 186 1239 247 1305 312 1305 c 0xac
 371 1305 428 1290 483 1275 c 0
 492 1272 530 1262 539 1262 c 1
 555 1256 562 1246 561 1230 c 2
 556 1195 l 2
 553 1176 541 1169 525 1169 c 0xcc
 503 1169 476 1180 457 1186 c 0
 430 1194 377 1211 337 1211 c 0xac
372 838 m 0
 270 838 186 753 186 652 c 2
 186 279 l 2x94
 186 177 270 93 372 93 c 0
 473 93 559 176 559 279 c 2
 559 652 l 2
 559 753 473 838 372 838 c 0
EndSplineSet
Validated: 1
EndChar

StartChar: epsilon
Encoding: 949 949 220
Width: 744
VWidth: 2216
Flags: W
HStem: 0 93<247.665 652> 420 93<248.416 465> 838 93<247.665 652>
VStem: 93 93<151.616 360.507 569.496 781.107>
LayerCount: 2
Fore
SplineSet
186 675 m 256
 186 579 273 513 372 513 c 2
 437 513 l 2
 456 513 465 503 465 483 c 2
 465 448 l 2
 465 429 456 420 437 420 c 2
 372 420 l 2
 276 420 186 349 186 255 c 0
 186 158 277 93 372 93 c 2
 623 93 l 2
 642 93 652 84 652 65 c 2
 652 28 l 2
 652 9 642 0 623 0 c 2
 372 0 l 2
 224 0 93 111 93 255 c 0
 93 337 135 411 201 459 c 0
 209 465 209 466 201 472 c 0
 135 520 93 591 93 675 c 0
 93 818 224 931 372 931 c 2
 623 931 l 2
 642 931 652 922 652 903 c 2
 652 866 l 2
 652 847 642 838 623 838 c 2
 372 838 l 2
 277 838 186 771 186 675 c 256
EndSplineSet
Validated: 1
EndChar

StartChar: zeta
Encoding: 950 950 221
Width: 744
VWidth: 2216
Flags: W
HStem: -370 93<186 519.09> 0 93<215.628 519.024> 1024 93<237.742 470> 1283 20G<112 166.5>
VStem: 93 93<120.553 447.729 1167.9 1303> 558 93<-238.081 -35.7336>
LayerCount: 2
Fore
SplineSet
186 240 m 0
 186 139 227 93 327 93 c 2
 420 93 l 2
 545 93 651 -9 651 -136 c 256
 651 -265 548 -370 420 -370 c 2
 214 -370 l 2
 195 -370 186 -361 186 -342 c 2
 186 -305 l 2
 186 -286 195 -277 214 -277 c 2
 420 -277 l 2
 494 -277 558 -215 558 -139 c 0
 558 -59 498 0 420 0 c 2
 327 0 l 2
 175 0 93 88 93 242 c 0
 93 312 110 390 143 478 c 0
 215 671 350 874 476 1009 c 0
 487 1019 481 1024 470 1024 c 2
 372 1024 l 2
 209 1024 106 1115 95 1273 c 0
 94 1293 101 1303 123 1303 c 2
 158 1303 l 2
 175 1303 187 1294 188 1277 c 0
 195 1171 258 1117 372 1117 c 2
 606 1117 l 2
 633 1117 652 1095 652 1071 c 0
 652 1059 647 1047 636 1037 c 0
 468 892 314 672 229 446 c 0
 199 367 186 298 186 240 c 0
EndSplineSet
Validated: 1
EndChar

StartChar: eta
Encoding: 951 951 222
Width: 837
VWidth: 2216
Flags: W
HStem: 0 21G<204.5 260.5> 0 21G<204.5 260.5> 838 93<93 184.4 346.015 584.133>
VStem: 186 93<0 769.597> 652 93<-370 766.351>
LayerCount: 2
Fore
SplineSet
465 838 m 0xb8
 363 838 279 753 279 652 c 2
 279 28 l 2
 279 9 270 0 251 0 c 2
 214 0 l 2
 195 0 186 9 186 28 c 2
 186 792 l 2
 186 818 167 838 141 838 c 2
 121 838 l 2
 102 838 93 847 93 866 c 2
 93 903 l 2
 93 922 102 931 121 931 c 2
 141 931 l 2
 198 931 234 898 262 859 c 1
 266 850 271 854 275 857 c 0
 329 906 391 931 465 931 c 0
 618 931 745 805 745 652 c 2
 745 -342 l 2
 745 -361 736 -370 717 -370 c 2
 682 -370 l 2
 662 -370 652 -361 652 -342 c 2
 652 652 l 2
 652 755 565 838 465 838 c 0xb8
EndSplineSet
Validated: 1
EndChar

StartChar: theta
Encoding: 952 952 223
Width: 1024
VWidth: 2216
Flags: W
HStem: 0 93<573.117 729.628> 465 94<186.142 287.962> 745 93<440.581 745 838.001 931> 1210 93<441.89 675.389>
VStem: 93 93<372 464.671> 279 93<907.388 1139.77> 745 93<109.766 744.998 838 1138.35>
LayerCount: 2
Fore
SplineSet
838 186 m 2
 838 84 753 0 652 0 c 0
 583 0 531 28 496 84 c 2
 273 446 l 2
 264 459 251 465 234 465 c 0
 206 465 186 447 186 420 c 2
 186 401 l 2
 186 382 177 372 158 372 c 2
 121 372 l 2
 102 372 93 382 93 401 c 2
 93 420 l 2
 93 497 158 559 234 559 c 0
 286 559 325 537 351 494 c 2
 576 132 l 1
 590 106 616 93 652 93 c 0
 703 93 745 134 745 186 c 2
 745 736 l 2
 745 742 742 745 736 745 c 2
 559 745 l 2
 407 745 279 869 279 1024 c 0
 279 1177 404 1303 559 1303 c 0
 712 1303 838 1177 838 1024 c 2
 838 846 l 2
 838 840 840 838 846 838 c 2
 903 838 l 2
 922 838 931 829 931 810 c 2
 931 773 l 2
 931 754 922 745 903 745 c 2
 846 745 l 2
 840 745 838 742 838 736 c 2
 838 186 l 2
372 1024 m 0
 372 922 457 838 559 838 c 2
 736 838 l 2
 742 838 745 840 745 846 c 2
 745 1024 l 2
 745 1124 662 1210 559 1210 c 256
 456 1210 372 1124 372 1024 c 0
EndSplineSet
Validated: 1
EndChar

